{"glyphs":{"0":{"ha":884,"x_min":33,"x_max":851,"o":"m 370 -13 q 113 97 193 -13 q 61 408 33 206 l 87 597 q 228 912 116 802 q 516 1023 340 1023 q 772 912 693 1023 q 822 597 851 802 l 795 408 q 657 97 768 206 q 370 -13 547 -13 m 391 145 q 532 208 485 145 q 601 426 580 271 l 624 580 q 616 801 645 736 q 492 865 586 865 q 352 801 399 865 q 283 580 304 736 l 260 426 q 268 208 239 271 q 391 145 298 145 m 427 398 q 363 412 386 398 q 346 465 340 426 l 357 544 q 390 597 362 582 q 457 611 417 611 q 520 597 497 611 q 538 544 543 582 l 527 465 q 493 412 520 426 q 427 398 466 398 z "},"1":{"ha":884,"x_min":49,"x_max":774,"o":"m 49 0 l 73 167 l 333 167 l 423 806 l 386 806 q 277 679 347 723 q 122 636 206 635 l 134 804 q 318 864 232 808 q 455 1010 404 919 l 665 1010 l 548 167 l 774 167 l 750 0 l 49 0 z "},"2":{"ha":884,"x_min":4,"x_max":848,"o":"m 4 0 l 33 211 q 112 397 51 331 q 314 515 173 463 l 458 566 q 566 616 530 591 q 610 703 601 640 l 615 732 q 596 836 625 807 q 492 865 567 865 q 386 831 420 865 q 328 693 351 797 l 116 706 q 242 949 149 875 q 514 1023 335 1023 q 773 949 698 1023 q 830 735 848 875 l 821 676 q 734 509 806 566 q 551 413 662 452 l 405 362 q 287 303 317 328 q 249 213 258 278 l 242 167 l 763 167 l 739 0 l 4 0 z "},"3":{"ha":884,"x_min":19,"x_max":841,"o":"m 369 -13 q 95 62 172 -13 q 32 288 19 138 l 247 301 q 275 177 245 203 q 396 152 306 152 q 516 182 477 152 q 563 280 554 212 l 568 314 q 545 417 578 386 q 434 448 513 448 l 299 448 l 322 612 l 457 612 q 559 633 528 612 q 598 710 591 654 l 604 750 q 585 833 612 808 q 486 859 558 859 q 387 831 420 859 q 335 734 354 804 l 121 746 q 241 958 152 894 q 503 1023 330 1023 q 762 963 683 1023 q 822 769 841 904 l 817 741 q 746 609 806 657 q 602 553 686 562 l 596 516 q 740 451 686 509 q 780 301 794 394 l 778 275 q 653 54 755 120 q 369 -13 551 -13 z "},"4":{"ha":884,"x_min":27,"x_max":860,"o":"m 241 410 l 494 410 l 547 794 l 241 410 m 837 253 l 686 253 l 650 0 l 436 0 l 471 253 l 27 253 l 49 410 l 520 1010 l 792 1010 l 708 410 l 860 410 l 837 253 z "},"5":{"ha":884,"x_min":18,"x_max":838,"o":"m 369 -13 q 93 57 168 -13 q 34 306 18 126 l 250 318 q 274 178 245 211 q 391 145 303 145 q 518 182 481 145 q 566 299 554 220 l 572 342 q 555 453 583 418 q 429 487 527 487 l 97 487 l 170 1010 l 838 1010 l 817 852 l 364 852 l 336 655 l 516 655 q 742 586 673 655 q 792 376 812 518 l 777 269 q 659 68 759 148 q 369 -13 559 -13 z "},"6":{"ha":884,"x_min":28,"x_max":835,"o":"m 370 -13 q 105 80 182 -13 q 53 348 28 172 l 96 654 q 227 931 121 838 q 518 1023 333 1023 q 753 963 679 1023 q 835 764 826 903 l 605 735 q 575 838 598 812 q 480 865 552 865 q 366 817 404 865 q 311 653 327 769 l 294 543 l 311 543 q 402 607 348 582 q 547 631 456 631 q 744 554 682 631 q 785 331 806 477 l 782 303 q 656 66 759 145 q 370 -13 553 -13 m 390 145 q 514 188 473 145 q 564 304 554 230 l 567 321 q 551 446 578 402 q 439 490 523 490 q 316 446 356 490 q 264 321 275 402 l 261 304 q 278 184 250 223 q 390 145 307 145 z "},"7":{"ha":884,"x_min":121,"x_max":880,"o":"m 201 0 q 389 463 303 292 q 641 840 475 634 l 121 840 l 145 1010 l 880 1010 l 856 840 q 600 431 689 615 q 437 0 511 247 l 201 0 z "},"8":{"ha":884,"x_min":20,"x_max":841,"o":"m 370 -13 q 101 54 182 -13 q 40 261 20 121 l 44 289 q 121 444 58 384 q 283 514 184 505 l 288 551 q 167 608 212 558 q 133 740 121 658 l 139 780 q 249 964 157 905 q 515 1023 341 1023 q 765 964 689 1023 q 823 780 841 905 l 817 740 q 746 608 806 658 q 609 551 687 558 l 604 514 q 746 444 699 505 q 779 289 793 383 l 775 261 q 657 54 755 121 q 370 -13 558 -13 m 457 610 q 557 634 523 610 q 600 721 591 659 l 604 750 q 585 835 612 812 q 492 859 558 859 q 392 835 427 859 q 348 750 357 812 l 345 721 q 364 634 336 659 q 457 610 391 610 m 393 152 q 520 187 484 152 q 564 292 556 222 l 567 309 q 551 416 577 380 q 434 452 525 452 q 307 416 343 452 q 261 309 271 380 l 259 292 q 276 187 250 222 q 393 152 302 152 z "},"9":{"ha":884,"x_min":49,"x_max":856,"o":"m 446 520 q 569 565 529 520 q 621 689 610 610 l 624 706 q 606 826 635 787 q 494 865 577 865 q 371 823 410 865 q 321 706 331 780 l 318 689 q 335 565 307 610 q 446 520 362 520 m 367 -13 q 133 49 207 -13 q 49 246 59 110 l 280 275 q 311 170 287 196 q 405 145 336 145 q 520 194 481 145 q 574 357 558 242 l 590 467 l 573 467 q 480 403 535 427 q 336 379 424 379 q 140 456 201 379 q 100 679 78 533 l 104 707 q 229 944 125 865 q 515 1023 332 1023 q 780 931 703 1023 q 832 662 856 838 l 789 356 q 660 81 764 176 q 367 -13 557 -13 z "},"\u0000":{"ha":0,"x_min":0,"x_max":0,"o":""},"\r":{"ha":0,"x_min":0,"x_max":0,"o":""}," ":{"ha":884,"x_min":0,"x_max":0,"o":""}," ":{"ha":884,"x_min":0,"x_max":0,"o":""},"A":{"ha":884,"x_min":-47,"x_max":790,"o":"m 539 413 l 492 840 l 319 413 l 539 413 m 585 0 l 557 246 l 251 246 l 152 0 l -47 0 l 385 1010 l 641 1010 l 790 0 l 585 0 z "},"À":{"ha":884,"x_min":-47,"x_max":790,"o":"m 539 413 l 492 840 l 319 413 l 539 413 m 585 0 l 557 246 l 251 246 l 152 0 l -47 0 l 385 1010 l 641 1010 l 790 0 l 585 0 m 509 1136 l 271 1389 l 549 1389 l 659 1136 l 509 1136 z "},"Á":{"ha":884,"x_min":-47,"x_max":822,"o":"m 539 413 l 492 840 l 319 413 l 539 413 m 585 0 l 557 246 l 251 246 l 152 0 l -47 0 l 385 1010 l 641 1010 l 790 0 l 585 0 m 364 1136 l 544 1389 l 822 1389 l 514 1136 l 364 1136 z "},"Â":{"ha":884,"x_min":-47,"x_max":848,"o":"m 539 413 l 492 840 l 319 413 l 539 413 m 585 0 l 557 246 l 251 246 l 152 0 l -47 0 l 385 1010 l 641 1010 l 790 0 l 585 0 m 283 1124 l 227 1222 l 484 1419 l 645 1419 l 848 1222 l 766 1125 l 542 1261 l 283 1124 z "},"Ã":{"ha":884,"x_min":-47,"x_max":866,"o":"m 539 413 l 492 840 l 319 413 l 539 413 m 585 0 l 557 246 l 251 246 l 152 0 l -47 0 l 385 1010 l 641 1010 l 790 0 l 585 0 m 643 1149 q 557 1169 587 1149 q 510 1212 528 1189 q 477 1256 492 1236 q 438 1275 462 1275 q 397 1256 417 1275 q 371 1174 378 1236 l 369 1162 l 227 1162 l 230 1181 q 304 1351 245 1283 q 452 1419 364 1419 q 540 1400 510 1419 q 587 1356 569 1380 q 620 1312 605 1332 q 657 1292 635 1292 q 697 1311 678 1292 q 723 1394 716 1331 l 725 1405 l 866 1405 l 864 1386 q 790 1217 850 1285 q 643 1149 731 1149 z "},"Ä":{"ha":884,"x_min":-47,"x_max":817,"o":"m 539 413 l 492 840 l 319 413 l 539 413 m 585 0 l 557 246 l 251 246 l 152 0 l -47 0 l 385 1010 l 641 1010 l 790 0 l 585 0 m 366 1131 q 289 1151 317 1131 q 268 1220 260 1170 l 269 1236 q 311 1307 277 1287 q 394 1328 345 1328 q 472 1307 444 1328 q 492 1236 500 1287 l 491 1220 q 449 1151 484 1170 q 366 1131 415 1131 m 684 1131 q 605 1151 634 1131 q 585 1220 577 1170 l 586 1236 q 628 1307 593 1287 q 712 1328 662 1328 q 790 1307 763 1328 q 809 1236 817 1287 l 808 1220 q 766 1151 801 1170 q 684 1131 732 1131 z "},"Å":{"ha":884,"x_min":-47,"x_max":814,"o":"m 539 413 l 492 840 l 319 413 l 539 413 m 585 0 l 557 246 l 251 246 l 152 0 l -47 0 l 385 1010 l 641 1010 l 790 0 l 585 0 m 521 1109 q 350 1155 412 1109 q 303 1301 289 1202 l 308 1341 q 397 1488 322 1439 q 582 1537 472 1537 q 754 1488 693 1537 q 801 1341 814 1439 l 795 1301 q 706 1155 782 1202 q 521 1109 631 1109 m 537 1216 q 610 1235 583 1216 q 644 1301 636 1254 l 649 1341 q 634 1408 655 1386 q 567 1429 614 1429 q 493 1408 520 1429 q 460 1341 466 1386 l 455 1301 q 468 1235 447 1254 q 537 1216 490 1216 z "},"Ā":{"ha":884,"x_min":-47,"x_max":831,"o":"m 539 413 l 492 840 l 319 413 l 539 413 m 585 0 l 557 246 l 251 246 l 152 0 l -47 0 l 385 1010 l 641 1010 l 790 0 l 585 0 m 256 1179 l 280 1346 l 831 1346 l 807 1179 l 256 1179 z "},"Ă":{"ha":884,"x_min":-47,"x_max":890,"o":"m 539 413 l 492 840 l 319 413 l 539 413 m 585 0 l 557 246 l 251 246 l 152 0 l -47 0 l 385 1010 l 641 1010 l 790 0 l 585 0 m 524 1128 q 294 1198 367 1128 q 241 1419 221 1268 l 420 1419 q 438 1297 409 1332 q 543 1263 467 1263 q 658 1297 619 1263 q 711 1419 697 1332 l 890 1419 q 774 1198 867 1268 q 524 1128 681 1128 z "},"Ą":{"ha":884,"x_min":-47,"x_max":852,"o":"m 539 413 l 492 840 l 319 413 l 539 413 m 585 0 l 557 246 l 251 246 l 152 0 l -47 0 l 385 1010 l 641 1010 l 790 0 l 585 0 m 679 -279 q 527 -239 581 -279 q 485 -121 473 -199 q 563 11 495 -44 q 703 86 630 66 l 729 29 q 667 -23 682 3 q 649 -73 653 -49 q 665 -122 644 -106 q 734 -139 686 -139 q 788 -136 756 -139 q 852 -126 819 -133 l 833 -264 q 753 -275 793 -271 q 679 -279 713 -279 z "},"Ǻ":{"ha":884,"x_min":-47,"x_max":907,"o":"m 539 413 l 492 840 l 319 413 l 539 413 m 585 0 l 557 246 l 251 246 l 152 0 l -47 0 l 385 1010 l 641 1010 l 790 0 l 585 0 m 521 1109 q 350 1155 412 1109 q 303 1301 289 1202 l 308 1341 q 397 1488 322 1439 q 582 1537 472 1537 q 754 1488 693 1537 q 801 1341 814 1439 l 795 1301 q 706 1155 782 1202 q 521 1109 631 1109 m 537 1216 q 610 1235 583 1216 q 644 1301 636 1254 l 649 1341 q 634 1408 655 1386 q 567 1429 614 1429 q 493 1408 520 1429 q 460 1341 466 1386 l 455 1301 q 468 1235 447 1254 q 537 1216 490 1216 m 448 1515 l 629 1768 l 907 1768 l 598 1515 l 448 1515 z "},"B":{"ha":884,"x_min":11,"x_max":835,"o":"m 11 0 l 153 1010 l 524 1010 q 763 952 691 1010 q 817 773 835 894 l 811 726 q 758 607 799 649 q 640 553 716 566 l 634 516 q 757 456 717 508 q 785 327 797 405 l 777 264 q 662 64 758 129 q 383 0 566 0 l 11 0 m 311 598 l 453 598 q 554 622 521 598 q 595 699 587 645 l 602 753 q 583 830 610 807 q 489 852 557 852 l 346 852 l 311 598 m 249 158 l 395 158 q 517 185 479 158 q 564 277 556 212 l 572 335 q 550 425 581 398 q 436 452 519 452 l 289 452 l 249 158 z "},"":{"ha":884,"x_min":11,"x_max":835,"o":"m 11 0 l 153 1010 l 524 1010 q 763 952 691 1010 q 817 773 835 894 l 811 726 q 758 607 799 649 q 640 553 716 566 l 634 516 q 757 456 717 508 q 785 327 797 405 l 777 264 q 662 64 758 129 q 383 0 566 0 l 11 0 m 311 598 l 453 598 q 554 622 521 598 q 595 699 587 645 l 602 753 q 583 830 610 807 q 489 852 557 852 l 346 852 l 311 598 m 249 158 l 395 158 q 517 185 479 158 q 564 277 556 212 l 572 335 q 550 425 581 398 q 436 452 519 452 l 289 452 l 249 158 z "},"C":{"ha":884,"x_min":25,"x_max":875,"o":"m 383 -13 q 109 71 192 -13 q 49 323 25 155 l 100 682 q 231 937 124 852 q 529 1023 338 1023 q 798 938 721 1023 q 857 663 875 854 l 640 650 q 621 814 649 773 q 504 856 593 856 q 370 812 414 856 q 312 663 326 768 l 266 341 q 284 197 253 240 q 405 154 316 154 q 533 194 494 154 q 598 355 573 235 l 812 342 q 676 71 777 154 q 383 -13 576 -13 z "},"Ç":{"ha":884,"x_min":25,"x_max":875,"o":"m 383 -13 q 109 71 192 -13 q 49 323 25 155 l 100 682 q 231 937 124 852 q 529 1023 338 1023 q 798 938 721 1023 q 857 663 875 854 l 640 650 q 621 814 649 773 q 504 856 593 856 q 370 812 414 856 q 312 663 326 768 l 266 341 q 284 197 253 240 q 405 154 316 154 q 533 194 494 154 q 598 355 573 235 l 812 342 q 676 71 777 154 q 383 -13 576 -13 m 351 0 l 384 53 q 533 8 475 43 q 578 -112 591 -28 q 485 -242 566 -203 q 309 -282 404 -282 q 135 -245 199 -282 q 77 -121 71 -208 l 260 -109 q 272 -142 259 -133 q 318 -152 285 -152 q 373 -138 354 -152 q 399 -81 393 -124 q 394 -27 404 -45 q 351 0 384 -9 z "},"Ć":{"ha":884,"x_min":25,"x_max":875,"o":"m 383 -13 q 109 71 192 -13 q 49 323 25 155 l 100 682 q 231 937 124 852 q 529 1023 338 1023 q 798 938 721 1023 q 857 663 875 854 l 640 650 q 621 814 649 773 q 504 856 593 856 q 370 812 414 856 q 312 663 326 768 l 266 341 q 284 197 253 240 q 405 154 316 154 q 533 194 494 154 q 598 355 573 235 l 812 342 q 676 71 777 154 q 383 -13 576 -13 m 414 1136 l 595 1389 l 872 1389 l 564 1136 l 414 1136 z "},"Ĉ":{"ha":884,"x_min":25,"x_max":875,"o":"m 383 -13 q 109 71 192 -13 q 49 323 25 155 l 100 682 q 231 937 124 852 q 529 1023 338 1023 q 798 938 721 1023 q 857 663 875 854 l 640 650 q 621 814 649 773 q 504 856 593 856 q 370 812 414 856 q 312 663 326 768 l 266 341 q 284 197 253 240 q 405 154 316 154 q 533 194 494 154 q 598 355 573 235 l 812 342 q 676 71 777 154 q 383 -13 576 -13 m 301 1124 l 245 1222 l 501 1419 l 663 1419 l 866 1222 l 784 1125 l 559 1261 l 301 1124 z "},"Ċ":{"ha":884,"x_min":25,"x_max":875,"o":"m 383 -13 q 109 71 192 -13 q 49 323 25 155 l 100 682 q 231 937 124 852 q 529 1023 338 1023 q 798 938 721 1023 q 857 663 875 854 l 640 650 q 621 814 649 773 q 504 856 593 856 q 370 812 414 856 q 312 663 326 768 l 266 341 q 284 197 253 240 q 405 154 316 154 q 533 194 494 154 q 598 355 573 235 l 812 342 q 676 71 777 154 q 383 -13 576 -13 m 543 1131 q 441 1151 479 1131 q 410 1220 403 1170 l 412 1236 q 463 1307 419 1287 q 571 1328 506 1328 q 672 1307 635 1328 q 702 1236 710 1287 l 701 1220 q 650 1151 693 1170 q 543 1131 607 1131 z "},"Č":{"ha":884,"x_min":25,"x_max":883,"o":"m 383 -13 q 109 71 192 -13 q 49 323 25 155 l 100 682 q 231 937 124 852 q 529 1023 338 1023 q 798 938 721 1023 q 857 663 875 854 l 640 650 q 621 814 649 773 q 504 856 593 856 q 370 812 414 856 q 312 663 326 768 l 266 341 q 284 197 253 240 q 405 154 316 154 q 533 194 494 154 q 598 355 573 235 l 812 342 q 676 71 777 154 q 383 -13 576 -13 m 465 1141 l 261 1338 l 343 1436 l 568 1299 l 827 1437 l 883 1338 l 626 1141 l 465 1141 z "},"D":{"ha":884,"x_min":11,"x_max":852,"o":"m 11 0 l 153 1010 l 503 1010 q 766 910 679 1010 q 830 643 852 809 l 789 362 q 652 98 766 197 q 360 0 538 0 l 11 0 m 250 167 l 366 167 q 513 217 465 167 q 577 380 562 268 l 612 625 q 593 791 628 739 q 461 843 559 843 l 345 843 l 250 167 z "},"Ď":{"ha":884,"x_min":11,"x_max":865,"o":"m 11 0 l 153 1010 l 503 1010 q 766 910 679 1010 q 830 643 852 809 l 789 362 q 652 98 766 197 q 360 0 538 0 l 11 0 m 250 167 l 366 167 q 513 217 465 167 q 577 380 562 268 l 612 625 q 593 791 628 739 q 461 843 559 843 l 345 843 l 250 167 m 447 1141 l 244 1338 l 326 1436 l 551 1299 l 809 1437 l 865 1338 l 609 1141 l 447 1141 z "},"E":{"ha":884,"x_min":11,"x_max":880,"o":"m 11 0 l 153 1010 l 880 1010 l 857 843 l 345 843 l 313 624 l 763 624 l 740 457 l 290 457 l 250 167 l 763 167 l 739 0 l 11 0 z "},"":{"ha":884,"x_min":11,"x_max":880,"o":"m 11 0 l 153 1010 l 880 1010 l 857 843 l 345 843 l 313 624 l 763 624 l 740 457 l 290 457 l 250 167 l 763 167 l 739 0 l 11 0 z "},"È":{"ha":884,"x_min":11,"x_max":880,"o":"m 11 0 l 153 1010 l 880 1010 l 857 843 l 345 843 l 313 624 l 763 624 l 740 457 l 290 457 l 250 167 l 763 167 l 739 0 l 11 0 m 539 1136 l 302 1389 l 580 1389 l 689 1136 l 539 1136 z "},"É":{"ha":884,"x_min":11,"x_max":880,"o":"m 11 0 l 153 1010 l 880 1010 l 857 843 l 345 843 l 313 624 l 763 624 l 740 457 l 290 457 l 250 167 l 763 167 l 739 0 l 11 0 m 402 1134 l 582 1386 l 860 1386 l 552 1134 l 402 1134 z "},"Ê":{"ha":884,"x_min":11,"x_max":880,"o":"m 11 0 l 153 1010 l 880 1010 l 857 843 l 345 843 l 313 624 l 763 624 l 740 457 l 290 457 l 250 167 l 763 167 l 739 0 l 11 0 m 299 1124 l 244 1222 l 500 1419 l 662 1419 l 865 1222 l 783 1125 l 558 1261 l 299 1124 z "},"Ë":{"ha":884,"x_min":11,"x_max":880,"o":"m 11 0 l 153 1010 l 880 1010 l 857 843 l 345 843 l 313 624 l 763 624 l 740 457 l 290 457 l 250 167 l 763 167 l 739 0 l 11 0 m 389 1131 q 311 1151 340 1131 q 290 1220 283 1170 l 292 1236 q 333 1307 299 1287 q 417 1328 367 1328 q 495 1307 467 1328 q 515 1236 523 1287 l 514 1220 q 472 1151 506 1170 q 389 1131 438 1131 m 707 1131 q 628 1151 657 1131 q 607 1220 600 1170 l 609 1236 q 650 1307 616 1287 q 735 1328 684 1328 q 813 1307 785 1328 q 832 1236 840 1287 l 831 1220 q 789 1151 823 1170 q 707 1131 755 1131 z "},"Ē":{"ha":884,"x_min":11,"x_max":880,"o":"m 11 0 l 153 1010 l 880 1010 l 857 843 l 345 843 l 313 624 l 763 624 l 740 457 l 290 457 l 250 167 l 763 167 l 739 0 l 11 0 m 273 1179 l 297 1346 l 847 1346 l 823 1179 l 273 1179 z "},"Ĕ":{"ha":884,"x_min":11,"x_max":907,"o":"m 11 0 l 153 1010 l 880 1010 l 857 843 l 345 843 l 313 624 l 763 624 l 740 457 l 290 457 l 250 167 l 763 167 l 739 0 l 11 0 m 540 1128 q 311 1198 384 1128 q 258 1419 237 1268 l 437 1419 q 455 1297 426 1332 q 559 1263 484 1263 q 674 1297 635 1263 q 727 1419 713 1332 l 907 1419 q 790 1198 884 1268 q 540 1128 697 1128 z "},"Ė":{"ha":884,"x_min":11,"x_max":880,"o":"m 11 0 l 153 1010 l 880 1010 l 857 843 l 345 843 l 313 624 l 763 624 l 740 457 l 290 457 l 250 167 l 763 167 l 739 0 l 11 0 m 542 1131 q 439 1151 477 1131 q 409 1220 402 1170 l 410 1236 q 461 1307 418 1287 q 569 1328 505 1328 q 671 1307 634 1328 q 701 1236 708 1287 l 699 1220 q 649 1151 692 1170 q 542 1131 606 1131 z "},"Ę":{"ha":884,"x_min":11,"x_max":880,"o":"m 547 -279 q 395 -239 448 -279 q 352 -121 341 -199 q 430 11 362 -44 q 571 86 497 66 l 596 29 q 535 -23 549 3 q 516 -73 520 -49 q 532 -122 511 -106 q 601 -139 553 -139 q 655 -136 624 -139 q 720 -126 687 -133 l 701 -264 q 621 -275 660 -271 q 547 -279 581 -279 m 11 0 l 153 1010 l 880 1010 l 857 843 l 345 843 l 313 624 l 763 624 l 740 457 l 290 457 l 250 167 l 763 167 l 739 0 l 11 0 z "},"Ě":{"ha":884,"x_min":11,"x_max":885,"o":"m 11 0 l 153 1010 l 880 1010 l 857 843 l 345 843 l 313 624 l 763 624 l 740 457 l 290 457 l 250 167 l 763 167 l 739 0 l 11 0 m 467 1141 l 264 1338 l 346 1436 l 571 1299 l 830 1437 l 885 1338 l 629 1141 l 467 1141 z "},"F":{"ha":884,"x_min":56,"x_max":898,"o":"m 56 0 l 197 1010 l 898 1010 l 875 843 l 389 843 l 347 549 l 745 549 l 722 383 l 324 383 l 270 0 l 56 0 z "},"G":{"ha":884,"x_min":28,"x_max":851,"o":"m 379 -13 q 113 79 198 -13 q 52 341 28 170 l 97 664 q 230 930 121 837 q 520 1023 340 1023 q 773 941 696 1023 q 838 706 851 860 l 621 693 q 598 820 626 784 q 497 856 571 856 q 368 810 410 856 q 309 646 326 764 l 269 359 q 282 199 253 245 q 400 154 312 154 q 527 200 486 154 q 582 364 567 246 l 422 364 l 446 530 l 821 530 l 794 345 q 663 80 770 172 q 379 -13 556 -13 z "},"Ĝ":{"ha":884,"x_min":28,"x_max":856,"o":"m 379 -13 q 113 79 198 -13 q 52 341 28 170 l 97 664 q 230 930 121 837 q 520 1023 340 1023 q 773 941 696 1023 q 838 706 851 860 l 621 693 q 598 820 626 784 q 497 856 571 856 q 368 810 410 856 q 309 646 326 764 l 269 359 q 282 199 253 245 q 400 154 312 154 q 527 200 486 154 q 582 364 567 246 l 422 364 l 446 530 l 821 530 l 794 345 q 663 80 770 172 q 379 -13 556 -13 m 290 1124 l 235 1222 l 491 1419 l 653 1419 l 856 1222 l 774 1125 l 549 1261 l 290 1124 z "},"Ğ":{"ha":884,"x_min":28,"x_max":898,"o":"m 379 -13 q 113 79 198 -13 q 52 341 28 170 l 97 664 q 230 930 121 837 q 520 1023 340 1023 q 773 941 696 1023 q 838 706 851 860 l 621 693 q 598 820 626 784 q 497 856 571 856 q 368 810 410 856 q 309 646 326 764 l 269 359 q 282 199 253 245 q 400 154 312 154 q 527 200 486 154 q 582 364 567 246 l 422 364 l 446 530 l 821 530 l 794 345 q 663 80 770 172 q 379 -13 556 -13 m 532 1128 q 302 1198 375 1128 q 249 1419 229 1268 l 428 1419 q 446 1297 417 1332 q 551 1263 475 1263 q 665 1297 626 1263 q 718 1419 705 1332 l 898 1419 q 782 1198 875 1268 q 532 1128 688 1128 z "},"Ġ":{"ha":884,"x_min":28,"x_max":851,"o":"m 379 -13 q 113 79 198 -13 q 52 341 28 170 l 97 664 q 230 930 121 837 q 520 1023 340 1023 q 773 941 696 1023 q 838 706 851 860 l 621 693 q 598 820 626 784 q 497 856 571 856 q 368 810 410 856 q 309 646 326 764 l 269 359 q 282 199 253 245 q 400 154 312 154 q 527 200 486 154 q 582 364 567 246 l 422 364 l 446 530 l 821 530 l 794 345 q 663 80 770 172 q 379 -13 556 -13 m 538 1131 q 436 1151 473 1131 q 405 1220 398 1170 l 407 1236 q 458 1307 414 1287 q 566 1328 501 1328 q 667 1307 630 1328 q 697 1236 705 1287 l 696 1220 q 645 1151 688 1170 q 538 1131 602 1131 z "},"Ģ":{"ha":884,"x_min":28,"x_max":851,"o":"m 126 -379 l 256 -126 l 534 -126 l 277 -379 l 126 -379 m 379 -13 q 113 79 198 -13 q 52 341 28 170 l 97 664 q 230 930 121 837 q 520 1023 340 1023 q 773 941 696 1023 q 838 706 851 860 l 621 693 q 598 820 626 784 q 497 856 571 856 q 368 810 410 856 q 309 646 326 764 l 269 359 q 282 199 253 245 q 400 154 312 154 q 527 200 486 154 q 582 364 567 246 l 422 364 l 446 530 l 821 530 l 794 345 q 663 80 770 172 q 379 -13 556 -13 z "},"H":{"ha":884,"x_min":11,"x_max":872,"o":"m 11 0 l 153 1010 l 367 1010 l 316 641 l 606 641 l 658 1010 l 872 1010 l 731 0 l 516 0 l 583 475 l 293 475 l 226 0 l 11 0 z "},"Ĥ":{"ha":884,"x_min":11,"x_max":872,"o":"m 11 0 l 153 1010 l 367 1010 l 316 641 l 606 641 l 658 1010 l 872 1010 l 731 0 l 516 0 l 583 475 l 293 475 l 226 0 l 11 0 m 283 1124 l 227 1222 l 484 1419 l 645 1419 l 848 1222 l 766 1125 l 542 1261 l 283 1124 z "},"I":{"ha":884,"x_min":11,"x_max":872,"o":"m 11 0 l 35 167 l 288 167 l 383 843 l 130 843 l 153 1010 l 872 1010 l 850 843 l 597 843 l 503 167 l 755 167 l 731 0 l 11 0 z "},"Ì":{"ha":884,"x_min":11,"x_max":872,"o":"m 11 0 l 35 167 l 288 167 l 383 843 l 130 843 l 153 1010 l 872 1010 l 850 843 l 597 843 l 503 167 l 755 167 l 731 0 l 11 0 m 509 1136 l 271 1389 l 549 1389 l 659 1136 l 509 1136 z "},"Í":{"ha":884,"x_min":11,"x_max":872,"o":"m 11 0 l 35 167 l 288 167 l 383 843 l 130 843 l 153 1010 l 872 1010 l 850 843 l 597 843 l 503 167 l 755 167 l 731 0 l 11 0 m 364 1136 l 544 1389 l 822 1389 l 514 1136 l 364 1136 z "},"Î":{"ha":884,"x_min":11,"x_max":872,"o":"m 11 0 l 35 167 l 288 167 l 383 843 l 130 843 l 153 1010 l 872 1010 l 850 843 l 597 843 l 503 167 l 755 167 l 731 0 l 11 0 m 283 1124 l 227 1222 l 484 1419 l 645 1419 l 848 1222 l 766 1125 l 542 1261 l 283 1124 z "},"Ï":{"ha":884,"x_min":11,"x_max":872,"o":"m 11 0 l 35 167 l 288 167 l 383 843 l 130 843 l 153 1010 l 872 1010 l 850 843 l 597 843 l 503 167 l 755 167 l 731 0 l 11 0 m 366 1131 q 289 1151 317 1131 q 268 1220 260 1170 l 269 1236 q 311 1307 277 1287 q 394 1328 345 1328 q 472 1307 444 1328 q 492 1236 500 1287 l 491 1220 q 449 1151 484 1170 q 366 1131 415 1131 m 684 1131 q 605 1151 634 1131 q 585 1220 577 1170 l 586 1236 q 628 1307 593 1287 q 712 1328 662 1328 q 790 1307 763 1328 q 809 1236 817 1287 l 808 1220 q 766 1151 801 1170 q 684 1131 732 1131 z "},"Ĩ":{"ha":884,"x_min":11,"x_max":872,"o":"m 11 0 l 35 167 l 288 167 l 383 843 l 130 843 l 153 1010 l 872 1010 l 850 843 l 597 843 l 503 167 l 755 167 l 731 0 l 11 0 m 643 1149 q 557 1169 587 1149 q 510 1212 528 1189 q 477 1256 492 1236 q 438 1275 462 1275 q 397 1256 417 1275 q 371 1174 378 1236 l 369 1162 l 227 1162 l 230 1181 q 304 1351 245 1283 q 452 1419 364 1419 q 540 1400 510 1419 q 587 1356 569 1380 q 620 1312 605 1332 q 657 1292 635 1292 q 697 1311 678 1292 q 723 1394 716 1331 l 725 1405 l 866 1405 l 864 1386 q 790 1217 850 1285 q 643 1149 731 1149 z "},"Ī":{"ha":884,"x_min":11,"x_max":872,"o":"m 11 0 l 35 167 l 288 167 l 383 843 l 130 843 l 153 1010 l 872 1010 l 850 843 l 597 843 l 503 167 l 755 167 l 731 0 l 11 0 m 256 1179 l 280 1346 l 831 1346 l 807 1179 l 256 1179 z "},"Ĭ":{"ha":884,"x_min":11,"x_max":890,"o":"m 11 0 l 35 167 l 288 167 l 383 843 l 130 843 l 153 1010 l 872 1010 l 850 843 l 597 843 l 503 167 l 755 167 l 731 0 l 11 0 m 524 1128 q 294 1198 367 1128 q 241 1419 221 1268 l 420 1419 q 438 1297 409 1332 q 543 1263 467 1263 q 658 1297 619 1263 q 711 1419 697 1332 l 890 1419 q 774 1198 867 1268 q 524 1128 681 1128 z "},"Į":{"ha":884,"x_min":11,"x_max":872,"o":"m 11 0 l 35 167 l 288 167 l 383 843 l 130 843 l 153 1010 l 872 1010 l 850 843 l 597 843 l 503 167 l 755 167 l 731 0 l 11 0 m 446 -279 q 294 -239 347 -279 q 251 -121 240 -199 q 329 11 261 -44 q 470 86 396 66 l 495 29 q 434 -23 448 3 q 415 -73 419 -49 q 431 -122 410 -106 q 500 -139 452 -139 q 554 -136 523 -139 q 619 -126 586 -133 l 600 -264 q 520 -275 559 -271 q 446 -279 480 -279 z "},"İ":{"ha":884,"x_min":11,"x_max":872,"o":"m 11 0 l 35 167 l 288 167 l 383 843 l 130 843 l 153 1010 l 872 1010 l 850 843 l 597 843 l 503 167 l 755 167 l 731 0 l 11 0 m 525 1131 q 423 1151 461 1131 q 393 1220 385 1170 l 394 1236 q 445 1307 402 1287 q 553 1328 489 1328 q 655 1307 617 1328 q 684 1236 692 1287 l 683 1220 q 633 1151 676 1170 q 525 1131 590 1131 z "},"J":{"ha":884,"x_min":10,"x_max":855,"o":"m 352 -13 q 87 74 164 -13 q 28 351 10 160 l 245 365 q 263 196 235 237 q 374 154 290 154 q 491 194 449 154 q 547 337 532 235 l 617 843 l 338 843 l 361 1010 l 855 1010 l 760 328 q 637 77 737 167 q 352 -13 537 -13 z "},"Ĵ":{"ha":884,"x_min":10,"x_max":936,"o":"m 352 -13 q 87 74 164 -13 q 28 351 10 160 l 245 365 q 263 196 235 237 q 374 154 290 154 q 491 194 449 154 q 547 337 532 235 l 617 843 l 338 843 l 361 1010 l 855 1010 l 760 328 q 637 77 737 167 q 352 -13 537 -13 m 370 1124 l 314 1222 l 571 1419 l 732 1419 l 936 1222 l 854 1125 l 629 1261 l 370 1124 z "},"K":{"ha":884,"x_min":11,"x_max":926,"o":"m 288 441 l 226 0 l 11 0 l 153 1010 l 367 1010 l 312 607 l 360 607 l 701 1010 l 926 1010 l 515 544 l 780 0 l 557 0 l 340 441 l 288 441 z "},"Ķ":{"ha":884,"x_min":11,"x_max":926,"o":"m 288 441 l 226 0 l 11 0 l 153 1010 l 367 1010 l 312 607 l 360 607 l 701 1010 l 926 1010 l 515 544 l 780 0 l 557 0 l 340 441 l 288 441 m 143 -379 l 273 -126 l 551 -126 l 293 -379 l 143 -379 z "},"L":{"ha":884,"x_min":74,"x_max":755,"o":"m 74 0 l 216 1010 l 431 1010 l 313 167 l 755 167 l 731 0 l 74 0 z "},"Ĺ":{"ha":884,"x_min":74,"x_max":755,"o":"m 74 0 l 216 1010 l 431 1010 l 313 167 l 755 167 l 731 0 l 74 0 m 244 1136 l 424 1389 l 702 1389 l 394 1136 l 244 1136 z "},"Ļ":{"ha":884,"x_min":74,"x_max":755,"o":"m 74 0 l 216 1010 l 431 1010 l 313 167 l 755 167 l 731 0 l 74 0 m 168 -379 l 298 -126 l 576 -126 l 318 -379 l 168 -379 z "},"Ľ":{"ha":884,"x_min":74,"x_max":947,"o":"m 74 0 l 216 1010 l 431 1010 l 313 167 l 755 167 l 731 0 l 74 0 m 545 638 l 673 1010 l 947 1010 l 672 638 l 545 638 z "},"M":{"ha":884,"x_min":-9,"x_max":893,"o":"m 340 297 l 258 693 l 181 0 l -9 0 l 133 1010 l 347 1010 l 446 501 l 684 1010 l 893 1010 l 751 0 l 563 0 l 678 688 l 487 297 l 340 297 z "},"N":{"ha":884,"x_min":11,"x_max":872,"o":"m 471 0 l 297 720 l 196 0 l 11 0 l 153 1010 l 396 1010 l 582 247 l 688 1010 l 872 1010 l 731 0 l 471 0 z "},"Ñ":{"ha":884,"x_min":11,"x_max":874,"o":"m 471 0 l 297 720 l 196 0 l 11 0 l 153 1010 l 396 1010 l 582 247 l 688 1010 l 872 1010 l 731 0 l 471 0 m 650 1149 q 565 1169 595 1149 q 518 1212 535 1189 q 485 1256 500 1236 q 446 1275 470 1275 q 405 1256 424 1275 q 379 1174 385 1236 l 376 1162 l 235 1162 l 237 1181 q 312 1351 253 1283 q 460 1419 371 1419 q 547 1400 518 1419 q 595 1356 577 1380 q 628 1312 612 1332 q 664 1292 643 1292 q 705 1311 686 1292 q 731 1394 723 1331 l 732 1405 l 874 1405 l 871 1386 q 798 1217 857 1285 q 650 1149 739 1149 z "},"Ń":{"ha":884,"x_min":11,"x_max":872,"o":"m 471 0 l 297 720 l 196 0 l 11 0 l 153 1010 l 396 1010 l 582 247 l 688 1010 l 872 1010 l 731 0 l 471 0 m 398 1136 l 578 1389 l 856 1389 l 548 1136 l 398 1136 z "},"Ņ":{"ha":884,"x_min":11,"x_max":872,"o":"m 115 -379 l 245 -126 l 523 -126 l 265 -379 l 115 -379 m 471 0 l 297 720 l 196 0 l 11 0 l 153 1010 l 396 1010 l 582 247 l 688 1010 l 872 1010 l 731 0 l 471 0 z "},"Ň":{"ha":884,"x_min":11,"x_max":872,"o":"m 471 0 l 297 720 l 196 0 l 11 0 l 153 1010 l 396 1010 l 582 247 l 688 1010 l 872 1010 l 731 0 l 471 0 m 455 1141 l 251 1338 l 333 1436 l 558 1299 l 817 1437 l 872 1338 l 616 1141 l 455 1141 z "},"O":{"ha":884,"x_min":27,"x_max":857,"o":"m 370 -13 q 108 75 189 -13 q 49 323 27 163 l 100 682 q 229 933 122 843 q 516 1023 336 1023 q 777 933 697 1023 q 835 682 857 843 l 784 323 q 656 75 761 163 q 370 -13 551 -13 m 393 154 q 516 196 475 154 q 572 341 558 239 l 617 664 q 602 811 631 766 q 491 856 573 856 q 367 811 409 856 q 312 664 326 766 l 266 341 q 282 196 253 239 q 393 154 311 154 z "},"Ò":{"ha":884,"x_min":27,"x_max":857,"o":"m 370 -13 q 108 75 189 -13 q 49 323 27 163 l 100 682 q 229 933 122 843 q 516 1023 336 1023 q 777 933 697 1023 q 835 682 857 843 l 784 323 q 656 75 761 163 q 370 -13 551 -13 m 393 154 q 516 196 475 154 q 572 341 558 239 l 617 664 q 602 811 631 766 q 491 856 573 856 q 367 811 409 856 q 312 664 326 766 l 266 341 q 282 196 253 239 q 393 154 311 154 m 509 1136 l 271 1389 l 549 1389 l 659 1136 l 509 1136 z "},"Ó":{"ha":884,"x_min":27,"x_max":864,"o":"m 370 -13 q 108 75 189 -13 q 49 323 27 163 l 100 682 q 229 933 122 843 q 516 1023 336 1023 q 777 933 697 1023 q 835 682 857 843 l 784 323 q 656 75 761 163 q 370 -13 551 -13 m 393 154 q 516 196 475 154 q 572 341 558 239 l 617 664 q 602 811 631 766 q 491 856 573 856 q 367 811 409 856 q 312 664 326 766 l 266 341 q 282 196 253 239 q 393 154 311 154 m 405 1136 l 586 1389 l 864 1389 l 556 1136 l 405 1136 z "},"Ô":{"ha":884,"x_min":27,"x_max":857,"o":"m 370 -13 q 108 75 189 -13 q 49 323 27 163 l 100 682 q 229 933 122 843 q 516 1023 336 1023 q 777 933 697 1023 q 835 682 857 843 l 784 323 q 656 75 761 163 q 370 -13 551 -13 m 393 154 q 516 196 475 154 q 572 341 558 239 l 617 664 q 602 811 631 766 q 491 856 573 856 q 367 811 409 856 q 312 664 326 766 l 266 341 q 282 196 253 239 q 393 154 311 154 m 283 1124 l 227 1222 l 484 1419 l 645 1419 l 848 1222 l 766 1125 l 542 1261 l 283 1124 z "},"Õ":{"ha":884,"x_min":27,"x_max":866,"o":"m 370 -13 q 108 75 189 -13 q 49 323 27 163 l 100 682 q 229 933 122 843 q 516 1023 336 1023 q 777 933 697 1023 q 835 682 857 843 l 784 323 q 656 75 761 163 q 370 -13 551 -13 m 393 154 q 516 196 475 154 q 572 341 558 239 l 617 664 q 602 811 631 766 q 491 856 573 856 q 367 811 409 856 q 312 664 326 766 l 266 341 q 282 196 253 239 q 393 154 311 154 m 643 1149 q 557 1169 587 1149 q 510 1212 528 1189 q 477 1256 492 1236 q 438 1275 462 1275 q 397 1256 417 1275 q 371 1174 378 1236 l 369 1162 l 227 1162 l 230 1181 q 304 1351 245 1283 q 452 1419 364 1419 q 540 1400 510 1419 q 587 1356 569 1380 q 620 1312 605 1332 q 657 1292 635 1292 q 697 1311 678 1292 q 723 1394 716 1331 l 725 1405 l 866 1405 l 864 1386 q 790 1217 850 1285 q 643 1149 731 1149 z "},"Ö":{"ha":884,"x_min":27,"x_max":857,"o":"m 370 -13 q 108 75 189 -13 q 49 323 27 163 l 100 682 q 229 933 122 843 q 516 1023 336 1023 q 777 933 697 1023 q 835 682 857 843 l 784 323 q 656 75 761 163 q 370 -13 551 -13 m 393 154 q 516 196 475 154 q 572 341 558 239 l 617 664 q 602 811 631 766 q 491 856 573 856 q 367 811 409 856 q 312 664 326 766 l 266 341 q 282 196 253 239 q 393 154 311 154 m 366 1131 q 289 1151 317 1131 q 268 1220 260 1170 l 269 1236 q 311 1307 277 1287 q 394 1328 345 1328 q 472 1307 444 1328 q 492 1236 500 1287 l 491 1220 q 449 1151 484 1170 q 366 1131 415 1131 m 684 1131 q 605 1151 634 1131 q 585 1220 577 1170 l 586 1236 q 628 1307 593 1287 q 712 1328 662 1328 q 790 1307 763 1328 q 809 1236 817 1287 l 808 1220 q 766 1151 801 1170 q 684 1131 732 1131 z "},"Ō":{"ha":884,"x_min":27,"x_max":857,"o":"m 370 -13 q 108 75 189 -13 q 49 323 27 163 l 100 682 q 229 933 122 843 q 516 1023 336 1023 q 777 933 697 1023 q 835 682 857 843 l 784 323 q 656 75 761 163 q 370 -13 551 -13 m 393 154 q 516 196 475 154 q 572 341 558 239 l 617 664 q 602 811 631 766 q 491 856 573 856 q 367 811 409 856 q 312 664 326 766 l 266 341 q 282 196 253 239 q 393 154 311 154 m 256 1179 l 280 1346 l 831 1346 l 807 1179 l 256 1179 z "},"Ŏ":{"ha":884,"x_min":27,"x_max":890,"o":"m 370 -13 q 108 75 189 -13 q 49 323 27 163 l 100 682 q 229 933 122 843 q 516 1023 336 1023 q 777 933 697 1023 q 835 682 857 843 l 784 323 q 656 75 761 163 q 370 -13 551 -13 m 393 154 q 516 196 475 154 q 572 341 558 239 l 617 664 q 602 811 631 766 q 491 856 573 856 q 367 811 409 856 q 312 664 326 766 l 266 341 q 282 196 253 239 q 393 154 311 154 m 524 1128 q 294 1198 367 1128 q 241 1419 221 1268 l 420 1419 q 438 1297 409 1332 q 543 1263 467 1263 q 658 1297 619 1263 q 711 1419 697 1332 l 890 1419 q 774 1198 867 1268 q 524 1128 681 1128 z "},"Ő":{"ha":884,"x_min":27,"x_max":914,"o":"m 370 -13 q 108 75 189 -13 q 49 323 27 163 l 100 682 q 229 933 122 843 q 516 1023 336 1023 q 777 933 697 1023 q 835 682 857 843 l 784 323 q 656 75 761 163 q 370 -13 551 -13 m 393 154 q 516 196 475 154 q 572 341 558 239 l 617 664 q 602 811 631 766 q 491 856 573 856 q 367 811 409 856 q 312 664 326 766 l 266 341 q 282 196 253 239 q 393 154 311 154 m 596 1136 l 693 1389 l 914 1389 l 712 1136 l 596 1136 m 306 1136 l 403 1389 l 624 1389 l 422 1136 l 306 1136 z "},"P":{"ha":884,"x_min":11,"x_max":865,"o":"m 11 0 l 153 1010 l 535 1010 q 783 941 701 1010 q 845 727 865 872 l 826 592 q 706 386 806 452 q 439 319 606 319 l 271 319 l 226 0 l 11 0 m 294 484 l 451 484 q 564 510 525 484 q 614 609 604 537 l 629 715 q 607 816 639 789 q 501 843 576 843 l 345 843 l 294 484 z "},"Q":{"ha":884,"x_min":33,"x_max":857,"o":"m 678 -259 q 357 -227 451 -294 q 289 21 263 -160 q 93 123 153 38 q 53 350 33 208 l 100 682 q 229 933 122 843 q 516 1023 336 1023 q 777 933 697 1023 q 835 682 857 843 l 788 350 q 684 126 768 211 q 461 20 601 40 q 504 -81 455 -57 q 681 -83 554 -106 l 678 -259 m 396 176 q 520 222 479 176 q 576 367 562 268 l 617 664 q 602 809 631 765 q 491 852 573 852 q 367 809 409 852 q 312 664 326 765 l 270 367 q 285 222 256 268 q 396 176 314 176 z "},"R":{"ha":884,"x_min":11,"x_max":864,"o":"m 301 530 l 465 530 q 581 557 545 530 q 628 653 617 585 l 638 725 q 618 816 646 789 q 509 843 590 843 l 345 843 l 301 530 m 226 0 l 11 0 l 153 1010 l 559 1010 q 794 940 725 1010 q 845 735 864 870 l 832 648 q 759 472 817 538 q 598 381 701 405 l 770 0 l 543 0 l 380 365 l 278 365 l 226 0 z "},"Ŕ":{"ha":884,"x_min":11,"x_max":872,"o":"m 301 530 l 465 530 q 581 557 545 530 q 628 653 617 585 l 638 725 q 618 816 646 789 q 509 843 590 843 l 345 843 l 301 530 m 226 0 l 11 0 l 153 1010 l 559 1010 q 794 940 725 1010 q 845 735 864 870 l 832 648 q 759 472 817 538 q 598 381 701 405 l 770 0 l 543 0 l 380 365 l 278 365 l 226 0 m 414 1136 l 595 1389 l 872 1389 l 564 1136 l 414 1136 z "},"Ŗ":{"ha":884,"x_min":11,"x_max":864,"o":"m 301 530 l 465 530 q 581 557 545 530 q 628 653 617 585 l 638 725 q 618 816 646 789 q 509 843 590 843 l 345 843 l 301 530 m 226 0 l 11 0 l 153 1010 l 559 1010 q 794 940 725 1010 q 845 735 864 870 l 832 648 q 759 472 817 538 q 598 381 701 405 l 770 0 l 543 0 l 380 365 l 278 365 l 226 0 m 95 -379 l 225 -126 l 503 -126 l 245 -379 l 95 -379 z "},"Ř":{"ha":884,"x_min":11,"x_max":864,"o":"m 301 530 l 465 530 q 581 557 545 530 q 628 653 617 585 l 638 725 q 618 816 646 789 q 509 843 590 843 l 345 843 l 301 530 m 226 0 l 11 0 l 153 1010 l 559 1010 q 794 940 725 1010 q 845 735 864 870 l 832 648 q 759 472 817 538 q 598 381 701 405 l 770 0 l 543 0 l 380 365 l 278 365 l 226 0 m 436 1141 l 232 1338 l 314 1436 l 539 1299 l 798 1437 l 854 1338 l 597 1141 l 436 1141 z "},"S":{"ha":884,"x_min":1,"x_max":833,"o":"m 367 -11 q 158 21 247 -11 q 1 111 68 53 l 91 269 q 223 186 152 216 q 394 155 295 155 q 519 188 473 155 q 572 275 564 221 q 540 365 581 338 q 389 420 500 391 q 158 529 218 463 q 116 720 98 595 q 237 936 135 852 q 508 1020 338 1020 q 692 987 604 1020 q 833 903 780 953 l 755 751 q 628 826 693 799 q 486 852 562 852 q 380 825 419 852 q 333 744 341 798 q 362 660 326 691 q 523 598 399 630 q 748 491 689 558 q 789 293 807 423 q 652 68 768 146 q 367 -11 537 -11 z "},"":{"ha":884,"x_min":1,"x_max":833,"o":"m 367 -11 q 158 21 247 -11 q 1 111 68 53 l 91 269 q 223 186 152 216 q 394 155 295 155 q 519 188 473 155 q 572 275 564 221 q 540 365 581 338 q 389 420 500 391 q 158 529 218 463 q 116 720 98 595 q 237 936 135 852 q 508 1020 338 1020 q 692 987 604 1020 q 833 903 780 953 l 755 751 q 628 826 693 799 q 486 852 562 852 q 380 825 419 852 q 333 744 341 798 q 362 660 326 691 q 523 598 399 630 q 748 491 689 558 q 789 293 807 423 q 652 68 768 146 q 367 -11 537 -11 z "},"Ś":{"ha":884,"x_min":1,"x_max":833,"o":"m 367 -11 q 158 21 247 -11 q 1 111 68 53 l 91 269 q 223 186 152 216 q 394 155 295 155 q 519 188 473 155 q 572 275 564 221 q 540 365 581 338 q 389 420 500 391 q 158 529 218 463 q 116 720 98 595 q 237 936 135 852 q 508 1020 338 1020 q 692 987 604 1020 q 833 903 780 953 l 755 751 q 628 826 693 799 q 486 852 562 852 q 380 825 419 852 q 333 744 341 798 q 362 660 326 691 q 523 598 399 630 q 748 491 689 558 q 789 293 807 423 q 652 68 768 146 q 367 -11 537 -11 m 362 1136 l 543 1389 l 821 1389 l 513 1136 l 362 1136 z "},"Ŝ":{"ha":884,"x_min":1,"x_max":847,"o":"m 367 -11 q 158 21 247 -11 q 1 111 68 53 l 91 269 q 223 186 152 216 q 394 155 295 155 q 519 188 473 155 q 572 275 564 221 q 540 365 581 338 q 389 420 500 391 q 158 529 218 463 q 116 720 98 595 q 237 936 135 852 q 508 1020 338 1020 q 692 987 604 1020 q 833 903 780 953 l 755 751 q 628 826 693 799 q 486 852 562 852 q 380 825 419 852 q 333 744 341 798 q 362 660 326 691 q 523 598 399 630 q 748 491 689 558 q 789 293 807 423 q 652 68 768 146 q 367 -11 537 -11 m 282 1124 l 226 1222 l 482 1419 l 644 1419 l 847 1222 l 765 1125 l 540 1261 l 282 1124 z "},"Ş":{"ha":884,"x_min":1,"x_max":833,"o":"m 367 -11 q 158 21 247 -11 q 1 111 68 53 l 91 269 q 223 186 152 216 q 394 155 295 155 q 519 188 473 155 q 572 275 564 221 q 540 365 581 338 q 389 420 500 391 q 158 529 218 463 q 116 720 98 595 q 237 936 135 852 q 508 1020 338 1020 q 692 987 604 1020 q 833 903 780 953 l 755 751 q 628 826 693 799 q 486 852 562 852 q 380 825 419 852 q 333 744 341 798 q 362 660 326 691 q 523 598 399 630 q 748 491 689 558 q 789 293 807 423 q 652 68 768 146 q 367 -11 537 -11 m 332 0 l 365 53 q 514 8 456 43 q 559 -112 572 -28 q 466 -242 547 -203 q 290 -282 385 -282 q 116 -245 181 -282 q 58 -121 52 -208 l 241 -109 q 253 -142 240 -133 q 299 -152 266 -152 q 354 -138 335 -152 q 380 -81 374 -124 q 375 -27 385 -45 q 332 0 365 -9 z "},"Š":{"ha":884,"x_min":1,"x_max":864,"o":"m 367 -11 q 158 21 247 -11 q 1 111 68 53 l 91 269 q 223 186 152 216 q 394 155 295 155 q 519 188 473 155 q 572 275 564 221 q 540 365 581 338 q 389 420 500 391 q 158 529 218 463 q 116 720 98 595 q 237 936 135 852 q 508 1020 338 1020 q 692 987 604 1020 q 833 903 780 953 l 755 751 q 628 826 693 799 q 486 852 562 852 q 380 825 419 852 q 333 744 341 798 q 362 660 326 691 q 523 598 399 630 q 748 491 689 558 q 789 293 807 423 q 652 68 768 146 q 367 -11 537 -11 m 446 1141 l 242 1338 l 324 1436 l 549 1299 l 808 1437 l 864 1338 l 607 1141 l 446 1141 z "},"Ș":{"ha":884,"x_min":1,"x_max":833,"o":"m 367 -11 q 158 21 247 -11 q 1 111 68 53 l 91 269 q 223 186 152 216 q 394 155 295 155 q 519 188 473 155 q 572 275 564 221 q 540 365 581 338 q 389 420 500 391 q 158 529 218 463 q 116 720 98 595 q 237 936 135 852 q 508 1020 338 1020 q 692 987 604 1020 q 833 903 780 953 l 755 751 q 628 826 693 799 q 486 852 562 852 q 380 825 419 852 q 333 744 341 798 q 362 660 326 691 q 523 598 399 630 q 748 491 689 558 q 789 293 807 423 q 652 68 768 146 q 367 -11 537 -11 m 97 -379 l 227 -126 l 505 -126 l 247 -379 l 97 -379 z "},"T":{"ha":884,"x_min":93,"x_max":909,"o":"m 264 0 l 383 843 l 93 843 l 116 1010 l 909 1010 l 886 843 l 597 843 l 479 0 l 264 0 z "},"Ţ":{"ha":884,"x_min":39,"x_max":909,"o":"m 264 0 l 383 843 l 93 843 l 116 1010 l 909 1010 l 886 843 l 597 843 l 479 0 l 264 0 m 319 0 l 352 53 q 501 8 443 43 q 547 -112 559 -28 q 453 -242 534 -203 q 278 -282 372 -282 q 104 -245 168 -282 q 45 -121 39 -208 l 229 -109 q 241 -142 227 -133 q 287 -152 254 -152 q 342 -138 322 -152 q 367 -81 361 -124 q 362 -27 372 -45 q 319 0 352 -9 z "},"Ť":{"ha":884,"x_min":93,"x_max":909,"o":"m 264 0 l 383 843 l 93 843 l 116 1010 l 909 1010 l 886 843 l 597 843 l 479 0 l 264 0 m 447 1141 l 244 1338 l 326 1436 l 551 1299 l 809 1437 l 865 1338 l 609 1141 l 447 1141 z "},"Ț":{"ha":884,"x_min":93,"x_max":909,"o":"m 264 0 l 383 843 l 93 843 l 116 1010 l 909 1010 l 886 843 l 597 843 l 479 0 l 264 0 m 106 -379 l 236 -126 l 514 -126 l 256 -379 l 106 -379 z "},"U":{"ha":884,"x_min":34,"x_max":872,"o":"m 370 -13 q 110 76 186 -13 q 61 350 34 165 l 153 1010 l 367 1010 l 277 359 q 289 205 261 247 q 394 163 316 163 q 512 205 472 163 q 567 359 552 247 l 658 1010 l 872 1010 l 780 350 q 654 76 754 165 q 370 -13 554 -13 z "},"Ù":{"ha":884,"x_min":34,"x_max":872,"o":"m 370 -13 q 110 76 186 -13 q 61 350 34 165 l 153 1010 l 367 1010 l 277 359 q 289 205 261 247 q 394 163 316 163 q 512 205 472 163 q 567 359 552 247 l 658 1010 l 872 1010 l 780 350 q 654 76 754 165 q 370 -13 554 -13 m 509 1136 l 271 1389 l 549 1389 l 659 1136 l 509 1136 z "},"Ú":{"ha":884,"x_min":34,"x_max":872,"o":"m 370 -13 q 110 76 186 -13 q 61 350 34 165 l 153 1010 l 367 1010 l 277 359 q 289 205 261 247 q 394 163 316 163 q 512 205 472 163 q 567 359 552 247 l 658 1010 l 872 1010 l 780 350 q 654 76 754 165 q 370 -13 554 -13 m 364 1136 l 544 1389 l 822 1389 l 514 1136 l 364 1136 z "},"Û":{"ha":884,"x_min":34,"x_max":872,"o":"m 370 -13 q 110 76 186 -13 q 61 350 34 165 l 153 1010 l 367 1010 l 277 359 q 289 205 261 247 q 394 163 316 163 q 512 205 472 163 q 567 359 552 247 l 658 1010 l 872 1010 l 780 350 q 654 76 754 165 q 370 -13 554 -13 m 283 1124 l 227 1222 l 484 1419 l 645 1419 l 848 1222 l 766 1125 l 542 1261 l 283 1124 z "},"Ü":{"ha":884,"x_min":34,"x_max":872,"o":"m 370 -13 q 110 76 186 -13 q 61 350 34 165 l 153 1010 l 367 1010 l 277 359 q 289 205 261 247 q 394 163 316 163 q 512 205 472 163 q 567 359 552 247 l 658 1010 l 872 1010 l 780 350 q 654 76 754 165 q 370 -13 554 -13 m 366 1131 q 289 1151 317 1131 q 268 1220 260 1170 l 269 1236 q 311 1307 277 1287 q 394 1328 345 1328 q 472 1307 444 1328 q 492 1236 500 1287 l 491 1220 q 449 1151 484 1170 q 366 1131 415 1131 m 684 1131 q 605 1151 634 1131 q 585 1220 577 1170 l 586 1236 q 628 1307 593 1287 q 712 1328 662 1328 q 790 1307 763 1328 q 809 1236 817 1287 l 808 1220 q 766 1151 801 1170 q 684 1131 732 1131 z "},"Ũ":{"ha":884,"x_min":34,"x_max":872,"o":"m 370 -13 q 110 76 186 -13 q 61 350 34 165 l 153 1010 l 367 1010 l 277 359 q 289 205 261 247 q 394 163 316 163 q 512 205 472 163 q 567 359 552 247 l 658 1010 l 872 1010 l 780 350 q 654 76 754 165 q 370 -13 554 -13 m 643 1149 q 557 1169 587 1149 q 510 1212 528 1189 q 477 1256 492 1236 q 438 1275 462 1275 q 397 1256 417 1275 q 371 1174 378 1236 l 369 1162 l 227 1162 l 230 1181 q 304 1351 245 1283 q 452 1419 364 1419 q 540 1400 510 1419 q 587 1356 569 1380 q 620 1312 605 1332 q 657 1292 635 1292 q 697 1311 678 1292 q 723 1394 716 1331 l 725 1405 l 866 1405 l 864 1386 q 790 1217 850 1285 q 643 1149 731 1149 z "},"Ū":{"ha":884,"x_min":34,"x_max":872,"o":"m 370 -13 q 110 76 186 -13 q 61 350 34 165 l 153 1010 l 367 1010 l 277 359 q 289 205 261 247 q 394 163 316 163 q 512 205 472 163 q 567 359 552 247 l 658 1010 l 872 1010 l 780 350 q 654 76 754 165 q 370 -13 554 -13 m 256 1179 l 280 1346 l 831 1346 l 807 1179 l 256 1179 z "},"Ŭ":{"ha":884,"x_min":34,"x_max":890,"o":"m 370 -13 q 110 76 186 -13 q 61 350 34 165 l 153 1010 l 367 1010 l 277 359 q 289 205 261 247 q 394 163 316 163 q 512 205 472 163 q 567 359 552 247 l 658 1010 l 872 1010 l 780 350 q 654 76 754 165 q 370 -13 554 -13 m 524 1128 q 294 1198 367 1128 q 241 1419 221 1268 l 420 1419 q 438 1297 409 1332 q 543 1263 467 1263 q 658 1297 619 1263 q 711 1419 697 1332 l 890 1419 q 774 1198 867 1268 q 524 1128 681 1128 z "},"Ů":{"ha":884,"x_min":34,"x_max":872,"o":"m 370 -13 q 110 76 186 -13 q 61 350 34 165 l 153 1010 l 367 1010 l 277 359 q 289 205 261 247 q 394 163 316 163 q 512 205 472 163 q 567 359 552 247 l 658 1010 l 872 1010 l 780 350 q 654 76 754 165 q 370 -13 554 -13 m 521 1109 q 350 1155 412 1109 q 303 1301 289 1202 l 308 1341 q 397 1488 322 1439 q 582 1537 472 1537 q 754 1488 693 1537 q 801 1341 814 1439 l 795 1301 q 706 1155 782 1202 q 521 1109 631 1109 m 537 1216 q 610 1235 583 1216 q 644 1301 636 1254 l 649 1341 q 634 1408 655 1386 q 567 1429 614 1429 q 493 1408 520 1429 q 460 1341 466 1386 l 455 1301 q 468 1235 447 1254 q 537 1216 490 1216 z "},"Ű":{"ha":884,"x_min":34,"x_max":927,"o":"m 370 -13 q 110 76 186 -13 q 61 350 34 165 l 153 1010 l 367 1010 l 277 359 q 289 205 261 247 q 394 163 316 163 q 512 205 472 163 q 567 359 552 247 l 658 1010 l 872 1010 l 780 350 q 654 76 754 165 q 370 -13 554 -13 m 609 1136 l 706 1389 l 927 1389 l 725 1136 l 609 1136 m 318 1136 l 415 1389 l 636 1389 l 434 1136 l 318 1136 z "},"Ų":{"ha":884,"x_min":34,"x_max":872,"o":"m 424 -279 q 272 -239 326 -279 q 230 -121 218 -199 q 307 11 240 -44 q 448 86 375 66 l 473 29 q 412 -23 427 3 q 394 -73 398 -49 q 410 -122 389 -106 q 479 -139 431 -139 q 533 -136 501 -139 q 597 -126 564 -133 l 578 -264 q 498 -275 538 -271 q 424 -279 458 -279 m 370 -13 q 110 76 186 -13 q 61 350 34 165 l 153 1010 l 367 1010 l 277 359 q 289 205 261 247 q 394 163 316 163 q 512 205 472 163 q 567 359 552 247 l 658 1010 l 872 1010 l 780 350 q 654 76 754 165 q 370 -13 554 -13 z "},"V":{"ha":884,"x_min":95,"x_max":932,"o":"m 509 0 l 235 0 l 95 1010 l 311 1010 l 395 173 l 725 1010 l 932 1010 l 509 0 z "},"W":{"ha":884,"x_min":78,"x_max":938,"o":"m 476 0 l 443 492 l 270 0 l 78 0 l 88 1010 l 275 1010 l 227 245 l 398 758 l 557 758 l 588 259 l 753 1010 l 938 1010 l 664 0 l 476 0 z "},"Ŵ":{"ha":884,"x_min":78,"x_max":938,"o":"m 476 0 l 443 492 l 270 0 l 78 0 l 88 1010 l 275 1010 l 227 245 l 398 758 l 557 758 l 588 259 l 753 1010 l 938 1010 l 664 0 l 476 0 m 283 1124 l 227 1222 l 484 1419 l 645 1419 l 848 1222 l 766 1125 l 542 1261 l 283 1124 z "},"Ẁ":{"ha":884,"x_min":78,"x_max":938,"o":"m 476 0 l 443 492 l 270 0 l 78 0 l 88 1010 l 275 1010 l 227 245 l 398 758 l 557 758 l 588 259 l 753 1010 l 938 1010 l 664 0 l 476 0 m 513 1136 l 275 1389 l 553 1389 l 663 1136 l 513 1136 z "},"Ẃ":{"ha":884,"x_min":78,"x_max":938,"o":"m 476 0 l 443 492 l 270 0 l 78 0 l 88 1010 l 275 1010 l 227 245 l 398 758 l 557 758 l 588 259 l 753 1010 l 938 1010 l 664 0 l 476 0 m 367 1136 l 548 1389 l 826 1389 l 518 1136 l 367 1136 z "},"Ẅ":{"ha":884,"x_min":78,"x_max":938,"o":"m 476 0 l 443 492 l 270 0 l 78 0 l 88 1010 l 275 1010 l 227 245 l 398 758 l 557 758 l 588 259 l 753 1010 l 938 1010 l 664 0 l 476 0 m 375 1131 q 297 1151 326 1131 q 277 1220 269 1170 l 278 1236 q 319 1307 285 1287 q 403 1328 354 1328 q 481 1307 453 1328 q 501 1236 509 1287 l 500 1220 q 458 1151 492 1170 q 375 1131 424 1131 m 693 1131 q 614 1151 643 1131 q 593 1220 586 1170 l 595 1236 q 636 1307 602 1287 q 721 1328 670 1328 q 799 1307 771 1328 q 818 1236 826 1287 l 817 1220 q 775 1151 809 1170 q 693 1131 741 1131 z "},"X":{"ha":884,"x_min":-42,"x_max":927,"o":"m 567 0 l 415 345 l 172 0 l -42 0 l 343 519 l 131 1010 l 355 1010 l 491 697 l 713 1010 l 927 1010 l 562 520 l 782 0 l 567 0 z "},"Y":{"ha":884,"x_min":88,"x_max":936,"o":"m 479 0 l 264 0 l 317 379 l 88 1010 l 307 1010 l 451 558 l 718 1010 l 936 1010 l 532 379 l 479 0 z "},"Ý":{"ha":884,"x_min":88,"x_max":936,"o":"m 479 0 l 264 0 l 317 379 l 88 1010 l 307 1010 l 451 558 l 718 1010 l 936 1010 l 532 379 l 479 0 m 364 1136 l 544 1389 l 822 1389 l 514 1136 l 364 1136 z "},"Ŷ":{"ha":884,"x_min":88,"x_max":936,"o":"m 479 0 l 264 0 l 317 379 l 88 1010 l 307 1010 l 451 558 l 718 1010 l 936 1010 l 532 379 l 479 0 m 283 1124 l 227 1222 l 484 1419 l 645 1419 l 848 1222 l 766 1125 l 542 1261 l 283 1124 z "},"Ÿ":{"ha":884,"x_min":88,"x_max":936,"o":"m 479 0 l 264 0 l 317 379 l 88 1010 l 307 1010 l 451 558 l 718 1010 l 936 1010 l 532 379 l 479 0 m 366 1131 q 289 1151 317 1131 q 268 1220 260 1170 l 269 1236 q 311 1307 277 1287 q 394 1328 345 1328 q 472 1307 444 1328 q 492 1236 500 1287 l 491 1220 q 449 1151 484 1170 q 366 1131 415 1131 m 684 1131 q 605 1151 634 1131 q 585 1220 577 1170 l 586 1236 q 628 1307 593 1287 q 712 1328 662 1328 q 790 1307 763 1328 q 809 1236 817 1287 l 808 1220 q 766 1151 801 1170 q 684 1131 732 1131 z "},"Ỳ":{"ha":884,"x_min":88,"x_max":936,"o":"m 479 0 l 264 0 l 317 379 l 88 1010 l 307 1010 l 451 558 l 718 1010 l 936 1010 l 532 379 l 479 0 m 509 1136 l 271 1389 l 549 1389 l 659 1136 l 509 1136 z "},"Z":{"ha":884,"x_min":4,"x_max":880,"o":"m 739 0 l 4 0 l 28 167 l 629 843 l 122 843 l 145 1010 l 880 1010 l 857 843 l 259 167 l 763 167 l 739 0 z "},"Ź":{"ha":884,"x_min":4,"x_max":880,"o":"m 739 0 l 4 0 l 28 167 l 629 843 l 122 843 l 145 1010 l 880 1010 l 857 843 l 259 167 l 763 167 l 739 0 m 402 1136 l 582 1389 l 860 1389 l 552 1136 l 402 1136 z "},"Ż":{"ha":884,"x_min":4,"x_max":880,"o":"m 739 0 l 4 0 l 28 167 l 629 843 l 122 843 l 145 1010 l 880 1010 l 857 843 l 259 167 l 763 167 l 739 0 m 525 1131 q 423 1151 461 1131 q 393 1220 385 1170 l 394 1236 q 445 1307 402 1287 q 553 1328 489 1328 q 655 1307 617 1328 q 684 1236 692 1287 l 683 1220 q 633 1151 676 1170 q 525 1131 590 1131 z "},"Ž":{"ha":884,"x_min":4,"x_max":880,"o":"m 739 0 l 4 0 l 28 167 l 629 843 l 122 843 l 145 1010 l 880 1010 l 857 843 l 259 167 l 763 167 l 739 0 m 447 1141 l 244 1338 l 326 1436 l 551 1299 l 809 1437 l 865 1338 l 609 1141 l 447 1141 z "},"Æ":{"ha":884,"x_min":-62,"x_max":933,"o":"m 434 856 l 254 400 l 414 400 l 477 856 l 434 856 m 391 246 l 192 246 l 95 0 l -62 0 l 351 1010 l 933 1010 l 912 856 l 662 856 l 629 620 l 857 620 l 836 466 l 607 466 l 563 154 l 813 154 l 792 0 l 357 0 l 391 246 z "},"Ǽ":{"ha":884,"x_min":-62,"x_max":977,"o":"m 434 856 l 254 400 l 414 400 l 477 856 l 434 856 m 391 246 l 192 246 l 95 0 l -62 0 l 351 1010 l 933 1010 l 912 856 l 662 856 l 629 620 l 857 620 l 836 466 l 607 466 l 563 154 l 813 154 l 792 0 l 357 0 l 391 246 m 519 1136 l 699 1389 l 977 1389 l 669 1136 l 519 1136 z "},"Ð":{"ha":884,"x_min":-3,"x_max":852,"o":"m 11 0 l 80 486 l -3 486 l 18 626 l 100 626 l 153 1010 l 503 1010 q 766 910 679 1010 q 830 643 852 809 l 789 362 q 652 98 766 197 q 360 0 538 0 l 11 0 m 250 167 l 366 167 q 513 217 465 167 q 577 380 562 268 l 612 625 q 593 791 628 739 q 461 843 559 843 l 345 843 l 314 626 l 460 626 l 439 486 l 294 486 l 250 167 z "},"Ø":{"ha":884,"x_min":16,"x_max":860,"o":"m 249 280 l 557 850 q 526 854 542 852 q 491 856 510 856 q 352 808 396 856 q 292 646 308 760 l 251 359 q 247 316 247 335 q 249 280 246 297 m 393 154 q 532 200 489 154 q 592 359 576 246 l 633 646 q 636 697 636 674 q 631 736 636 720 l 322 163 q 355 156 337 158 q 393 154 372 154 m 370 -13 q 305 -9 336 -13 q 247 1 274 -5 l 178 -126 l 16 -126 l 120 67 q 57 182 74 112 q 52 341 39 251 l 97 664 q 229 929 121 835 q 516 1023 336 1023 q 576 1020 548 1023 q 631 1011 605 1016 l 698 1136 l 860 1136 l 759 948 q 826 831 808 903 q 832 664 845 759 l 787 341 q 657 80 763 172 q 370 -13 551 -13 z "},"Ǿ":{"ha":884,"x_min":16,"x_max":864,"o":"m 249 280 l 557 850 q 526 854 542 852 q 491 856 510 856 q 352 808 396 856 q 292 646 308 760 l 251 359 q 247 316 247 335 q 249 280 246 297 m 393 154 q 532 200 489 154 q 592 359 576 246 l 633 646 q 636 697 636 674 q 631 736 636 720 l 322 163 q 355 156 337 158 q 393 154 372 154 m 370 -13 q 305 -9 336 -13 q 247 1 274 -5 l 178 -126 l 16 -126 l 120 67 q 57 182 74 112 q 52 341 39 251 l 97 664 q 229 929 121 835 q 516 1023 336 1023 q 576 1020 548 1023 q 631 1011 605 1016 l 698 1136 l 860 1136 l 759 948 q 826 831 808 903 q 832 664 845 759 l 787 341 q 657 80 763 172 q 370 -13 551 -13 m 405 1136 l 586 1389 l 864 1389 l 556 1136 l 405 1136 z "},"Þ":{"ha":884,"x_min":11,"x_max":842,"o":"m 11 0 l 153 1010 l 367 1010 l 346 855 l 514 855 q 763 782 683 855 q 823 571 842 710 l 804 438 q 686 235 785 306 q 417 164 586 164 l 249 164 l 226 0 l 11 0 m 273 328 l 420 328 q 542 355 503 328 q 590 444 582 383 l 609 571 q 585 661 617 634 q 471 688 553 688 l 323 688 l 273 328 z "},"Đ":{"ha":884,"x_min":-3,"x_max":852,"o":"m 11 0 l 80 486 l -3 486 l 18 626 l 100 626 l 153 1010 l 503 1010 q 766 910 679 1010 q 830 643 852 809 l 789 362 q 652 98 766 197 q 360 0 538 0 l 11 0 m 250 167 l 366 167 q 513 217 465 167 q 577 380 562 268 l 612 625 q 593 791 628 739 q 461 843 559 843 l 345 843 l 314 626 l 460 626 l 439 486 l 294 486 l 250 167 z "},"Ħ":{"ha":884,"x_min":20,"x_max":931,"o":"m 309 534 l 582 534 l 606 698 l 333 698 l 309 534 m 287 367 l 235 0 l 20 0 l 119 698 l 28 698 l 47 838 l 138 838 l 162 1010 l 376 1010 l 352 838 l 625 838 l 649 1010 l 864 1010 l 840 838 l 931 838 l 912 698 l 821 698 l 722 0 l 508 0 l 559 367 l 287 367 z "},"Ĳ":{"ha":884,"x_min":-13,"x_max":896,"o":"m 158 0 l -13 0 l 129 1010 l 299 1010 l 158 0 m 510 -13 q 328 66 384 -13 q 297 333 273 144 l 470 347 q 463 178 453 220 q 527 136 473 136 q 592 172 569 136 q 625 285 614 208 l 706 861 l 519 861 l 539 1010 l 896 1010 l 794 277 q 705 64 775 141 q 510 -13 635 -13 z "},"Ŀ":{"ha":884,"x_min":74,"x_max":965,"o":"m 74 0 l 216 1010 l 431 1010 l 313 167 l 755 167 l 731 0 l 74 0 m 798 491 q 696 511 734 491 q 665 580 658 530 l 667 596 q 718 667 674 646 q 826 688 761 688 q 927 667 890 688 q 957 596 965 646 l 956 580 q 905 511 948 530 q 798 491 862 491 z "},"Ł":{"ha":884,"x_min":29,"x_max":755,"o":"m 74 0 l 134 422 l 29 390 l 49 527 l 153 558 l 216 1010 l 431 1010 l 378 626 l 688 721 l 669 585 l 359 490 l 313 167 l 755 167 l 731 0 l 74 0 z "},"Ŋ":{"ha":884,"x_min":11,"x_max":856,"o":"m 384 -264 q 296 -255 340 -264 q 207 -232 253 -246 l 254 -85 q 321 -105 290 -97 q 380 -114 352 -114 q 473 -79 436 -114 q 521 35 510 -44 l 616 707 q 602 818 626 782 q 530 855 577 855 q 434 818 480 855 q 326 713 389 782 l 226 0 l 11 0 l 153 1010 l 367 1010 l 346 850 l 384 850 q 501 978 432 933 q 648 1023 571 1023 q 801 956 745 1023 q 838 765 856 890 l 734 15 q 610 -198 712 -131 q 384 -264 509 -264 z "},"Œ":{"ha":884,"x_min":-13,"x_max":937,"o":"m 278 0 q 57 100 128 0 q 11 366 -13 199 l 51 646 q 172 911 73 812 q 420 1010 270 1010 l 937 1010 l 915 856 l 662 856 l 629 624 l 838 624 l 817 470 l 607 470 l 563 154 l 817 154 l 795 0 l 278 0 m 319 163 l 380 163 l 476 847 l 415 847 q 288 792 328 847 q 232 629 247 736 l 198 384 q 208 220 183 277 q 319 163 232 163 z "},"Ŧ":{"ha":884,"x_min":93,"x_max":909,"o":"m 264 0 l 317 374 l 100 374 l 119 514 l 336 514 l 383 843 l 93 843 l 116 1010 l 909 1010 l 886 843 l 597 843 l 551 514 l 768 514 l 749 374 l 532 374 l 479 0 l 264 0 z "},"Α":{"ha":884,"x_min":-47,"x_max":790,"o":"m 539 413 l 492 840 l 319 413 l 539 413 m 585 0 l 557 246 l 251 246 l 152 0 l -47 0 l 385 1010 l 641 1010 l 790 0 l 585 0 z "},"Ά":{"ha":884,"x_min":-47,"x_max":790,"o":"m 539 413 l 492 840 l 319 413 l 539 413 m 585 0 l 557 246 l 251 246 l 152 0 l -47 0 l 385 1010 l 641 1010 l 790 0 l 585 0 m 34 884 l 139 1136 l 404 1136 l 172 884 l 34 884 z "},"Β":{"ha":884,"x_min":11,"x_max":835,"o":"m 11 0 l 153 1010 l 524 1010 q 763 952 691 1010 q 817 773 835 894 l 811 726 q 758 607 799 649 q 640 553 716 566 l 634 516 q 757 456 717 508 q 785 327 797 405 l 777 264 q 662 64 758 129 q 383 0 566 0 l 11 0 m 311 598 l 453 598 q 554 622 521 598 q 595 699 587 645 l 602 753 q 583 830 610 807 q 489 852 557 852 l 346 852 l 311 598 m 249 158 l 395 158 q 517 185 479 158 q 564 277 556 212 l 572 335 q 550 425 581 398 q 436 452 519 452 l 289 452 l 249 158 z "},"Γ":{"ha":884,"x_min":56,"x_max":898,"o":"m 56 0 l 197 1010 l 898 1010 l 875 843 l 389 843 l 270 0 l 56 0 z "},"Δ":{"ha":884,"x_min":-29,"x_max":795,"o":"m -29 0 l -5 167 l 370 1010 l 662 1010 l 795 167 l 771 0 l -29 0 m 591 167 l 492 864 l 191 167 l 591 167 z "},"Ε":{"ha":884,"x_min":11,"x_max":880,"o":"m 11 0 l 153 1010 l 880 1010 l 857 843 l 345 843 l 313 624 l 763 624 l 740 457 l 290 457 l 250 167 l 763 167 l 739 0 l 11 0 z "},"Έ":{"ha":884,"x_min":-152,"x_max":880,"o":"m 11 0 l 153 1010 l 880 1010 l 857 843 l 345 843 l 313 624 l 763 624 l 740 457 l 290 457 l 250 167 l 763 167 l 739 0 l 11 0 m -152 884 l -47 1136 l 218 1136 l -14 884 l -152 884 z "},"Ζ":{"ha":884,"x_min":4,"x_max":880,"o":"m 739 0 l 4 0 l 28 167 l 629 843 l 122 843 l 145 1010 l 880 1010 l 857 843 l 259 167 l 763 167 l 739 0 z "},"Η":{"ha":884,"x_min":11,"x_max":872,"o":"m 11 0 l 153 1010 l 367 1010 l 316 641 l 606 641 l 658 1010 l 872 1010 l 731 0 l 516 0 l 583 475 l 293 475 l 226 0 l 11 0 z "},"Ή":{"ha":884,"x_min":-173,"x_max":872,"o":"m 11 0 l 153 1010 l 367 1010 l 316 641 l 606 641 l 658 1010 l 872 1010 l 731 0 l 516 0 l 583 475 l 293 475 l 226 0 l 11 0 m -173 884 l -68 1136 l 197 1136 l -35 884 l -173 884 z "},"Θ":{"ha":884,"x_min":16,"x_max":867,"o":"m 370 -13 q 102 79 187 -13 q 40 341 16 170 l 86 664 q 222 930 110 837 q 516 1023 333 1023 q 783 930 699 1023 q 843 664 867 837 l 798 341 q 664 79 774 170 q 370 -13 554 -13 m 393 154 q 544 201 491 154 q 612 359 597 249 l 653 646 q 629 807 668 758 q 491 856 590 856 q 340 807 393 856 q 271 646 287 758 l 231 359 q 255 201 216 249 q 393 154 294 154 m 324 437 l 345 586 l 562 586 l 542 437 l 324 437 z "},"Ι":{"ha":884,"x_min":11,"x_max":872,"o":"m 11 0 l 35 167 l 288 167 l 383 843 l 130 843 l 153 1010 l 872 1010 l 850 843 l 597 843 l 503 167 l 755 167 l 731 0 l 11 0 z "},"Ί":{"ha":884,"x_min":-173,"x_max":872,"o":"m 11 0 l 35 167 l 288 167 l 383 843 l 130 843 l 153 1010 l 872 1010 l 850 843 l 597 843 l 503 167 l 755 167 l 731 0 l 11 0 m -173 884 l -68 1136 l 197 1136 l -35 884 l -173 884 z "},"Ϊ":{"ha":884,"x_min":11,"x_max":872,"o":"m 11 0 l 35 167 l 288 167 l 383 843 l 130 843 l 153 1010 l 872 1010 l 850 843 l 597 843 l 503 167 l 755 167 l 731 0 l 11 0 m 366 1131 q 289 1151 317 1131 q 268 1220 260 1170 l 269 1236 q 311 1307 277 1287 q 394 1328 345 1328 q 472 1307 444 1328 q 492 1236 500 1287 l 491 1220 q 449 1151 484 1170 q 366 1131 415 1131 m 684 1131 q 605 1151 634 1131 q 585 1220 577 1170 l 586 1236 q 628 1307 593 1287 q 712 1328 662 1328 q 790 1307 763 1328 q 809 1236 817 1287 l 808 1220 q 766 1151 801 1170 q 684 1131 732 1131 z "},"Κ":{"ha":884,"x_min":11,"x_max":926,"o":"m 288 441 l 226 0 l 11 0 l 153 1010 l 367 1010 l 312 607 l 360 607 l 701 1010 l 926 1010 l 515 544 l 780 0 l 557 0 l 340 441 l 288 441 z "},"Λ":{"ha":884,"x_min":-47,"x_max":790,"o":"m 585 0 l 492 840 l 152 0 l -47 0 l 385 1010 l 641 1010 l 790 0 l 585 0 z "},"Μ":{"ha":884,"x_min":-9,"x_max":893,"o":"m 340 297 l 258 693 l 181 0 l -9 0 l 133 1010 l 347 1010 l 446 501 l 684 1010 l 893 1010 l 751 0 l 563 0 l 678 688 l 487 297 l 340 297 z "},"Ν":{"ha":884,"x_min":11,"x_max":872,"o":"m 471 0 l 297 720 l 196 0 l 11 0 l 153 1010 l 396 1010 l 582 247 l 688 1010 l 872 1010 l 731 0 l 471 0 z "},"Ξ":{"ha":884,"x_min":4,"x_max":880,"o":"m 122 843 l 145 1010 l 880 1010 l 857 843 l 122 843 m 100 457 l 122 624 l 794 624 l 771 457 l 100 457 m 4 0 l 28 167 l 763 167 l 739 0 l 4 0 z "},"Ο":{"ha":884,"x_min":27,"x_max":857,"o":"m 370 -13 q 108 75 189 -13 q 49 323 27 163 l 100 682 q 229 933 122 843 q 516 1023 336 1023 q 777 933 697 1023 q 835 682 857 843 l 784 323 q 656 75 761 163 q 370 -13 551 -13 m 393 154 q 516 196 475 154 q 572 341 558 239 l 617 664 q 602 811 631 766 q 491 856 573 856 q 367 811 409 856 q 312 664 326 766 l 266 341 q 282 196 253 239 q 393 154 311 154 z "},"Ό":{"ha":884,"x_min":-34,"x_max":860,"o":"m 372 -13 q 110 75 192 -13 q 52 323 29 163 l 102 682 q 232 933 125 843 q 519 1023 338 1023 q 780 933 699 1023 q 837 682 860 843 l 787 323 q 658 75 764 163 q 372 -13 553 -13 m 395 154 q 519 196 477 154 q 574 341 561 239 l 620 664 q 605 811 634 766 q 494 856 576 856 q 370 811 412 856 q 314 664 328 766 l 269 341 q 284 196 255 239 q 395 154 313 154 m -34 884 l 71 1136 l 336 1136 l 104 884 l -34 884 z "},"Π":{"ha":884,"x_min":11,"x_max":872,"o":"m 11 0 l 153 1010 l 872 1010 l 731 0 l 516 0 l 635 843 l 345 843 l 226 0 l 11 0 z "},"Ρ":{"ha":884,"x_min":11,"x_max":865,"o":"m 11 0 l 153 1010 l 535 1010 q 783 941 701 1010 q 845 727 865 872 l 826 592 q 706 386 806 452 q 439 319 606 319 l 271 319 l 226 0 l 11 0 m 294 484 l 451 484 q 564 510 525 484 q 614 609 604 537 l 629 715 q 607 816 639 789 q 501 843 576 843 l 345 843 l 294 484 z "},"Σ":{"ha":884,"x_min":18,"x_max":854,"o":"m 712 0 l 18 0 l 42 167 l 487 518 l 136 843 l 159 1010 l 854 1010 l 831 843 l 365 843 l 644 592 l 625 458 l 255 167 l 736 167 l 712 0 z "},"Τ":{"ha":884,"x_min":93,"x_max":909,"o":"m 264 0 l 383 843 l 93 843 l 116 1010 l 909 1010 l 886 843 l 597 843 l 479 0 l 264 0 z "},"Υ":{"ha":884,"x_min":88,"x_max":936,"o":"m 479 0 l 264 0 l 317 379 l 88 1010 l 307 1010 l 451 558 l 718 1010 l 936 1010 l 532 379 l 479 0 z "},"Ύ":{"ha":884,"x_min":-184,"x_max":936,"o":"m 479 0 l 264 0 l 317 379 l 88 1010 l 307 1010 l 451 558 l 718 1010 l 936 1010 l 532 379 l 479 0 m -184 884 l -80 1136 l 186 1136 l -47 884 l -184 884 z "},"Ϋ":{"ha":884,"x_min":88,"x_max":936,"o":"m 479 0 l 264 0 l 317 379 l 88 1010 l 307 1010 l 451 558 l 718 1010 l 936 1010 l 532 379 l 479 0 m 366 1131 q 289 1151 317 1131 q 268 1220 260 1170 l 269 1236 q 311 1307 277 1287 q 394 1328 345 1328 q 472 1307 444 1328 q 492 1236 500 1287 l 491 1220 q 449 1151 484 1170 q 366 1131 415 1131 m 684 1131 q 605 1151 634 1131 q 585 1220 577 1170 l 586 1236 q 628 1307 593 1287 q 712 1328 662 1328 q 790 1307 763 1328 q 809 1236 817 1287 l 808 1220 q 766 1151 801 1170 q 684 1131 732 1131 z "},"Φ":{"ha":884,"x_min":23,"x_max":862,"o":"m 495 114 l 476 114 l 458 -13 l 280 -13 l 298 114 l 280 114 q 82 203 141 114 q 44 451 23 293 l 59 554 q 167 806 82 715 q 391 896 253 896 l 408 896 l 426 1023 l 604 1023 l 586 896 l 605 896 q 803 806 744 896 q 840 554 862 715 l 824 451 q 718 203 803 293 q 495 114 634 114 m 591 739 l 557 739 l 491 271 l 525 271 q 603 317 576 271 q 643 451 630 362 l 658 554 q 656 691 670 643 q 591 739 641 739 m 298 271 l 326 271 l 391 739 l 364 739 q 280 691 308 739 q 240 554 253 643 l 225 451 q 227 317 212 362 q 298 271 242 271 z "},"Χ":{"ha":884,"x_min":-42,"x_max":927,"o":"m 567 0 l 415 345 l 172 0 l -42 0 l 343 519 l 131 1010 l 355 1010 l 491 697 l 713 1010 l 927 1010 l 562 520 l 782 0 l 567 0 z "},"Ψ":{"ha":884,"x_min":54,"x_max":890,"o":"m 461 0 l 282 0 l 314 237 q 115 345 176 258 q 74 577 54 433 l 135 1010 l 314 1010 l 255 586 q 263 458 244 503 q 338 404 282 413 l 423 1010 l 602 1010 l 518 404 q 609 458 577 413 q 653 586 641 503 l 712 1010 l 890 1010 l 830 577 q 725 345 809 433 q 494 237 640 258 l 461 0 z "},"Ω":{"ha":884,"x_min":-9,"x_max":869,"o":"m 326 0 l -9 0 l 11 140 l 158 140 l 173 254 q 78 357 105 288 q 64 519 52 427 l 85 664 q 220 931 109 840 q 515 1023 331 1023 q 785 931 701 1023 q 845 664 869 840 l 824 519 q 765 357 812 427 q 640 254 718 288 l 625 140 l 771 140 l 751 0 l 417 0 l 457 290 q 559 366 523 307 q 610 519 596 424 l 631 673 q 610 814 645 773 q 491 856 574 856 q 361 814 408 856 q 301 673 314 773 l 279 519 q 285 366 265 424 q 366 290 306 307 l 326 0 z "},"Ώ":{"ha":884,"x_min":-80,"x_max":869,"o":"m 326 0 l -9 0 l 11 140 l 158 140 l 173 254 q 78 357 105 288 q 64 519 52 427 l 85 664 q 220 931 109 840 q 515 1023 331 1023 q 785 931 701 1023 q 845 664 869 840 l 824 519 q 765 357 812 427 q 640 254 718 288 l 625 140 l 771 140 l 751 0 l 417 0 l 457 290 q 559 366 523 307 q 610 519 596 424 l 631 673 q 610 814 645 773 q 491 856 574 856 q 361 814 408 856 q 301 673 314 773 l 279 519 q 285 366 265 424 q 366 290 306 307 l 326 0 m -80 884 l 25 1136 l 290 1136 l 58 884 l -80 884 z "},"Ω":{"ha":884,"x_min":-9,"x_max":869,"o":"m 326 0 l -9 0 l 11 140 l 158 140 l 173 254 q 78 357 105 288 q 64 519 52 427 l 85 664 q 220 931 109 840 q 515 1023 331 1023 q 785 931 701 1023 q 845 664 869 840 l 824 519 q 765 357 812 427 q 640 254 718 288 l 625 140 l 771 140 l 751 0 l 417 0 l 457 290 q 559 366 523 307 q 610 519 596 424 l 631 673 q 610 814 645 773 q 491 856 574 856 q 361 814 408 856 q 301 673 314 773 l 279 519 q 285 366 265 424 q 366 290 306 307 l 326 0 z "},"Ђ":{"ha":884,"x_min":68,"x_max":827,"o":"m 104 0 l 222 843 l 68 843 l 91 1010 l 687 1010 l 664 843 l 437 843 l 410 657 l 521 657 q 754 585 682 657 q 806 364 827 514 l 795 290 q 682 71 775 143 q 429 0 590 0 l 452 164 q 545 193 509 164 q 591 293 581 221 l 600 361 q 583 463 610 434 q 499 492 556 492 l 388 492 l 318 0 l 104 0 z "},"Є":{"ha":884,"x_min":25,"x_max":875,"o":"m 812 342 q 675 72 777 157 q 383 -13 573 -13 q 110 72 194 -13 q 49 323 25 157 l 100 682 q 232 937 124 851 q 529 1023 340 1023 q 796 940 717 1023 q 857 663 875 857 l 640 650 q 621 812 648 768 q 504 856 593 856 q 371 813 414 856 q 312 663 327 769 l 306 624 l 524 624 l 501 457 l 283 457 l 266 341 q 284 196 253 239 q 405 154 316 154 q 535 196 496 154 q 598 355 573 237 l 812 342 z "},"Ѕ":{"ha":884,"x_min":1,"x_max":833,"o":"m 367 -11 q 158 21 247 -11 q 1 111 68 53 l 91 269 q 223 186 152 216 q 394 155 295 155 q 519 188 473 155 q 572 275 564 221 q 540 365 581 338 q 389 420 500 391 q 158 529 218 463 q 116 720 98 595 q 237 936 135 852 q 508 1020 338 1020 q 692 987 604 1020 q 833 903 780 953 l 755 751 q 628 826 693 799 q 486 852 562 852 q 380 825 419 852 q 333 744 341 798 q 362 660 326 691 q 523 598 399 630 q 748 491 689 558 q 789 293 807 423 q 652 68 768 146 q 367 -11 537 -11 z "},"І":{"ha":884,"x_min":11,"x_max":872,"o":"m 11 0 l 35 167 l 288 167 l 383 843 l 130 843 l 153 1010 l 872 1010 l 850 843 l 597 843 l 503 167 l 755 167 l 731 0 l 11 0 z "},"Ї":{"ha":884,"x_min":11,"x_max":872,"o":"m 11 0 l 35 167 l 288 167 l 383 843 l 130 843 l 153 1010 l 872 1010 l 850 843 l 597 843 l 503 167 l 755 167 l 731 0 l 11 0 m 366 1131 q 289 1151 317 1131 q 268 1220 260 1170 l 269 1236 q 311 1307 277 1287 q 394 1328 345 1328 q 472 1307 444 1328 q 492 1236 500 1287 l 491 1220 q 449 1151 484 1170 q 366 1131 415 1131 m 684 1131 q 605 1151 634 1131 q 585 1220 577 1170 l 586 1236 q 628 1307 593 1287 q 712 1328 662 1328 q 790 1307 763 1328 q 809 1236 817 1287 l 808 1220 q 766 1151 801 1170 q 684 1131 732 1131 z "},"Ј":{"ha":884,"x_min":10,"x_max":855,"o":"m 352 -13 q 87 74 164 -13 q 28 351 10 160 l 245 365 q 263 196 235 237 q 374 154 290 154 q 491 194 449 154 q 547 337 532 235 l 617 843 l 338 843 l 361 1010 l 855 1010 l 760 328 q 637 77 737 167 q 352 -13 537 -13 z "},"Љ":{"ha":884,"x_min":-91,"x_max":837,"o":"m 207 181 q 138 40 193 86 q -4 -6 82 -6 q -47 -4 -25 -8 q -91 5 -69 0 l -44 164 q -25 160 -35 162 q -6 159 -15 158 q 27 173 11 158 q 49 235 42 188 l 169 1010 l 607 1010 l 563 691 l 631 691 q 788 629 739 691 q 821 453 837 567 l 793 249 q 708 65 775 130 q 534 0 640 0 l 299 0 l 420 861 l 312 861 l 207 181 m 487 149 l 527 149 q 594 176 568 149 q 629 268 620 203 l 652 429 q 642 518 660 491 q 582 544 624 544 l 543 544 l 487 149 z "},"Њ":{"ha":884,"x_min":-14,"x_max":838,"o":"m 487 149 l 530 149 q 595 176 571 149 q 629 268 619 202 l 652 429 q 643 518 660 492 q 586 544 626 544 l 543 544 l 487 149 m 220 475 l 153 0 l -14 0 l 128 1010 l 294 1010 l 242 641 l 389 641 l 441 1010 l 607 1010 l 563 691 l 635 691 q 791 631 744 691 q 821 453 838 571 l 793 249 q 711 63 775 126 q 538 0 646 0 l 299 0 l 366 475 l 220 475 z "},"Ћ":{"ha":884,"x_min":64,"x_max":823,"o":"m 314 0 l 100 0 l 218 843 l 64 843 l 87 1010 l 692 1010 l 669 843 l 433 843 l 403 628 l 518 628 q 753 557 683 628 q 803 343 823 487 l 755 0 l 540 0 l 588 341 q 575 434 597 405 q 495 463 553 463 l 380 463 l 314 0 z "},"Џ":{"ha":884,"x_min":11,"x_max":872,"o":"m 237 -189 l 264 0 l 11 0 l 153 1010 l 367 1010 l 250 167 l 540 167 l 658 1010 l 872 1010 l 731 0 l 479 0 l 452 -189 l 237 -189 z "},"А":{"ha":884,"x_min":-47,"x_max":790,"o":"m 539 413 l 492 840 l 319 413 l 539 413 m 585 0 l 557 246 l 251 246 l 152 0 l -47 0 l 385 1010 l 641 1010 l 790 0 l 585 0 z "},"Б":{"ha":884,"x_min":11,"x_max":828,"o":"m 11 0 l 153 1010 l 828 1010 l 806 843 l 345 843 l 314 625 l 503 625 q 741 555 664 625 q 798 355 817 485 l 789 287 q 673 74 769 148 q 415 0 577 0 l 11 0 m 250 167 l 413 167 q 530 199 492 167 q 576 295 567 231 l 581 336 q 561 430 590 399 q 453 461 533 461 l 290 461 l 250 167 z "},"В":{"ha":884,"x_min":11,"x_max":835,"o":"m 11 0 l 153 1010 l 524 1010 q 763 952 691 1010 q 817 773 835 894 l 811 726 q 758 607 799 649 q 640 553 716 566 l 634 516 q 757 456 717 508 q 785 327 797 405 l 777 264 q 662 64 758 129 q 383 0 566 0 l 11 0 m 311 598 l 453 598 q 554 622 521 598 q 595 699 587 645 l 602 753 q 583 830 610 807 q 489 852 557 852 l 346 852 l 311 598 m 249 158 l 395 158 q 517 185 479 158 q 564 277 556 212 l 572 335 q 550 425 581 398 q 436 452 519 452 l 289 452 l 249 158 z "},"Г":{"ha":884,"x_min":56,"x_max":898,"o":"m 56 0 l 197 1010 l 898 1010 l 875 843 l 389 843 l 270 0 l 56 0 z "},"Ѓ":{"ha":884,"x_min":56,"x_max":898,"o":"m 56 0 l 197 1010 l 898 1010 l 875 843 l 389 843 l 270 0 l 56 0 m 412 1136 l 592 1389 l 870 1389 l 562 1136 l 412 1136 z "},"Д":{"ha":884,"x_min":-93,"x_max":821,"o":"m 255 193 l 251 167 l 506 167 l 601 843 l 404 843 l 336 384 q 306 268 324 317 q 255 193 288 220 m 130 0 l 104 -189 l -93 -189 l -43 167 l 51 167 q 105 240 83 189 q 141 389 126 290 l 235 1010 l 821 1010 l 703 167 l 812 167 l 761 -189 l 564 -189 l 591 0 l 130 0 z "},"Е":{"ha":884,"x_min":11,"x_max":880,"o":"m 11 0 l 153 1010 l 880 1010 l 857 843 l 345 843 l 313 624 l 763 624 l 740 457 l 290 457 l 250 167 l 763 167 l 739 0 l 11 0 z "},"Ѐ":{"ha":884,"x_min":11,"x_max":880,"o":"m 11 0 l 153 1010 l 880 1010 l 857 843 l 345 843 l 313 624 l 763 624 l 740 457 l 290 457 l 250 167 l 763 167 l 739 0 l 11 0 m 503 1136 l 265 1389 l 543 1389 l 653 1136 l 503 1136 z "},"Ё":{"ha":884,"x_min":11,"x_max":880,"o":"m 11 0 l 153 1010 l 880 1010 l 857 843 l 345 843 l 313 624 l 763 624 l 740 457 l 290 457 l 250 167 l 763 167 l 739 0 l 11 0 m 386 1131 q 309 1151 337 1131 q 288 1220 280 1170 l 289 1236 q 331 1307 297 1287 q 414 1328 365 1328 q 492 1307 465 1328 q 513 1236 520 1287 l 511 1220 q 470 1151 504 1170 q 386 1131 436 1131 m 705 1131 q 626 1151 654 1131 q 605 1220 597 1170 l 606 1236 q 648 1307 614 1287 q 732 1328 682 1328 q 810 1307 783 1328 q 830 1236 837 1287 l 828 1220 q 787 1151 821 1170 q 705 1131 753 1131 z "},"Ж":{"ha":884,"x_min":-53,"x_max":939,"o":"m 302 451 l 119 0 l -53 0 l 189 564 l 86 1010 l 259 1010 l 328 596 l 376 596 l 434 1010 l 592 1010 l 534 596 l 582 596 l 766 1010 l 939 1010 l 717 558 l 797 0 l 624 0 l 568 451 l 514 451 l 451 0 l 293 0 l 356 451 l 302 451 z "},"З":{"ha":884,"x_min":19,"x_max":841,"o":"m 369 -13 q 100 61 181 -13 q 32 288 19 134 l 247 301 q 278 182 245 213 q 390 152 312 152 q 515 182 475 152 q 563 280 554 212 l 568 314 q 545 417 578 386 q 434 448 513 448 l 299 448 l 322 612 l 457 612 q 557 634 524 612 q 598 710 591 655 l 604 750 q 585 834 612 809 q 489 859 557 859 q 389 831 426 859 q 335 734 352 803 l 121 746 q 245 955 150 888 q 503 1023 340 1023 q 763 963 684 1023 q 822 769 841 904 l 817 741 q 749 612 807 662 q 602 553 692 562 l 596 516 q 745 449 697 508 q 780 301 793 390 l 778 275 q 662 58 756 129 q 369 -13 567 -13 z "},"И":{"ha":884,"x_min":11,"x_max":872,"o":"m 543 0 l 644 718 l 271 0 l 11 0 l 153 1010 l 342 1010 l 236 250 l 629 1010 l 872 1010 l 731 0 l 543 0 z "},"Ѝ":{"ha":884,"x_min":11,"x_max":872,"o":"m 543 0 l 644 718 l 271 0 l 11 0 l 153 1010 l 342 1010 l 236 250 l 629 1010 l 872 1010 l 731 0 l 543 0 m 487 1136 l 250 1389 l 528 1389 l 638 1136 l 487 1136 z "},"Й":{"ha":884,"x_min":11,"x_max":879,"o":"m 543 0 l 644 718 l 271 0 l 11 0 l 153 1010 l 342 1010 l 236 250 l 629 1010 l 872 1010 l 731 0 l 543 0 m 528 1128 q 317 1190 402 1128 q 255 1407 232 1253 l 446 1419 q 454 1299 433 1336 q 547 1263 475 1263 q 651 1299 619 1263 q 693 1419 683 1336 l 879 1407 q 756 1190 859 1253 q 528 1128 654 1128 z "},"К":{"ha":884,"x_min":11,"x_max":926,"o":"m 288 441 l 226 0 l 11 0 l 153 1010 l 367 1010 l 312 607 l 360 607 l 701 1010 l 926 1010 l 515 544 l 780 0 l 557 0 l 340 441 l 288 441 z "},"Ќ":{"ha":884,"x_min":11,"x_max":926,"o":"m 288 441 l 226 0 l 11 0 l 153 1010 l 367 1010 l 312 607 l 360 607 l 701 1010 l 926 1010 l 515 544 l 780 0 l 557 0 l 340 441 l 288 441 m 451 1136 l 631 1389 l 909 1389 l 601 1136 l 451 1136 z "},"Л":{"ha":884,"x_min":-71,"x_max":872,"o":"m 516 0 l 635 843 l 433 843 l 354 298 q 254 62 331 140 q 52 -16 177 -16 q -9 -11 21 -16 q -71 4 -40 -5 l -23 172 q 10 163 -5 167 q 40 159 25 159 q 105 193 80 159 q 145 314 131 227 l 246 1010 l 872 1010 l 731 0 l 516 0 z "},"М":{"ha":884,"x_min":-9,"x_max":893,"o":"m 340 297 l 258 693 l 181 0 l -9 0 l 133 1010 l 347 1010 l 446 501 l 684 1010 l 893 1010 l 751 0 l 563 0 l 678 688 l 487 297 l 340 297 z "},"Н":{"ha":884,"x_min":11,"x_max":872,"o":"m 11 0 l 153 1010 l 367 1010 l 316 641 l 606 641 l 658 1010 l 872 1010 l 731 0 l 516 0 l 583 475 l 293 475 l 226 0 l 11 0 z "},"О":{"ha":884,"x_min":27,"x_max":857,"o":"m 370 -13 q 108 75 189 -13 q 49 323 27 163 l 100 682 q 229 933 122 843 q 516 1023 336 1023 q 777 933 697 1023 q 835 682 857 843 l 784 323 q 656 75 761 163 q 370 -13 551 -13 m 393 154 q 516 196 475 154 q 572 341 558 239 l 617 664 q 602 811 631 766 q 491 856 573 856 q 367 811 409 856 q 312 664 326 766 l 266 341 q 282 196 253 239 q 393 154 311 154 z "},"П":{"ha":884,"x_min":11,"x_max":872,"o":"m 11 0 l 153 1010 l 872 1010 l 731 0 l 516 0 l 635 843 l 345 843 l 226 0 l 11 0 z "},"Р":{"ha":884,"x_min":11,"x_max":865,"o":"m 11 0 l 153 1010 l 535 1010 q 783 941 701 1010 q 845 727 865 872 l 826 592 q 706 386 806 452 q 439 319 606 319 l 271 319 l 226 0 l 11 0 m 294 484 l 451 484 q 564 510 525 484 q 614 609 604 537 l 629 715 q 607 816 639 789 q 501 843 576 843 l 345 843 l 294 484 z "},"С":{"ha":884,"x_min":25,"x_max":875,"o":"m 383 -13 q 109 71 192 -13 q 49 323 25 155 l 100 682 q 231 937 124 852 q 529 1023 338 1023 q 798 938 721 1023 q 857 663 875 854 l 640 650 q 621 814 649 773 q 504 856 593 856 q 370 812 414 856 q 312 663 326 768 l 266 341 q 284 197 253 240 q 405 154 316 154 q 533 194 494 154 q 598 355 573 235 l 812 342 q 676 71 777 154 q 383 -13 576 -13 z "},"Т":{"ha":884,"x_min":93,"x_max":909,"o":"m 264 0 l 383 843 l 93 843 l 116 1010 l 909 1010 l 886 843 l 597 843 l 479 0 l 264 0 z "},"У":{"ha":884,"x_min":-4,"x_max":915,"o":"m 157 -6 q 77 -2 117 -6 q -4 11 37 3 l 42 178 q 114 165 81 169 q 174 162 146 162 q 271 186 232 162 q 343 275 311 211 l 354 297 l 271 297 l 109 1010 l 319 1010 l 436 465 l 706 1010 l 915 1010 l 518 230 q 365 50 453 106 q 157 -6 277 -6 z "},"Ў":{"ha":884,"x_min":-4,"x_max":915,"o":"m 157 -6 q 77 -2 117 -6 q -4 11 37 3 l 42 178 q 114 165 81 169 q 174 162 146 162 q 271 186 232 162 q 343 275 311 211 l 354 297 l 271 297 l 109 1010 l 319 1010 l 436 465 l 706 1010 l 915 1010 l 518 230 q 365 50 453 106 q 157 -6 277 -6 m 524 1128 q 313 1190 398 1128 q 251 1407 229 1253 l 442 1419 q 450 1299 429 1336 q 543 1263 471 1263 q 647 1299 615 1263 q 689 1419 679 1336 l 875 1407 q 753 1190 855 1253 q 524 1128 650 1128 z "},"Ф":{"ha":884,"x_min":23,"x_max":862,"o":"m 495 114 l 476 114 l 458 -13 l 280 -13 l 298 114 l 280 114 q 82 203 141 114 q 44 451 23 293 l 59 554 q 167 806 82 715 q 391 896 253 896 l 408 896 l 426 1023 l 604 1023 l 586 896 l 605 896 q 803 806 744 896 q 840 554 862 715 l 824 451 q 718 203 803 293 q 495 114 634 114 m 591 739 l 557 739 l 491 271 l 525 271 q 603 317 576 271 q 643 451 630 362 l 658 554 q 656 691 670 643 q 591 739 641 739 m 298 271 l 326 271 l 391 739 l 364 739 q 280 691 308 739 q 240 554 253 643 l 225 451 q 227 317 212 362 q 298 271 242 271 z "},"Х":{"ha":884,"x_min":-42,"x_max":927,"o":"m 567 0 l 415 345 l 172 0 l -42 0 l 343 519 l 131 1010 l 355 1010 l 491 697 l 713 1010 l 927 1010 l 562 520 l 782 0 l 567 0 z "},"Ц":{"ha":884,"x_min":11,"x_max":827,"o":"m 553 -189 l 580 0 l 11 0 l 153 1010 l 367 1010 l 250 167 l 495 167 l 612 1010 l 827 1010 l 710 167 l 818 167 l 768 -189 l 553 -189 z "},"Ч":{"ha":884,"x_min":74,"x_max":869,"o":"m 869 1010 l 727 0 l 513 0 l 558 327 l 413 327 q 150 402 226 327 q 97 638 74 476 l 149 1010 l 364 1010 l 312 640 q 331 527 302 563 q 437 491 361 491 l 582 491 l 654 1010 l 869 1010 z "},"Ш":{"ha":884,"x_min":-15,"x_max":899,"o":"m -15 0 l 126 1010 l 306 1010 l 186 157 l 306 157 l 426 1010 l 598 1010 l 479 157 l 600 157 l 720 1010 l 899 1010 l 758 0 l -15 0 z "},"Щ":{"ha":884,"x_min":-15,"x_max":899,"o":"m 779 -234 l 593 -234 l 626 0 l -15 0 l 126 1010 l 306 1010 l 186 157 l 306 157 l 426 1010 l 598 1010 l 479 157 l 600 157 l 720 1010 l 899 1010 l 779 157 l 833 157 l 779 -234 z "},"Ъ":{"ha":884,"x_min":52,"x_max":837,"o":"m 444 0 l 120 0 l 239 843 l 52 843 l 74 1010 l 472 1010 l 428 691 l 542 691 q 768 625 699 691 q 819 427 837 559 l 798 275 q 690 68 778 136 q 444 0 602 0 m 355 167 l 444 167 q 547 196 514 167 q 591 294 581 226 l 606 403 q 590 498 615 470 q 495 527 564 527 l 405 527 l 355 167 z "},"Ы":{"ha":884,"x_min":-8,"x_max":891,"o":"m -8 0 l 134 1010 l 313 1010 l 269 691 l 311 691 q 503 628 446 691 q 540 436 559 564 l 518 266 q 424 66 499 131 q 213 0 348 0 l -8 0 m 571 0 l 712 1010 l 891 1010 l 750 0 l 571 0 m 193 157 l 232 157 q 309 186 280 157 q 347 285 337 215 l 365 412 q 354 508 374 480 q 287 537 335 537 l 247 537 l 193 157 z "},"Ь":{"ha":884,"x_min":11,"x_max":847,"o":"m 11 0 l 153 1010 l 367 1010 l 323 691 l 518 691 q 769 624 691 691 q 830 427 847 558 l 808 275 q 691 69 788 139 q 420 0 593 0 l 11 0 m 250 167 l 415 167 q 542 196 499 167 q 596 294 586 225 l 611 403 q 585 499 620 471 q 466 527 549 527 l 301 527 l 250 167 z "},"Э":{"ha":884,"x_min":16,"x_max":866,"o":"m 365 -13 q 97 71 177 -13 q 34 342 16 155 l 250 355 q 270 196 242 237 q 388 154 298 154 q 528 201 489 154 q 580 341 567 249 l 596 457 l 362 457 l 385 624 l 619 624 l 625 663 q 608 811 639 766 q 486 856 577 856 q 357 812 396 856 q 292 650 317 768 l 80 663 q 218 937 115 852 q 509 1023 321 1023 q 783 937 699 1023 q 842 682 866 852 l 792 323 q 661 71 768 155 q 365 -13 554 -13 z "},"Ю":{"ha":884,"x_min":-15,"x_max":879,"o":"m 508 -13 q 334 64 385 -13 q 302 277 283 141 l 327 458 l 227 458 l 163 0 l -15 0 l 126 1010 l 304 1010 l 250 622 l 350 622 l 365 729 q 458 944 384 865 q 654 1023 532 1023 q 829 944 779 1023 q 860 729 879 865 l 797 277 q 705 64 778 141 q 508 -13 633 -13 m 530 153 q 590 183 572 153 q 617 277 609 213 l 681 729 q 680 825 689 793 q 629 857 670 857 q 569 825 588 857 q 542 729 551 793 l 479 277 q 480 183 470 213 q 530 153 490 153 z "},"Я":{"ha":884,"x_min":-28,"x_max":872,"o":"m 427 530 l 591 530 l 635 843 l 471 843 q 354 817 390 843 q 309 723 318 790 l 299 654 q 318 558 289 586 q 427 530 346 530 m 568 365 l 457 365 l 202 0 l -28 0 l 245 384 q 116 475 154 409 q 92 648 77 542 l 105 735 q 215 941 124 871 q 466 1010 306 1010 l 872 1010 l 731 0 l 516 0 l 568 365 z "},"Ґ":{"ha":884,"x_min":56,"x_max":926,"o":"m 56 0 l 197 1010 l 683 1010 l 711 1199 l 926 1199 l 875 843 l 389 843 l 270 0 l 56 0 z "},"a":{"ha":884,"x_min":5,"x_max":806,"o":"m 303 126 q 394 141 350 126 q 479 183 438 155 l 496 306 l 322 306 q 253 287 279 306 q 218 212 226 268 q 232 148 212 170 q 303 126 251 126 m 232 -13 q 66 44 126 -13 q 20 207 5 101 q 116 367 35 312 q 314 423 196 423 l 513 423 l 525 515 q 505 594 534 571 q 414 617 476 617 q 316 595 350 617 q 256 505 282 572 l 85 537 q 210 717 129 664 q 442 770 292 770 q 675 709 600 770 q 732 521 750 648 l 691 229 q 713 161 683 174 q 806 157 742 148 l 784 4 q 622 8 683 -18 q 552 117 561 33 l 518 117 q 395 26 471 64 q 232 -13 319 -13 z "},"à":{"ha":884,"x_min":5,"x_max":806,"o":"m 303 126 q 394 141 350 126 q 479 183 438 155 l 496 306 l 322 306 q 253 287 279 306 q 218 212 226 268 q 232 148 212 170 q 303 126 251 126 m 232 -13 q 66 44 126 -13 q 20 207 5 101 q 116 367 35 312 q 314 423 196 423 l 513 423 l 525 515 q 505 594 534 571 q 414 617 476 617 q 316 595 350 617 q 256 505 282 572 l 85 537 q 210 717 129 664 q 442 770 292 770 q 675 709 600 770 q 732 521 750 648 l 691 229 q 713 161 683 174 q 806 157 742 148 l 784 4 q 622 8 683 -18 q 552 117 561 33 l 518 117 q 395 26 471 64 q 232 -13 319 -13 m 462 884 l 225 1136 l 503 1136 l 612 884 l 462 884 z "},"á":{"ha":884,"x_min":5,"x_max":806,"o":"m 303 126 q 394 141 350 126 q 479 183 438 155 l 496 306 l 322 306 q 253 287 279 306 q 218 212 226 268 q 232 148 212 170 q 303 126 251 126 m 232 -13 q 66 44 126 -13 q 20 207 5 101 q 116 367 35 312 q 314 423 196 423 l 513 423 l 525 515 q 505 594 534 571 q 414 617 476 617 q 316 595 350 617 q 256 505 282 572 l 85 537 q 210 717 129 664 q 442 770 292 770 q 675 709 600 770 q 732 521 750 648 l 691 229 q 713 161 683 174 q 806 157 742 148 l 784 4 q 622 8 683 -18 q 552 117 561 33 l 518 117 q 395 26 471 64 q 232 -13 319 -13 m 317 884 l 497 1136 l 775 1136 l 467 884 l 317 884 z "},"â":{"ha":884,"x_min":5,"x_max":806,"o":"m 303 126 q 394 141 350 126 q 479 183 438 155 l 496 306 l 322 306 q 253 287 279 306 q 218 212 226 268 q 232 148 212 170 q 303 126 251 126 m 232 -13 q 66 44 126 -13 q 20 207 5 101 q 116 367 35 312 q 314 423 196 423 l 513 423 l 525 515 q 505 594 534 571 q 414 617 476 617 q 316 595 350 617 q 256 505 282 572 l 85 537 q 210 717 129 664 q 442 770 292 770 q 675 709 600 770 q 732 521 750 648 l 691 229 q 713 161 683 174 q 806 157 742 148 l 784 4 q 622 8 683 -18 q 552 117 561 33 l 518 117 q 395 26 471 64 q 232 -13 319 -13 m 240 871 l 184 970 l 441 1167 l 602 1167 l 806 970 l 723 872 l 499 1009 l 240 871 z "},"ã":{"ha":884,"x_min":5,"x_max":819,"o":"m 303 126 q 394 141 350 126 q 479 183 438 155 l 496 306 l 322 306 q 253 287 279 306 q 218 212 226 268 q 232 148 212 170 q 303 126 251 126 m 232 -13 q 66 44 126 -13 q 20 207 5 101 q 116 367 35 312 q 314 423 196 423 l 513 423 l 525 515 q 505 594 534 571 q 414 617 476 617 q 316 595 350 617 q 256 505 282 572 l 85 537 q 210 717 129 664 q 442 770 292 770 q 675 709 600 770 q 732 521 750 648 l 691 229 q 713 161 683 174 q 806 157 742 148 l 784 4 q 622 8 683 -18 q 552 117 561 33 l 518 117 q 395 26 471 64 q 232 -13 319 -13 m 596 896 q 511 917 540 896 q 463 960 481 937 q 431 1003 446 984 q 391 1023 415 1023 q 350 1003 370 1023 q 324 922 331 984 l 322 909 l 181 909 l 183 928 q 258 1098 198 1030 q 405 1167 317 1167 q 493 1147 463 1167 q 540 1104 523 1128 q 573 1059 558 1080 q 610 1039 588 1039 q 650 1059 631 1039 q 677 1141 669 1078 l 678 1153 l 819 1153 l 817 1134 q 744 965 803 1033 q 596 896 684 896 z "},"ä":{"ha":884,"x_min":5,"x_max":806,"o":"m 303 126 q 394 141 350 126 q 479 183 438 155 l 496 306 l 322 306 q 253 287 279 306 q 218 212 226 268 q 232 148 212 170 q 303 126 251 126 m 232 -13 q 66 44 126 -13 q 20 207 5 101 q 116 367 35 312 q 314 423 196 423 l 513 423 l 525 515 q 505 594 534 571 q 414 617 476 617 q 316 595 350 617 q 256 505 282 572 l 85 537 q 210 717 129 664 q 442 770 292 770 q 675 709 600 770 q 732 521 750 648 l 691 229 q 713 161 683 174 q 806 157 742 148 l 784 4 q 622 8 683 -18 q 552 117 561 33 l 518 117 q 395 26 471 64 q 232 -13 319 -13 m 319 879 q 242 898 270 879 q 221 967 213 918 l 222 984 q 264 1055 230 1034 q 347 1076 298 1076 q 426 1055 398 1076 q 446 984 453 1034 l 444 967 q 403 898 437 918 q 319 879 369 879 m 638 879 q 559 898 587 879 q 538 967 530 918 l 539 984 q 581 1055 547 1034 q 665 1076 615 1076 q 743 1055 716 1076 q 763 984 770 1034 l 761 967 q 720 898 754 918 q 638 879 686 879 z "},"å":{"ha":884,"x_min":5,"x_max":806,"o":"m 303 126 q 394 141 350 126 q 479 183 438 155 l 496 306 l 322 306 q 253 287 279 306 q 218 212 226 268 q 232 148 212 170 q 303 126 251 126 m 232 -13 q 66 44 126 -13 q 20 207 5 101 q 116 367 35 312 q 314 423 196 423 l 513 423 l 525 515 q 505 594 534 571 q 414 617 476 617 q 316 595 350 617 q 256 505 282 572 l 85 537 q 210 717 129 664 q 442 770 292 770 q 675 709 600 770 q 732 521 750 648 l 691 229 q 713 161 683 174 q 806 157 742 148 l 784 4 q 622 8 683 -18 q 552 117 561 33 l 518 117 q 395 26 471 64 q 232 -13 319 -13 m 466 856 q 295 903 356 856 q 247 1048 234 949 l 253 1088 q 342 1235 266 1187 q 527 1284 417 1284 q 698 1235 638 1284 q 745 1088 759 1187 l 740 1048 q 651 903 726 949 q 466 856 576 856 m 481 963 q 554 982 528 963 q 588 1048 581 1001 l 593 1088 q 579 1155 600 1134 q 511 1177 558 1177 q 437 1155 465 1177 q 404 1088 410 1134 l 399 1048 q 413 982 391 1001 q 481 963 434 963 z "},"ā":{"ha":884,"x_min":5,"x_max":806,"o":"m 303 126 q 394 141 350 126 q 479 183 438 155 l 496 306 l 322 306 q 253 287 279 306 q 218 212 226 268 q 232 148 212 170 q 303 126 251 126 m 232 -13 q 66 44 126 -13 q 20 207 5 101 q 116 367 35 312 q 314 423 196 423 l 513 423 l 525 515 q 505 594 534 571 q 414 617 476 617 q 316 595 350 617 q 256 505 282 572 l 85 537 q 210 717 129 664 q 442 770 292 770 q 675 709 600 770 q 732 521 750 648 l 691 229 q 713 161 683 174 q 806 157 742 148 l 784 4 q 622 8 683 -18 q 552 117 561 33 l 518 117 q 395 26 471 64 q 232 -13 319 -13 m 201 927 l 225 1093 l 775 1093 l 751 927 l 201 927 z "},"ă":{"ha":884,"x_min":5,"x_max":835,"o":"m 303 126 q 394 141 350 126 q 479 183 438 155 l 496 306 l 322 306 q 253 287 279 306 q 218 212 226 268 q 232 148 212 170 q 303 126 251 126 m 232 -13 q 66 44 126 -13 q 20 207 5 101 q 116 367 35 312 q 314 423 196 423 l 513 423 l 525 515 q 505 594 534 571 q 414 617 476 617 q 316 595 350 617 q 256 505 282 572 l 85 537 q 210 717 129 664 q 442 770 292 770 q 675 709 600 770 q 732 521 750 648 l 691 229 q 713 161 683 174 q 806 157 742 148 l 784 4 q 622 8 683 -18 q 552 117 561 33 l 518 117 q 395 26 471 64 q 232 -13 319 -13 m 468 875 q 239 945 312 875 q 186 1167 165 1015 l 365 1167 q 383 1045 354 1080 q 487 1010 412 1010 q 602 1045 563 1010 q 655 1167 641 1080 l 835 1167 q 718 945 812 1015 q 468 875 625 875 z "},"ą":{"ha":884,"x_min":5,"x_max":822,"o":"m 303 126 q 394 141 350 126 q 479 183 438 155 l 496 306 l 322 306 q 253 287 279 306 q 218 212 226 268 q 232 148 212 170 q 303 126 251 126 m 232 -13 q 66 44 126 -13 q 20 207 5 101 q 116 367 35 312 q 314 423 196 423 l 513 423 l 525 515 q 505 594 534 571 q 414 617 476 617 q 316 595 350 617 q 256 505 282 572 l 85 537 q 210 717 129 664 q 442 770 292 770 q 675 709 600 770 q 732 521 750 648 l 691 229 q 713 161 683 174 q 806 157 742 148 l 784 4 q 622 8 683 -18 q 552 117 561 33 l 518 117 q 395 26 471 64 q 232 -13 319 -13 m 649 -279 q 497 -239 551 -279 q 455 -121 443 -199 q 532 11 465 -44 q 673 86 600 66 l 698 29 q 637 -23 652 3 q 619 -73 622 -49 q 634 -122 614 -106 q 703 -139 655 -139 q 758 -136 726 -139 q 822 -126 789 -133 l 803 -264 q 723 -275 763 -271 q 649 -279 683 -279 z "},"ǻ":{"ha":884,"x_min":5,"x_max":833,"o":"m 303 126 q 394 141 350 126 q 479 183 438 155 l 496 306 l 322 306 q 253 287 279 306 q 218 212 226 268 q 232 148 212 170 q 303 126 251 126 m 232 -13 q 66 44 126 -13 q 20 207 5 101 q 116 367 35 312 q 314 423 196 423 l 513 423 l 525 515 q 505 594 534 571 q 414 617 476 617 q 316 595 350 617 q 256 505 282 572 l 85 537 q 210 717 129 664 q 442 770 292 770 q 675 709 600 770 q 732 521 750 648 l 691 229 q 713 161 683 174 q 806 157 742 148 l 784 4 q 622 8 683 -18 q 552 117 561 33 l 518 117 q 395 26 471 64 q 232 -13 319 -13 m 466 856 q 295 903 356 856 q 247 1048 234 949 l 253 1088 q 342 1235 266 1187 q 527 1284 417 1284 q 698 1235 638 1284 q 745 1088 759 1187 l 740 1048 q 651 903 726 949 q 466 856 576 856 m 481 963 q 554 982 528 963 q 588 1048 581 1001 l 593 1088 q 579 1155 600 1134 q 511 1177 558 1177 q 437 1155 465 1177 q 404 1088 410 1134 l 399 1048 q 413 982 391 1001 q 481 963 434 963 m 375 1263 l 556 1515 l 833 1515 l 525 1263 l 375 1263 z "},"b":{"ha":884,"x_min":32,"x_max":811,"o":"m 361 -9 q 189 15 274 -9 q 32 85 105 39 l 162 1010 l 376 1010 l 322 622 l 360 622 q 465 732 400 694 q 607 770 529 770 q 761 699 711 770 q 793 508 811 629 l 761 277 q 638 64 741 138 q 361 -9 535 -9 m 391 148 q 498 178 460 148 q 547 278 537 208 l 574 472 q 559 570 583 538 q 485 602 535 602 q 398 581 442 602 q 308 518 355 559 l 260 183 q 323 156 292 164 q 391 148 354 148 z "},"":{"ha":884,"x_min":32,"x_max":811,"o":"m 361 -9 q 189 15 274 -9 q 32 85 105 39 l 162 1010 l 376 1010 l 322 622 l 360 622 q 465 732 400 694 q 607 770 529 770 q 761 699 711 770 q 793 508 811 629 l 761 277 q 638 64 741 138 q 361 -9 535 -9 m 391 148 q 498 178 460 148 q 547 278 537 208 l 574 472 q 559 570 583 538 q 485 602 535 602 q 398 581 442 602 q 308 518 355 559 l 260 183 q 323 156 292 164 q 391 148 354 148 z "},"c":{"ha":884,"x_min":39,"x_max":799,"o":"m 384 -13 q 122 63 206 -13 q 59 283 39 139 l 87 477 q 212 694 107 619 q 492 770 317 770 q 729 698 658 770 q 797 492 799 625 l 587 476 q 563 580 591 549 q 463 611 534 611 q 350 578 388 611 q 301 465 312 544 l 275 292 q 294 179 265 212 q 400 145 323 145 q 507 171 471 145 q 557 256 543 197 l 761 240 q 650 53 735 119 q 384 -13 566 -13 z "},"ç":{"ha":884,"x_min":39,"x_max":799,"o":"m 384 -13 q 122 63 206 -13 q 59 283 39 139 l 87 477 q 212 694 107 619 q 492 770 317 770 q 729 698 658 770 q 797 492 799 625 l 587 476 q 563 580 591 549 q 463 611 534 611 q 350 578 388 611 q 301 465 312 544 l 275 292 q 294 179 265 212 q 400 145 323 145 q 507 171 471 145 q 557 256 543 197 l 761 240 q 650 53 735 119 q 384 -13 566 -13 m 372 0 l 405 53 q 554 8 496 43 q 600 -112 612 -28 q 506 -242 587 -203 q 331 -282 426 -282 q 157 -245 221 -282 q 98 -121 92 -208 l 282 -109 q 294 -142 280 -133 q 340 -152 307 -152 q 395 -138 375 -152 q 420 -81 414 -124 q 415 -27 426 -45 q 372 0 405 -9 z "},"ć":{"ha":884,"x_min":39,"x_max":835,"o":"m 384 -13 q 122 63 206 -13 q 59 283 39 139 l 87 477 q 212 694 107 619 q 492 770 317 770 q 729 698 658 770 q 797 492 799 625 l 587 476 q 563 580 591 549 q 463 611 534 611 q 350 578 388 611 q 301 465 312 544 l 275 292 q 294 179 265 212 q 400 145 323 145 q 507 171 471 145 q 557 256 543 197 l 761 240 q 650 53 735 119 q 384 -13 566 -13 m 376 884 l 557 1136 l 835 1136 l 527 884 l 376 884 z "},"ĉ":{"ha":884,"x_min":39,"x_max":830,"o":"m 384 -13 q 122 63 206 -13 q 59 283 39 139 l 87 477 q 212 694 107 619 q 492 770 317 770 q 729 698 658 770 q 797 492 799 625 l 587 476 q 563 580 591 549 q 463 611 534 611 q 350 578 388 611 q 301 465 312 544 l 275 292 q 294 179 265 212 q 400 145 323 145 q 507 171 471 145 q 557 256 543 197 l 761 240 q 650 53 735 119 q 384 -13 566 -13 m 264 871 l 208 970 l 465 1167 l 626 1167 l 830 970 l 747 872 l 523 1009 l 264 871 z "},"ċ":{"ha":884,"x_min":39,"x_max":799,"o":"m 384 -13 q 122 63 206 -13 q 59 283 39 139 l 87 477 q 212 694 107 619 q 492 770 317 770 q 729 698 658 770 q 797 492 799 625 l 587 476 q 563 580 591 549 q 463 611 534 611 q 350 578 388 611 q 301 465 312 544 l 275 292 q 294 179 265 212 q 400 145 323 145 q 507 171 471 145 q 557 256 543 197 l 761 240 q 650 53 735 119 q 384 -13 566 -13 m 503 879 q 400 898 438 879 q 370 967 362 918 l 371 984 q 422 1055 379 1034 q 530 1076 466 1076 q 632 1055 595 1076 q 662 984 669 1034 l 660 967 q 610 898 653 918 q 503 879 567 879 z "},"č":{"ha":884,"x_min":39,"x_max":842,"o":"m 384 -13 q 122 63 206 -13 q 59 283 39 139 l 87 477 q 212 694 107 619 q 492 770 317 770 q 729 698 658 770 q 797 492 799 625 l 587 476 q 563 580 591 549 q 463 611 534 611 q 350 578 388 611 q 301 465 312 544 l 275 292 q 294 179 265 212 q 400 145 323 145 q 507 171 471 145 q 557 256 543 197 l 761 240 q 650 53 735 119 q 384 -13 566 -13 m 424 889 l 221 1086 l 303 1183 l 528 1047 l 787 1184 l 842 1086 l 586 889 l 424 889 z "},"d":{"ha":884,"x_min":39,"x_max":864,"o":"m 364 157 q 450 177 407 157 q 542 240 494 198 l 588 574 q 527 601 561 591 q 457 611 494 611 q 350 578 389 611 q 302 480 312 545 l 275 285 q 289 188 265 220 q 364 157 313 157 m 489 135 q 384 26 448 64 q 242 -13 319 -13 q 86 62 134 -13 q 56 250 39 138 l 88 481 q 201 691 107 616 q 444 766 295 766 q 533 759 490 766 q 611 736 576 751 l 649 1010 l 864 1010 l 722 0 l 508 0 l 527 135 l 489 135 z "},"ď":{"ha":884,"x_min":39,"x_max":1299,"o":"m 364 157 q 450 177 407 157 q 542 240 494 198 l 588 574 q 527 601 561 591 q 457 611 494 611 q 350 578 389 611 q 302 480 312 545 l 275 285 q 289 188 265 220 q 364 157 313 157 m 489 135 q 384 26 448 64 q 242 -13 319 -13 q 86 62 134 -13 q 56 250 39 138 l 88 481 q 201 691 107 616 q 444 766 295 766 q 533 759 490 766 q 611 736 576 751 l 649 1010 l 864 1010 l 722 0 l 508 0 l 527 135 l 489 135 m 898 890 l 1025 1263 l 1299 1263 l 1024 890 l 898 890 z "},"e":{"ha":884,"x_min":39,"x_max":809,"o":"m 760 176 q 617 28 701 69 q 374 -13 534 -13 q 129 60 220 -13 q 59 277 39 133 l 87 479 q 213 694 107 617 q 481 770 318 770 q 727 694 644 770 q 789 475 809 617 l 769 336 l 282 336 l 271 264 q 292 165 263 199 q 398 130 321 130 q 506 150 462 130 q 586 225 551 169 l 760 176 m 304 496 l 298 453 l 571 453 l 576 485 q 561 598 587 564 q 460 633 535 633 q 349 600 384 633 q 304 496 314 568 z "},"è":{"ha":884,"x_min":39,"x_max":809,"o":"m 760 176 q 617 28 701 69 q 374 -13 534 -13 q 129 60 220 -13 q 59 277 39 133 l 87 479 q 213 694 107 617 q 481 770 318 770 q 727 694 644 770 q 789 475 809 617 l 769 336 l 282 336 l 271 264 q 292 165 263 199 q 398 130 321 130 q 506 150 462 130 q 586 225 551 169 l 760 176 m 304 496 l 298 453 l 571 453 l 576 485 q 561 598 587 564 q 460 633 535 633 q 349 600 384 633 q 304 496 314 568 m 484 884 l 246 1136 l 524 1136 l 634 884 l 484 884 z "},"é":{"ha":884,"x_min":39,"x_max":814,"o":"m 760 176 q 617 28 701 69 q 374 -13 534 -13 q 129 60 220 -13 q 59 277 39 133 l 87 479 q 213 694 107 617 q 481 770 318 770 q 727 694 644 770 q 789 475 809 617 l 769 336 l 282 336 l 271 264 q 292 165 263 199 q 398 130 321 130 q 506 150 462 130 q 586 225 551 169 l 760 176 m 304 496 l 298 453 l 571 453 l 576 485 q 561 598 587 564 q 460 633 535 633 q 349 600 384 633 q 304 496 314 568 m 356 884 l 537 1136 l 814 1136 l 506 884 l 356 884 z "},"ê":{"ha":884,"x_min":39,"x_max":823,"o":"m 760 176 q 617 28 701 69 q 374 -13 534 -13 q 129 60 220 -13 q 59 277 39 133 l 87 479 q 213 694 107 617 q 481 770 318 770 q 727 694 644 770 q 789 475 809 617 l 769 336 l 282 336 l 271 264 q 292 165 263 199 q 398 130 321 130 q 506 150 462 130 q 586 225 551 169 l 760 176 m 304 496 l 298 453 l 571 453 l 576 485 q 561 598 587 564 q 460 633 535 633 q 349 600 384 633 q 304 496 314 568 m 258 871 l 202 970 l 458 1167 l 620 1167 l 823 970 l 741 872 l 516 1009 l 258 871 z "},"ë":{"ha":884,"x_min":39,"x_max":809,"o":"m 760 176 q 617 28 701 69 q 374 -13 534 -13 q 129 60 220 -13 q 59 277 39 133 l 87 479 q 213 694 107 617 q 481 770 318 770 q 727 694 644 770 q 789 475 809 617 l 769 336 l 282 336 l 271 264 q 292 165 263 199 q 398 130 321 130 q 506 150 462 130 q 586 225 551 169 l 760 176 m 304 496 l 298 453 l 571 453 l 576 485 q 561 598 587 564 q 460 633 535 633 q 349 600 384 633 q 304 496 314 568 m 341 879 q 263 898 292 879 q 242 967 235 918 l 244 984 q 285 1055 251 1034 q 369 1076 319 1076 q 447 1055 419 1076 q 467 984 475 1034 l 466 967 q 424 898 458 918 q 341 879 390 879 m 659 879 q 580 898 609 879 q 559 967 552 918 l 561 984 q 602 1055 568 1034 q 687 1076 636 1076 q 765 1055 737 1076 q 784 984 792 1034 l 783 967 q 741 898 775 918 q 659 879 707 879 z "},"ē":{"ha":884,"x_min":39,"x_max":809,"o":"m 760 176 q 617 28 701 69 q 374 -13 534 -13 q 129 60 220 -13 q 59 277 39 133 l 87 479 q 213 694 107 617 q 481 770 318 770 q 727 694 644 770 q 789 475 809 617 l 769 336 l 282 336 l 271 264 q 292 165 263 199 q 398 130 321 130 q 506 150 462 130 q 586 225 551 169 l 760 176 m 304 496 l 298 453 l 571 453 l 576 485 q 561 598 587 564 q 460 633 535 633 q 349 600 384 633 q 304 496 314 568 m 231 927 l 255 1093 l 806 1093 l 782 927 l 231 927 z "},"ĕ":{"ha":884,"x_min":39,"x_max":856,"o":"m 760 176 q 617 28 701 69 q 374 -13 534 -13 q 129 60 220 -13 q 59 277 39 133 l 87 479 q 213 694 107 617 q 481 770 318 770 q 727 694 644 770 q 789 475 809 617 l 769 336 l 282 336 l 271 264 q 292 165 263 199 q 398 130 321 130 q 506 150 462 130 q 586 225 551 169 l 760 176 m 304 496 l 298 453 l 571 453 l 576 485 q 561 598 587 564 q 460 633 535 633 q 349 600 384 633 q 304 496 314 568 m 490 875 q 260 945 333 875 q 207 1167 187 1015 l 386 1167 q 404 1045 375 1080 q 509 1010 433 1010 q 624 1045 585 1010 q 677 1167 663 1080 l 856 1167 q 740 945 833 1015 q 490 875 646 875 z "},"ė":{"ha":884,"x_min":39,"x_max":809,"o":"m 760 176 q 617 28 701 69 q 374 -13 534 -13 q 129 60 220 -13 q 59 277 39 133 l 87 479 q 213 694 107 617 q 481 770 318 770 q 727 694 644 770 q 789 475 809 617 l 769 336 l 282 336 l 271 264 q 292 165 263 199 q 398 130 321 130 q 506 150 462 130 q 586 225 551 169 l 760 176 m 304 496 l 298 453 l 571 453 l 576 485 q 561 598 587 564 q 460 633 535 633 q 349 600 384 633 q 304 496 314 568 m 500 879 q 398 898 436 879 q 367 967 360 918 l 369 984 q 420 1055 376 1034 q 528 1076 463 1076 q 629 1055 592 1076 q 659 984 667 1034 l 658 967 q 607 898 650 918 q 500 879 564 879 z "},"ę":{"ha":884,"x_min":39,"x_max":809,"o":"m 516 -279 q 364 -239 418 -279 q 322 -121 311 -199 q 400 11 332 -44 q 540 86 467 66 l 566 29 q 504 -23 519 3 q 486 -73 490 -49 q 502 -122 481 -106 q 571 -139 523 -139 q 625 -136 593 -139 q 689 -126 657 -133 l 670 -264 q 590 -275 630 -271 q 516 -279 551 -279 m 760 176 q 617 28 701 69 q 374 -13 534 -13 q 129 60 220 -13 q 59 277 39 133 l 87 479 q 213 694 107 617 q 481 770 318 770 q 727 694 644 770 q 789 475 809 617 l 769 336 l 282 336 l 271 264 q 292 165 263 199 q 398 130 321 130 q 506 150 462 130 q 586 225 551 169 l 760 176 m 304 496 l 298 453 l 571 453 l 576 485 q 561 598 587 564 q 460 633 535 633 q 349 600 384 633 q 304 496 314 568 z "},"ě":{"ha":884,"x_min":39,"x_max":840,"o":"m 760 176 q 617 28 701 69 q 374 -13 534 -13 q 129 60 220 -13 q 59 277 39 133 l 87 479 q 213 694 107 617 q 481 770 318 770 q 727 694 644 770 q 789 475 809 617 l 769 336 l 282 336 l 271 264 q 292 165 263 199 q 398 130 321 130 q 506 150 462 130 q 586 225 551 169 l 760 176 m 304 496 l 298 453 l 571 453 l 576 485 q 561 598 587 564 q 460 633 535 633 q 349 600 384 633 q 304 496 314 568 m 422 889 l 218 1086 l 301 1183 l 525 1047 l 784 1184 l 840 1086 l 583 889 l 422 889 z "},"f":{"ha":884,"x_min":97,"x_max":880,"o":"m 183 -253 l 303 600 l 97 600 l 119 758 l 324 758 l 331 801 q 444 981 347 914 q 682 1048 542 1048 q 785 1041 734 1048 q 880 1018 837 1034 l 835 875 q 758 893 797 888 q 683 899 718 899 q 588 873 625 899 q 543 785 552 847 l 539 758 l 828 758 l 807 600 l 518 600 l 398 -253 l 183 -253 z "},"g":{"ha":884,"x_min":-48,"x_max":865,"o":"m 761 -42 q 661 -205 747 -144 q 447 -265 574 -265 l 223 -265 q 18 -215 85 -265 q -38 -86 -48 -165 q 15 15 -29 -23 q 119 59 59 53 l 121 85 q 51 126 78 97 q 32 216 23 155 q 92 325 40 282 q 221 378 144 369 l 225 402 q 136 458 163 419 q 117 547 110 496 l 119 558 q 221 705 133 653 q 436 758 309 758 l 865 758 l 847 626 l 646 652 l 643 626 q 711 578 687 614 q 731 499 736 542 l 729 485 q 628 343 716 394 q 408 292 539 292 l 284 292 q 221 277 245 292 q 192 227 197 263 q 210 178 188 193 q 275 163 232 163 l 516 163 q 708 113 640 163 q 761 -42 777 63 m 408 400 q 497 424 466 400 q 534 490 528 447 l 542 545 q 522 609 547 586 q 439 631 497 631 q 350 609 381 631 q 314 545 319 586 l 307 490 q 324 424 301 447 q 408 400 347 400 m 244 -138 l 470 -138 q 546 -123 515 -138 q 583 -64 577 -109 q 563 -6 590 -20 q 494 9 537 9 l 181 9 l 172 -58 q 184 -117 165 -97 q 244 -138 202 -138 z "},"ĝ":{"ha":884,"x_min":-48,"x_max":865,"o":"m 761 -42 q 661 -205 747 -144 q 447 -265 574 -265 l 223 -265 q 18 -215 85 -265 q -38 -86 -48 -165 q 15 15 -29 -23 q 119 59 59 53 l 121 85 q 51 126 78 97 q 32 216 23 155 q 92 325 40 282 q 221 378 144 369 l 225 402 q 136 458 163 419 q 117 547 110 496 l 119 558 q 221 705 133 653 q 436 758 309 758 l 865 758 l 847 626 l 646 652 l 643 626 q 711 578 687 614 q 731 499 736 542 l 729 485 q 628 343 716 394 q 408 292 539 292 l 284 292 q 221 277 245 292 q 192 227 197 263 q 210 178 188 193 q 275 163 232 163 l 516 163 q 708 113 640 163 q 761 -42 777 63 m 408 400 q 497 424 466 400 q 534 490 528 447 l 542 545 q 522 609 547 586 q 439 631 497 631 q 350 609 381 631 q 314 545 319 586 l 307 490 q 324 424 301 447 q 408 400 347 400 m 244 -138 l 470 -138 q 546 -123 515 -138 q 583 -64 577 -109 q 563 -6 590 -20 q 494 9 537 9 l 181 9 l 172 -58 q 184 -117 165 -97 q 244 -138 202 -138 m 258 871 l 202 970 l 458 1167 l 620 1167 l 823 970 l 741 872 l 516 1009 l 258 871 z "},"ğ":{"ha":884,"x_min":-48,"x_max":865,"o":"m 761 -42 q 661 -205 747 -144 q 447 -265 574 -265 l 223 -265 q 18 -215 85 -265 q -38 -86 -48 -165 q 15 15 -29 -23 q 119 59 59 53 l 121 85 q 51 126 78 97 q 32 216 23 155 q 92 325 40 282 q 221 378 144 369 l 225 402 q 136 458 163 419 q 117 547 110 496 l 119 558 q 221 705 133 653 q 436 758 309 758 l 865 758 l 847 626 l 646 652 l 643 626 q 711 578 687 614 q 731 499 736 542 l 729 485 q 628 343 716 394 q 408 292 539 292 l 284 292 q 221 277 245 292 q 192 227 197 263 q 210 178 188 193 q 275 163 232 163 l 516 163 q 708 113 640 163 q 761 -42 777 63 m 408 400 q 497 424 466 400 q 534 490 528 447 l 542 545 q 522 609 547 586 q 439 631 497 631 q 350 609 381 631 q 314 545 319 586 l 307 490 q 324 424 301 447 q 408 400 347 400 m 244 -138 l 470 -138 q 546 -123 515 -138 q 583 -64 577 -109 q 563 -6 590 -20 q 494 9 537 9 l 181 9 l 172 -58 q 184 -117 165 -97 q 244 -138 202 -138 m 494 875 q 264 945 337 875 q 211 1167 191 1015 l 390 1167 q 408 1045 379 1080 q 513 1010 437 1010 q 628 1045 588 1010 q 681 1167 667 1080 l 860 1167 q 744 945 837 1015 q 494 875 650 875 z "},"ġ":{"ha":884,"x_min":-48,"x_max":865,"o":"m 761 -42 q 661 -205 747 -144 q 447 -265 574 -265 l 223 -265 q 18 -215 85 -265 q -38 -86 -48 -165 q 15 15 -29 -23 q 119 59 59 53 l 121 85 q 51 126 78 97 q 32 216 23 155 q 92 325 40 282 q 221 378 144 369 l 225 402 q 136 458 163 419 q 117 547 110 496 l 119 558 q 221 705 133 653 q 436 758 309 758 l 865 758 l 847 626 l 646 652 l 643 626 q 711 578 687 614 q 731 499 736 542 l 729 485 q 628 343 716 394 q 408 292 539 292 l 284 292 q 221 277 245 292 q 192 227 197 263 q 210 178 188 193 q 275 163 232 163 l 516 163 q 708 113 640 163 q 761 -42 777 63 m 408 400 q 497 424 466 400 q 534 490 528 447 l 542 545 q 522 609 547 586 q 439 631 497 631 q 350 609 381 631 q 314 545 319 586 l 307 490 q 324 424 301 447 q 408 400 347 400 m 244 -138 l 470 -138 q 546 -123 515 -138 q 583 -64 577 -109 q 563 -6 590 -20 q 494 9 537 9 l 181 9 l 172 -58 q 184 -117 165 -97 q 244 -138 202 -138 m 495 879 q 393 898 431 879 q 362 967 355 918 l 364 984 q 415 1055 371 1034 q 523 1076 458 1076 q 624 1055 587 1076 q 654 984 662 1034 l 653 967 q 602 898 645 918 q 495 879 559 879 z "},"ģ":{"ha":884,"x_min":-48,"x_max":865,"o":"m 761 -42 q 661 -205 747 -144 q 447 -265 574 -265 l 223 -265 q 18 -215 85 -265 q -38 -86 -48 -165 q 15 15 -29 -23 q 119 59 59 53 l 121 85 q 51 126 78 97 q 32 216 23 155 q 92 325 40 282 q 221 378 144 369 l 225 402 q 136 458 163 419 q 117 547 110 496 l 119 558 q 221 705 133 653 q 436 758 309 758 l 865 758 l 847 626 l 646 652 l 643 626 q 711 578 687 614 q 731 499 736 542 l 729 485 q 628 343 716 394 q 408 292 539 292 l 284 292 q 221 277 245 292 q 192 227 197 263 q 210 178 188 193 q 275 163 232 163 l 516 163 q 708 113 640 163 q 761 -42 777 63 m 408 400 q 497 424 466 400 q 534 490 528 447 l 542 545 q 522 609 547 586 q 439 631 497 631 q 350 609 381 631 q 314 545 319 586 l 307 490 q 324 424 301 447 q 408 400 347 400 m 244 -138 l 470 -138 q 546 -123 515 -138 q 583 -64 577 -109 q 563 -6 590 -20 q 494 9 537 9 l 181 9 l 172 -58 q 184 -117 165 -97 q 244 -138 202 -138 m 341 884 l 598 1136 l 749 1136 l 619 884 l 341 884 z "},"h":{"ha":884,"x_min":20,"x_max":812,"o":"m 20 0 l 162 1010 l 376 1010 l 322 622 l 360 622 q 467 731 400 692 q 610 770 533 770 q 761 706 711 770 q 797 533 812 641 l 722 0 l 508 0 l 574 476 q 563 570 583 538 q 495 602 542 602 q 402 571 452 602 q 303 486 352 540 l 235 0 l 20 0 z "},"ĥ":{"ha":884,"x_min":-9,"x_max":812,"o":"m 20 0 l 162 1010 l 376 1010 l 322 622 l 360 622 q 467 731 400 692 q 610 770 533 770 q 761 706 711 770 q 797 533 812 641 l 722 0 l 508 0 l 574 476 q 563 570 583 538 q 495 602 542 602 q 402 571 452 602 q 303 486 352 540 l 235 0 l 20 0 m 47 1124 l -9 1222 l 247 1419 l 409 1419 l 612 1222 l 530 1125 l 306 1261 l 47 1124 z "},"i":{"ha":884,"x_min":29,"x_max":736,"o":"m 29 0 l 52 158 l 287 158 l 348 600 l 114 600 l 135 758 l 585 758 l 501 158 l 736 158 l 713 0 l 29 0 m 505 879 q 403 898 441 879 q 372 967 365 918 l 374 984 q 425 1055 381 1034 q 533 1076 468 1076 q 634 1055 597 1076 q 664 984 672 1034 l 663 967 q 612 898 655 918 q 505 879 569 879 z "},"ì":{"ha":884,"x_min":29,"x_max":736,"o":"m 29 0 l 52 158 l 287 158 l 348 600 l 114 600 l 135 758 l 585 758 l 501 158 l 736 158 l 713 0 l 29 0 m 496 884 l 259 1136 l 537 1136 l 646 884 l 496 884 z "},"í":{"ha":884,"x_min":29,"x_max":792,"o":"m 29 0 l 52 158 l 287 158 l 348 600 l 114 600 l 135 758 l 585 758 l 501 158 l 736 158 l 713 0 l 29 0 m 333 884 l 514 1136 l 792 1136 l 484 884 l 333 884 z "},"î":{"ha":884,"x_min":29,"x_max":818,"o":"m 29 0 l 52 158 l 287 158 l 348 600 l 114 600 l 135 758 l 585 758 l 501 158 l 736 158 l 713 0 l 29 0 m 253 871 l 197 970 l 453 1167 l 615 1167 l 818 970 l 736 872 l 511 1009 l 253 871 z "},"ï":{"ha":884,"x_min":29,"x_max":787,"o":"m 29 0 l 52 158 l 287 158 l 348 600 l 114 600 l 135 758 l 585 758 l 501 158 l 736 158 l 713 0 l 29 0 m 336 879 q 258 898 287 879 q 237 967 230 918 l 239 984 q 280 1055 246 1034 q 364 1076 314 1076 q 442 1055 414 1076 q 462 984 470 1034 l 461 967 q 419 898 453 918 q 336 879 385 879 m 654 879 q 575 898 604 879 q 554 967 547 918 l 556 984 q 597 1055 563 1034 q 682 1076 631 1076 q 759 1055 732 1076 q 779 984 787 1034 l 778 967 q 736 898 770 918 q 654 879 702 879 z "},"ĩ":{"ha":884,"x_min":29,"x_max":836,"o":"m 29 0 l 52 158 l 287 158 l 348 600 l 114 600 l 135 758 l 585 758 l 501 158 l 736 158 l 713 0 l 29 0 m 612 896 q 527 917 557 896 q 480 960 497 937 q 447 1003 462 984 q 408 1023 432 1023 q 367 1003 386 1023 q 341 922 347 984 l 338 909 l 197 909 l 199 928 q 274 1098 215 1030 q 422 1167 333 1167 q 509 1147 480 1167 q 557 1104 539 1128 q 590 1059 574 1080 q 626 1039 605 1039 q 667 1059 648 1039 q 693 1141 686 1078 l 694 1153 l 836 1153 l 833 1134 q 760 965 819 1033 q 612 896 701 896 z "},"ī":{"ha":884,"x_min":29,"x_max":801,"o":"m 29 0 l 52 158 l 287 158 l 348 600 l 114 600 l 135 758 l 585 758 l 501 158 l 736 158 l 713 0 l 29 0 m 226 927 l 250 1093 l 801 1093 l 777 927 l 226 927 z "},"ĭ":{"ha":884,"x_min":29,"x_max":860,"o":"m 29 0 l 52 158 l 287 158 l 348 600 l 114 600 l 135 758 l 585 758 l 501 158 l 736 158 l 713 0 l 29 0 m 494 875 q 264 945 337 875 q 211 1167 191 1015 l 390 1167 q 408 1045 379 1080 q 513 1010 437 1010 q 628 1045 588 1010 q 681 1167 667 1080 l 860 1167 q 744 945 837 1015 q 494 875 650 875 z "},"į":{"ha":884,"x_min":29,"x_max":736,"o":"m 505 879 q 403 898 441 879 q 372 967 365 918 l 374 984 q 425 1055 381 1034 q 533 1076 468 1076 q 634 1055 597 1076 q 664 984 672 1034 l 663 967 q 612 898 655 918 q 505 879 569 879 m 29 0 l 52 158 l 287 158 l 348 600 l 114 600 l 135 758 l 585 758 l 501 158 l 736 158 l 713 0 l 29 0 m 427 -279 q 275 -239 328 -279 q 232 -121 221 -199 q 310 11 242 -44 q 451 86 378 66 l 476 29 q 415 -23 429 3 q 396 -73 400 -49 q 412 -122 391 -106 q 481 -139 433 -139 q 535 -136 504 -139 q 600 -126 567 -133 l 581 -264 q 501 -275 540 -271 q 427 -279 461 -279 z "},"j":{"ha":884,"x_min":-20,"x_max":769,"o":"m 201 -264 q 89 -258 145 -264 q -20 -236 33 -253 l 25 -88 q 115 -109 72 -104 q 197 -114 158 -114 q 324 -83 275 -114 q 384 16 374 -53 l 466 600 l 140 600 l 162 758 l 702 758 l 596 -4 q 472 -196 578 -129 q 201 -264 365 -264 m 602 879 q 500 898 538 879 q 470 967 462 918 l 471 984 q 522 1055 479 1034 q 630 1076 566 1076 q 732 1055 694 1076 q 761 984 769 1034 l 760 967 q 710 898 753 918 q 602 879 667 879 z "},"ĵ":{"ha":884,"x_min":-20,"x_max":891,"o":"m 201 -264 q 89 -258 145 -264 q -20 -236 33 -253 l 25 -88 q 115 -109 72 -104 q 197 -114 158 -114 q 324 -83 275 -114 q 384 16 374 -53 l 466 600 l 140 600 l 162 758 l 702 758 l 596 -4 q 472 -196 578 -129 q 201 -264 365 -264 m 326 871 l 270 970 l 527 1167 l 688 1167 l 891 970 l 809 872 l 585 1009 l 326 871 z "},"k":{"ha":884,"x_min":48,"x_max":856,"o":"m 308 319 l 263 0 l 48 0 l 189 1010 l 404 1010 l 328 467 l 380 467 l 629 758 l 856 758 l 551 414 l 746 0 l 515 0 l 360 319 l 308 319 z "},"ķ":{"ha":884,"x_min":48,"x_max":856,"o":"m 308 319 l 263 0 l 48 0 l 189 1010 l 404 1010 l 328 467 l 380 467 l 629 758 l 856 758 l 551 414 l 746 0 l 515 0 l 360 319 l 308 319 m 140 -379 l 270 -126 l 548 -126 l 290 -379 l 140 -379 z "},"l":{"ha":884,"x_min":38,"x_max":754,"o":"m 38 0 l 61 158 l 304 158 l 402 852 l 158 852 l 179 1010 l 638 1010 l 519 158 l 754 158 l 731 0 l 38 0 z "},"ĺ":{"ha":884,"x_min":38,"x_max":793,"o":"m 38 0 l 61 158 l 304 158 l 402 852 l 158 852 l 179 1010 l 638 1010 l 519 158 l 754 158 l 731 0 l 38 0 m 335 1136 l 515 1389 l 793 1389 l 485 1136 l 335 1136 z "},"ļ":{"ha":884,"x_min":38,"x_max":754,"o":"m 38 0 l 61 158 l 304 158 l 402 852 l 158 852 l 179 1010 l 638 1010 l 519 158 l 754 158 l 731 0 l 38 0 m 100 -379 l 230 -126 l 508 -126 l 250 -379 l 100 -379 z "},"ľ":{"ha":884,"x_min":38,"x_max":1091,"o":"m 38 0 l 61 158 l 304 158 l 402 852 l 158 852 l 179 1010 l 638 1010 l 519 158 l 754 158 l 731 0 l 38 0 m 689 890 l 817 1263 l 1091 1263 l 816 890 l 689 890 z "},"m":{"ha":884,"x_min":-15,"x_max":851,"o":"m 239 538 l 163 0 l -15 0 l 91 758 l 268 758 l 254 657 l 288 657 q 357 738 319 710 q 438 766 395 766 q 510 739 481 766 q 544 657 539 711 l 577 657 q 649 738 606 710 q 742 766 692 766 q 825 718 799 766 q 840 588 851 669 l 758 0 l 580 0 l 657 552 q 655 608 662 588 q 631 628 649 628 q 586 604 612 628 q 534 538 561 581 l 458 0 l 284 0 l 361 552 q 359 608 366 588 q 335 628 352 628 q 290 604 316 628 q 239 538 265 581 z "},"n":{"ha":884,"x_min":20,"x_max":813,"o":"m 20 0 l 126 758 l 341 758 l 322 622 l 360 622 q 468 731 399 692 q 619 770 537 770 q 766 707 718 770 q 797 533 813 644 l 722 0 l 508 0 l 577 494 q 563 574 585 547 q 495 602 542 602 q 401 577 452 602 q 306 504 350 552 l 235 0 l 20 0 z "},"ñ":{"ha":884,"x_min":20,"x_max":861,"o":"m 20 0 l 126 758 l 341 758 l 322 622 l 360 622 q 468 731 399 692 q 619 770 537 770 q 766 707 718 770 q 797 533 813 644 l 722 0 l 508 0 l 577 494 q 563 574 585 547 q 495 602 542 602 q 401 577 452 602 q 306 504 350 552 l 235 0 l 20 0 m 638 896 q 552 917 582 896 q 505 960 523 937 q 472 1003 487 984 q 433 1023 457 1023 q 392 1003 412 1023 q 366 922 372 984 l 364 909 l 222 909 l 225 928 q 299 1098 240 1030 q 447 1167 359 1167 q 535 1147 505 1167 q 582 1104 564 1128 q 615 1059 600 1080 q 652 1039 630 1039 q 692 1059 673 1039 q 718 1141 711 1078 l 720 1153 l 861 1153 l 859 1134 q 785 965 845 1033 q 638 896 726 896 z "},"ń":{"ha":884,"x_min":20,"x_max":817,"o":"m 20 0 l 126 758 l 341 758 l 322 622 l 360 622 q 468 731 399 692 q 619 770 537 770 q 766 707 718 770 q 797 533 813 644 l 722 0 l 508 0 l 577 494 q 563 574 585 547 q 495 602 542 602 q 401 577 452 602 q 306 504 350 552 l 235 0 l 20 0 m 359 884 l 539 1136 l 817 1136 l 509 884 l 359 884 z "},"ņ":{"ha":884,"x_min":20,"x_max":813,"o":"m 122 -379 l 253 -126 l 530 -126 l 273 -379 l 122 -379 m 20 0 l 126 758 l 341 758 l 322 622 l 360 622 q 468 731 399 692 q 619 770 537 770 q 766 707 718 770 q 797 533 813 644 l 722 0 l 508 0 l 577 494 q 563 574 585 547 q 495 602 542 602 q 401 577 452 602 q 306 504 350 552 l 235 0 l 20 0 z "},"ň":{"ha":884,"x_min":20,"x_max":860,"o":"m 20 0 l 126 758 l 341 758 l 322 622 l 360 622 q 468 731 399 692 q 619 770 537 770 q 766 707 718 770 q 797 533 813 644 l 722 0 l 508 0 l 577 494 q 563 574 585 547 q 495 602 542 602 q 401 577 452 602 q 306 504 350 552 l 235 0 l 20 0 m 442 889 l 239 1086 l 321 1183 l 545 1047 l 804 1184 l 860 1086 l 604 889 l 442 889 z "},"o":{"ha":884,"x_min":39,"x_max":808,"o":"m 370 -13 q 122 63 205 -13 q 58 274 39 139 l 87 479 q 211 693 107 616 q 481 770 314 770 q 727 692 646 770 q 789 475 808 614 l 760 270 q 638 62 741 136 q 370 -13 535 -13 m 391 145 q 499 178 462 145 q 547 283 537 211 l 573 471 q 556 578 585 544 q 457 612 528 612 q 349 578 386 612 q 302 472 312 544 l 275 288 q 293 179 265 213 q 391 145 321 145 z "},"ò":{"ha":884,"x_min":39,"x_max":808,"o":"m 370 -13 q 122 63 205 -13 q 58 274 39 139 l 87 479 q 211 693 107 616 q 481 770 314 770 q 727 692 646 770 q 789 475 808 614 l 760 270 q 638 62 741 136 q 370 -13 535 -13 m 391 145 q 499 178 462 145 q 547 283 537 211 l 573 471 q 556 578 585 544 q 457 612 528 612 q 349 578 386 612 q 302 472 312 544 l 275 288 q 293 179 265 213 q 391 145 321 145 m 479 884 l 241 1136 l 519 1136 l 629 884 l 479 884 z "},"ó":{"ha":884,"x_min":39,"x_max":808,"o":"m 370 -13 q 122 63 205 -13 q 58 274 39 139 l 87 479 q 211 693 107 616 q 481 770 314 770 q 727 692 646 770 q 789 475 808 614 l 760 270 q 638 62 741 136 q 370 -13 535 -13 m 391 145 q 499 178 462 145 q 547 283 537 211 l 573 471 q 556 578 585 544 q 457 612 528 612 q 349 578 386 612 q 302 472 312 544 l 275 288 q 293 179 265 213 q 391 145 321 145 m 333 884 l 514 1136 l 792 1136 l 484 884 l 333 884 z "},"ô":{"ha":884,"x_min":39,"x_max":818,"o":"m 370 -13 q 122 63 205 -13 q 58 274 39 139 l 87 479 q 211 693 107 616 q 481 770 314 770 q 727 692 646 770 q 789 475 808 614 l 760 270 q 638 62 741 136 q 370 -13 535 -13 m 391 145 q 499 178 462 145 q 547 283 537 211 l 573 471 q 556 578 585 544 q 457 612 528 612 q 349 578 386 612 q 302 472 312 544 l 275 288 q 293 179 265 213 q 391 145 321 145 m 253 871 l 197 970 l 453 1167 l 615 1167 l 818 970 l 736 872 l 511 1009 l 253 871 z "},"õ":{"ha":884,"x_min":39,"x_max":836,"o":"m 370 -13 q 122 63 205 -13 q 58 274 39 139 l 87 479 q 211 693 107 616 q 481 770 314 770 q 727 692 646 770 q 789 475 808 614 l 760 270 q 638 62 741 136 q 370 -13 535 -13 m 391 145 q 499 178 462 145 q 547 283 537 211 l 573 471 q 556 578 585 544 q 457 612 528 612 q 349 578 386 612 q 302 472 312 544 l 275 288 q 293 179 265 213 q 391 145 321 145 m 612 896 q 527 917 557 896 q 480 960 497 937 q 447 1003 462 984 q 408 1023 432 1023 q 367 1003 386 1023 q 341 922 347 984 l 338 909 l 197 909 l 199 928 q 274 1098 215 1030 q 422 1167 333 1167 q 509 1147 480 1167 q 557 1104 539 1128 q 590 1059 574 1080 q 626 1039 605 1039 q 667 1059 648 1039 q 693 1141 686 1078 l 694 1153 l 836 1153 l 833 1134 q 760 965 819 1033 q 612 896 701 896 z "},"ö":{"ha":884,"x_min":39,"x_max":808,"o":"m 370 -13 q 122 63 205 -13 q 58 274 39 139 l 87 479 q 211 693 107 616 q 481 770 314 770 q 727 692 646 770 q 789 475 808 614 l 760 270 q 638 62 741 136 q 370 -13 535 -13 m 391 145 q 499 178 462 145 q 547 283 537 211 l 573 471 q 556 578 585 544 q 457 612 528 612 q 349 578 386 612 q 302 472 312 544 l 275 288 q 293 179 265 213 q 391 145 321 145 m 336 879 q 258 898 287 879 q 237 967 230 918 l 239 984 q 280 1055 246 1034 q 364 1076 314 1076 q 442 1055 414 1076 q 462 984 470 1034 l 461 967 q 419 898 453 918 q 336 879 385 879 m 654 879 q 575 898 604 879 q 554 967 547 918 l 556 984 q 597 1055 563 1034 q 682 1076 631 1076 q 759 1055 732 1076 q 779 984 787 1034 l 778 967 q 736 898 770 918 q 654 879 702 879 z "},"ō":{"ha":884,"x_min":39,"x_max":808,"o":"m 370 -13 q 122 63 205 -13 q 58 274 39 139 l 87 479 q 211 693 107 616 q 481 770 314 770 q 727 692 646 770 q 789 475 808 614 l 760 270 q 638 62 741 136 q 370 -13 535 -13 m 391 145 q 499 178 462 145 q 547 283 537 211 l 573 471 q 556 578 585 544 q 457 612 528 612 q 349 578 386 612 q 302 472 312 544 l 275 288 q 293 179 265 213 q 391 145 321 145 m 226 927 l 250 1093 l 801 1093 l 777 927 l 226 927 z "},"ŏ":{"ha":884,"x_min":39,"x_max":869,"o":"m 370 -13 q 122 63 205 -13 q 58 274 39 139 l 87 479 q 211 693 107 616 q 481 770 314 770 q 727 692 646 770 q 789 475 808 614 l 760 270 q 638 62 741 136 q 370 -13 535 -13 m 391 145 q 499 178 462 145 q 547 283 537 211 l 573 471 q 556 578 585 544 q 457 612 528 612 q 349 578 386 612 q 302 472 312 544 l 275 288 q 293 179 265 213 q 391 145 321 145 m 503 875 q 273 945 346 875 q 220 1167 199 1015 l 399 1167 q 417 1045 388 1080 q 521 1010 446 1010 q 636 1045 597 1010 q 689 1167 676 1080 l 869 1167 q 753 945 846 1015 q 503 875 659 875 z "},"ő":{"ha":884,"x_min":39,"x_max":875,"o":"m 370 -13 q 122 63 205 -13 q 58 274 39 139 l 87 479 q 211 693 107 616 q 481 770 314 770 q 727 692 646 770 q 789 475 808 614 l 760 270 q 638 62 741 136 q 370 -13 535 -13 m 391 145 q 499 178 462 145 q 547 283 537 211 l 573 471 q 556 578 585 544 q 457 612 528 612 q 349 578 386 612 q 302 472 312 544 l 275 288 q 293 179 265 213 q 391 145 321 145 m 557 884 l 654 1136 l 875 1136 l 673 884 l 557 884 m 266 884 l 364 1136 l 585 1136 l 383 884 l 266 884 z "},"p":{"ha":884,"x_min":-15,"x_max":811,"o":"m 391 148 q 498 178 460 148 q 547 278 537 208 l 574 473 q 560 571 583 539 q 485 602 537 602 q 398 581 441 602 q 308 518 356 561 l 261 184 q 320 157 290 165 q 391 148 350 148 m 404 -9 q 318 -1 361 -9 q 237 21 274 6 l 199 -253 l -15 -253 l 126 758 l 341 758 l 322 622 l 360 622 q 465 730 399 691 q 607 770 532 770 q 760 699 710 770 q 793 508 811 629 l 761 277 q 646 68 742 145 q 404 -9 551 -9 z "},"q":{"ha":884,"x_min":39,"x_max":819,"o":"m 472 -253 l 527 135 l 489 135 q 391 30 453 73 q 242 -13 330 -13 q 86 62 133 -13 q 56 250 39 136 l 88 481 q 213 693 107 619 q 487 766 319 766 q 669 747 573 766 q 819 693 764 729 l 687 -253 l 472 -253 m 364 157 q 449 177 407 157 q 542 240 492 197 l 588 574 q 532 601 563 591 q 457 611 500 611 q 354 580 395 611 q 302 480 312 549 l 275 289 q 290 189 266 221 q 364 157 313 157 z "},"r":{"ha":884,"x_min":57,"x_max":826,"o":"m 57 0 l 163 758 l 378 758 l 359 622 l 396 622 q 499 735 436 701 q 644 770 563 770 q 782 714 739 770 q 812 556 826 658 l 793 423 l 597 423 l 607 491 q 595 573 615 544 q 520 602 576 602 q 427 580 472 602 q 342 504 381 557 l 271 0 l 57 0 z "},"ŕ":{"ha":884,"x_min":57,"x_max":830,"o":"m 57 0 l 163 758 l 378 758 l 359 622 l 396 622 q 499 735 436 701 q 644 770 563 770 q 782 714 739 770 q 812 556 826 658 l 793 423 l 597 423 l 607 491 q 595 573 615 544 q 520 602 576 602 q 427 580 472 602 q 342 504 381 557 l 271 0 l 57 0 m 371 884 l 552 1136 l 830 1136 l 521 884 l 371 884 z "},"ŗ":{"ha":884,"x_min":-71,"x_max":826,"o":"m 57 0 l 163 758 l 378 758 l 359 622 l 396 622 q 499 735 436 701 q 644 770 563 770 q 782 714 739 770 q 812 556 826 658 l 793 423 l 597 423 l 607 491 q 595 573 615 544 q 520 602 576 602 q 427 580 472 602 q 342 504 381 557 l 271 0 l 57 0 m -71 -379 l 59 -126 l 337 -126 l 80 -379 l -71 -379 z "},"ř":{"ha":884,"x_min":57,"x_max":872,"o":"m 57 0 l 163 758 l 378 758 l 359 622 l 396 622 q 499 735 436 701 q 644 770 563 770 q 782 714 739 770 q 812 556 826 658 l 793 423 l 597 423 l 607 491 q 595 573 615 544 q 520 602 576 602 q 427 580 472 602 q 342 504 381 557 l 271 0 l 57 0 m 455 889 l 251 1086 l 333 1183 l 558 1047 l 817 1184 l 872 1086 l 616 889 l 455 889 z "},"s":{"ha":884,"x_min":25,"x_max":771,"o":"m 374 -9 q 183 18 275 -9 q 25 93 91 44 l 101 229 q 247 157 167 182 q 399 133 327 133 q 494 151 457 133 q 537 212 530 169 q 512 276 543 256 q 399 304 481 295 q 172 368 247 321 q 111 525 96 415 q 225 705 128 640 q 465 770 323 770 q 627 746 545 770 q 771 677 708 721 l 706 548 q 578 608 643 587 q 452 629 514 629 q 367 610 400 629 q 328 551 335 591 q 361 489 322 506 q 494 460 400 472 q 703 389 639 442 q 753 235 766 336 q 634 55 736 119 q 374 -9 532 -9 z "},"":{"ha":884,"x_min":25,"x_max":771,"o":"m 374 -9 q 183 18 275 -9 q 25 93 91 44 l 101 229 q 247 157 167 182 q 399 133 327 133 q 494 151 457 133 q 537 212 530 169 q 512 276 543 256 q 399 304 481 295 q 172 368 247 321 q 111 525 96 415 q 225 705 128 640 q 465 770 323 770 q 627 746 545 770 q 771 677 708 721 l 706 548 q 578 608 643 587 q 452 629 514 629 q 367 610 400 629 q 328 551 335 591 q 361 489 322 506 q 494 460 400 472 q 703 389 639 442 q 753 235 766 336 q 634 55 736 119 q 374 -9 532 -9 z "},"ś":{"ha":884,"x_min":25,"x_max":798,"o":"m 374 -9 q 183 18 275 -9 q 25 93 91 44 l 101 229 q 247 157 167 182 q 399 133 327 133 q 494 151 457 133 q 537 212 530 169 q 512 276 543 256 q 399 304 481 295 q 172 368 247 321 q 111 525 96 415 q 225 705 128 640 q 465 770 323 770 q 627 746 545 770 q 771 677 708 721 l 706 548 q 578 608 643 587 q 452 629 514 629 q 367 610 400 629 q 328 551 335 591 q 361 489 322 506 q 494 460 400 472 q 703 389 639 442 q 753 235 766 336 q 634 55 736 119 q 374 -9 532 -9 m 340 884 l 520 1136 l 798 1136 l 490 884 l 340 884 z "},"ŝ":{"ha":884,"x_min":25,"x_max":816,"o":"m 374 -9 q 183 18 275 -9 q 25 93 91 44 l 101 229 q 247 157 167 182 q 399 133 327 133 q 494 151 457 133 q 537 212 530 169 q 512 276 543 256 q 399 304 481 295 q 172 368 247 321 q 111 525 96 415 q 225 705 128 640 q 465 770 323 770 q 627 746 545 770 q 771 677 708 721 l 706 548 q 578 608 643 587 q 452 629 514 629 q 367 610 400 629 q 328 551 335 591 q 361 489 322 506 q 494 460 400 472 q 703 389 639 442 q 753 235 766 336 q 634 55 736 119 q 374 -9 532 -9 m 250 871 l 194 970 l 451 1167 l 612 1167 l 816 970 l 734 872 l 509 1009 l 250 871 z "},"ş":{"ha":884,"x_min":25,"x_max":771,"o":"m 374 -9 q 183 18 275 -9 q 25 93 91 44 l 101 229 q 247 157 167 182 q 399 133 327 133 q 494 151 457 133 q 537 212 530 169 q 512 276 543 256 q 399 304 481 295 q 172 368 247 321 q 111 525 96 415 q 225 705 128 640 q 465 770 323 770 q 627 746 545 770 q 771 677 708 721 l 706 548 q 578 608 643 587 q 452 629 514 629 q 367 610 400 629 q 328 551 335 591 q 361 489 322 506 q 494 460 400 472 q 703 389 639 442 q 753 235 766 336 q 634 55 736 119 q 374 -9 532 -9 m 322 0 l 355 53 q 504 8 446 43 q 549 -112 562 -28 q 456 -242 537 -203 q 280 -282 375 -282 q 106 -245 170 -282 q 48 -121 42 -208 l 231 -109 q 243 -142 230 -133 q 289 -152 256 -152 q 344 -138 324 -152 q 370 -81 364 -124 q 365 -27 375 -45 q 322 0 355 -9 z "},"š":{"ha":884,"x_min":25,"x_max":832,"o":"m 374 -9 q 183 18 275 -9 q 25 93 91 44 l 101 229 q 247 157 167 182 q 399 133 327 133 q 494 151 457 133 q 537 212 530 169 q 512 276 543 256 q 399 304 481 295 q 172 368 247 321 q 111 525 96 415 q 225 705 128 640 q 465 770 323 770 q 627 746 545 770 q 771 677 708 721 l 706 548 q 578 608 643 587 q 452 629 514 629 q 367 610 400 629 q 328 551 335 591 q 361 489 322 506 q 494 460 400 472 q 703 389 639 442 q 753 235 766 336 q 634 55 736 119 q 374 -9 532 -9 m 414 889 l 211 1086 l 293 1183 l 518 1047 l 777 1184 l 832 1086 l 576 889 l 414 889 z "},"ș":{"ha":884,"x_min":25,"x_max":771,"o":"m 374 -9 q 183 18 275 -9 q 25 93 91 44 l 101 229 q 247 157 167 182 q 399 133 327 133 q 494 151 457 133 q 537 212 530 169 q 512 276 543 256 q 399 304 481 295 q 172 368 247 321 q 111 525 96 415 q 225 705 128 640 q 465 770 323 770 q 627 746 545 770 q 771 677 708 721 l 706 548 q 578 608 643 587 q 452 629 514 629 q 367 610 400 629 q 328 551 335 591 q 361 489 322 506 q 494 460 400 472 q 703 389 639 442 q 753 235 766 336 q 634 55 736 119 q 374 -9 532 -9 m 106 -379 l 236 -126 l 514 -126 l 256 -379 l 106 -379 z "},"t":{"ha":884,"x_min":93,"x_max":811,"o":"m 505 -13 q 286 56 357 -13 q 234 256 215 125 l 282 600 l 93 600 l 115 758 l 303 758 l 338 1010 l 553 1010 l 518 758 l 811 758 l 789 600 l 496 600 l 452 284 q 470 180 442 212 q 556 148 497 148 q 632 153 591 148 q 715 173 673 158 l 718 18 q 630 -4 687 5 q 505 -13 573 -13 z "},"ţ":{"ha":884,"x_min":93,"x_max":811,"o":"m 505 -13 q 286 56 357 -13 q 234 256 215 125 l 282 600 l 93 600 l 115 758 l 303 758 l 338 1010 l 553 1010 l 518 758 l 811 758 l 789 600 l 496 600 l 452 284 q 470 180 442 212 q 556 148 497 148 q 632 153 591 148 q 715 173 673 158 l 718 18 q 630 -4 687 5 q 505 -13 573 -13 m 396 0 l 429 53 q 578 8 520 43 q 624 -112 636 -28 q 530 -242 611 -203 q 355 -282 449 -282 q 181 -245 245 -282 q 122 -121 116 -208 l 306 -109 q 318 -142 304 -133 q 364 -152 331 -152 q 419 -138 399 -152 q 444 -81 438 -124 q 439 -27 449 -45 q 396 0 429 -9 z "},"ť":{"ha":884,"x_min":93,"x_max":1024,"o":"m 505 -13 q 286 56 357 -13 q 234 256 215 125 l 282 600 l 93 600 l 115 758 l 303 758 l 338 1010 l 553 1010 l 518 758 l 811 758 l 789 600 l 496 600 l 452 284 q 470 180 442 212 q 556 148 497 148 q 632 153 591 148 q 715 173 673 158 l 718 18 q 630 -4 687 5 q 505 -13 573 -13 m 622 890 l 750 1263 l 1024 1263 l 749 890 l 622 890 z "},"ț":{"ha":884,"x_min":93,"x_max":811,"o":"m 505 -13 q 286 56 357 -13 q 234 256 215 125 l 282 600 l 93 600 l 115 758 l 303 758 l 338 1010 l 553 1010 l 518 758 l 811 758 l 789 600 l 496 600 l 452 284 q 470 180 442 212 q 556 148 497 148 q 632 153 591 148 q 715 173 673 158 l 718 18 q 630 -4 687 5 q 505 -13 573 -13 m 149 -379 l 279 -126 l 557 -126 l 299 -379 l 149 -379 z "},"u":{"ha":884,"x_min":35,"x_max":828,"o":"m 240 -13 q 91 49 146 -13 q 52 225 35 111 l 126 758 l 341 758 l 274 282 q 286 188 265 220 q 354 157 307 157 q 447 187 398 157 q 545 271 496 217 l 614 758 l 828 758 l 722 0 l 508 0 l 527 135 l 489 135 q 376 23 447 59 q 240 -13 304 -13 z "},"ù":{"ha":884,"x_min":35,"x_max":828,"o":"m 240 -13 q 91 49 146 -13 q 52 225 35 111 l 126 758 l 341 758 l 274 282 q 286 188 265 220 q 354 157 307 157 q 447 187 398 157 q 545 271 496 217 l 614 758 l 828 758 l 722 0 l 508 0 l 527 135 l 489 135 q 376 23 447 59 q 240 -13 304 -13 m 476 884 l 239 1136 l 516 1136 l 626 884 l 476 884 z "},"ú":{"ha":884,"x_min":35,"x_max":851,"o":"m 240 -13 q 91 49 146 -13 q 52 225 35 111 l 126 758 l 341 758 l 274 282 q 286 188 265 220 q 354 157 307 157 q 447 187 398 157 q 545 271 496 217 l 614 758 l 828 758 l 722 0 l 508 0 l 527 135 l 489 135 q 376 23 447 59 q 240 -13 304 -13 m 393 884 l 573 1136 l 851 1136 l 543 884 l 393 884 z "},"û":{"ha":884,"x_min":35,"x_max":828,"o":"m 240 -13 q 91 49 146 -13 q 52 225 35 111 l 126 758 l 341 758 l 274 282 q 286 188 265 220 q 354 157 307 157 q 447 187 398 157 q 545 271 496 217 l 614 758 l 828 758 l 722 0 l 508 0 l 527 135 l 489 135 q 376 23 447 59 q 240 -13 304 -13 m 261 871 l 206 970 l 462 1167 l 624 1167 l 827 970 l 745 872 l 520 1009 l 261 871 z "},"ü":{"ha":884,"x_min":35,"x_max":828,"o":"m 240 -13 q 91 49 146 -13 q 52 225 35 111 l 126 758 l 341 758 l 274 282 q 286 188 265 220 q 354 157 307 157 q 447 187 398 157 q 545 271 496 217 l 614 758 l 828 758 l 722 0 l 508 0 l 527 135 l 489 135 q 376 23 447 59 q 240 -13 304 -13 m 345 879 q 267 898 295 879 q 246 967 239 918 l 247 984 q 289 1055 255 1034 q 372 1076 323 1076 q 451 1055 423 1076 q 471 984 479 1034 l 470 967 q 428 898 462 918 q 345 879 394 879 m 663 879 q 584 898 612 879 q 563 967 556 918 l 564 984 q 606 1055 572 1034 q 691 1076 640 1076 q 768 1055 741 1076 q 788 984 795 1034 l 787 967 q 745 898 779 918 q 663 879 711 879 z "},"ũ":{"ha":884,"x_min":35,"x_max":836,"o":"m 240 -13 q 91 49 146 -13 q 52 225 35 111 l 126 758 l 341 758 l 274 282 q 286 188 265 220 q 354 157 307 157 q 447 187 398 157 q 545 271 496 217 l 614 758 l 828 758 l 722 0 l 508 0 l 527 135 l 489 135 q 376 23 447 59 q 240 -13 304 -13 m 612 896 q 527 917 557 896 q 480 960 497 937 q 447 1003 462 984 q 408 1023 432 1023 q 367 1003 386 1023 q 341 922 347 984 l 338 909 l 197 909 l 199 928 q 274 1098 215 1030 q 422 1167 333 1167 q 509 1147 480 1167 q 557 1104 539 1128 q 590 1059 574 1080 q 626 1039 605 1039 q 667 1059 648 1039 q 693 1141 686 1078 l 694 1153 l 836 1153 l 833 1134 q 760 965 819 1033 q 612 896 701 896 z "},"ū":{"ha":884,"x_min":35,"x_max":828,"o":"m 240 -13 q 91 49 146 -13 q 52 225 35 111 l 126 758 l 341 758 l 274 282 q 286 188 265 220 q 354 157 307 157 q 447 187 398 157 q 545 271 496 217 l 614 758 l 828 758 l 722 0 l 508 0 l 527 135 l 489 135 q 376 23 447 59 q 240 -13 304 -13 m 226 927 l 250 1093 l 801 1093 l 777 927 l 226 927 z "},"ŭ":{"ha":884,"x_min":35,"x_max":869,"o":"m 240 -13 q 91 49 146 -13 q 52 225 35 111 l 126 758 l 341 758 l 274 282 q 286 188 265 220 q 354 157 307 157 q 447 187 398 157 q 545 271 496 217 l 614 758 l 828 758 l 722 0 l 508 0 l 527 135 l 489 135 q 376 23 447 59 q 240 -13 304 -13 m 503 875 q 273 945 346 875 q 220 1167 199 1015 l 399 1167 q 417 1045 388 1080 q 521 1010 446 1010 q 636 1045 597 1010 q 689 1167 676 1080 l 869 1167 q 753 945 846 1015 q 503 875 659 875 z "},"ů":{"ha":884,"x_min":35,"x_max":828,"o":"m 240 -13 q 91 49 146 -13 q 52 225 35 111 l 126 758 l 341 758 l 274 282 q 286 188 265 220 q 354 157 307 157 q 447 187 398 157 q 545 271 496 217 l 614 758 l 828 758 l 722 0 l 508 0 l 527 135 l 489 135 q 376 23 447 59 q 240 -13 304 -13 m 500 856 q 329 903 390 856 q 282 1048 268 949 l 287 1088 q 376 1235 301 1187 q 561 1284 451 1284 q 732 1235 672 1284 q 779 1088 793 1187 l 774 1048 q 685 903 760 949 q 500 856 610 856 m 515 963 q 588 982 562 963 q 622 1048 615 1001 l 628 1088 q 613 1155 634 1134 q 545 1177 592 1177 q 472 1155 499 1177 q 438 1088 444 1134 l 433 1048 q 447 982 426 1001 q 515 963 468 963 z "},"ű":{"ha":884,"x_min":35,"x_max":883,"o":"m 240 -13 q 91 49 146 -13 q 52 225 35 111 l 126 758 l 341 758 l 274 282 q 286 188 265 220 q 354 157 307 157 q 447 187 398 157 q 545 271 496 217 l 614 758 l 828 758 l 722 0 l 508 0 l 527 135 l 489 135 q 376 23 447 59 q 240 -13 304 -13 m 564 884 l 662 1136 l 883 1136 l 681 884 l 564 884 m 274 884 l 371 1136 l 592 1136 l 390 884 l 274 884 z "},"ų":{"ha":884,"x_min":35,"x_max":828,"o":"m 612 -279 q 460 -239 514 -279 q 418 -121 407 -199 q 496 11 428 -44 q 636 86 563 66 l 662 29 q 600 -23 615 3 q 582 -73 586 -49 q 598 -122 577 -106 q 667 -139 619 -139 q 721 -136 689 -139 q 785 -126 753 -133 l 766 -264 q 686 -275 726 -271 q 612 -279 646 -279 m 240 -13 q 91 49 146 -13 q 52 225 35 111 l 126 758 l 341 758 l 274 282 q 286 188 265 220 q 354 157 307 157 q 447 187 398 157 q 545 271 496 217 l 614 758 l 828 758 l 722 0 l 508 0 l 527 135 l 489 135 q 376 23 447 59 q 240 -13 304 -13 z "},"v":{"ha":884,"x_min":102,"x_max":851,"o":"m 511 0 l 230 0 l 102 758 l 309 758 l 399 167 l 652 758 l 851 758 l 511 0 z "},"w":{"ha":884,"x_min":58,"x_max":896,"o":"m 473 0 l 428 400 l 274 0 l 77 0 l 58 758 l 244 758 l 239 215 l 383 622 l 529 622 l 569 227 l 711 758 l 896 758 l 665 0 l 473 0 z "},"":{"ha":884,"x_min":58,"x_max":896,"o":"m 473 0 l 428 400 l 274 0 l 77 0 l 58 758 l 244 758 l 239 215 l 383 622 l 529 622 l 569 227 l 711 758 l 896 758 l 665 0 l 473 0 z "},"ŵ":{"ha":884,"x_min":58,"x_max":896,"o":"m 473 0 l 428 400 l 274 0 l 77 0 l 58 758 l 244 758 l 239 215 l 383 622 l 529 622 l 569 227 l 711 758 l 896 758 l 665 0 l 473 0 m 261 871 l 206 970 l 462 1167 l 624 1167 l 827 970 l 745 872 l 520 1009 l 261 871 z "},"ẁ":{"ha":884,"x_min":58,"x_max":896,"o":"m 473 0 l 428 400 l 274 0 l 77 0 l 58 758 l 244 758 l 239 215 l 383 622 l 529 622 l 569 227 l 711 758 l 896 758 l 665 0 l 473 0 m 479 884 l 241 1136 l 519 1136 l 629 884 l 479 884 z "},"ẃ":{"ha":884,"x_min":58,"x_max":896,"o":"m 473 0 l 428 400 l 274 0 l 77 0 l 58 758 l 244 758 l 239 215 l 383 622 l 529 622 l 569 227 l 711 758 l 896 758 l 665 0 l 473 0 m 378 884 l 558 1136 l 836 1136 l 528 884 l 378 884 z "},"ẅ":{"ha":884,"x_min":58,"x_max":896,"o":"m 473 0 l 428 400 l 274 0 l 77 0 l 58 758 l 244 758 l 239 215 l 383 622 l 529 622 l 569 227 l 711 758 l 896 758 l 665 0 l 473 0 m 345 879 q 267 898 295 879 q 246 967 239 918 l 247 984 q 289 1055 255 1034 q 372 1076 323 1076 q 451 1055 423 1076 q 471 984 479 1034 l 470 967 q 428 898 462 918 q 345 879 394 879 m 663 879 q 584 898 612 879 q 563 967 556 918 l 564 984 q 606 1055 572 1034 q 691 1076 640 1076 q 768 1055 741 1076 q 788 984 795 1034 l 787 967 q 745 898 779 918 q 663 879 711 879 z "},"x":{"ha":884,"x_min":-6,"x_max":837,"o":"m 525 0 l 395 244 l 210 0 l -6 0 l 319 385 l 117 758 l 336 758 l 455 538 l 621 758 l 837 758 l 534 393 l 746 0 l 525 0 z "},"y":{"ha":884,"x_min":-44,"x_max":869,"o":"m 129 -265 q 47 -261 90 -265 q -44 -251 5 -258 l -6 -93 q 78 -107 42 -102 q 144 -112 115 -112 q 254 -83 212 -112 q 331 27 295 -53 l 335 35 l 208 35 l 85 758 l 306 758 l 394 169 l 657 758 l 869 758 l 518 6 q 359 -205 447 -144 q 129 -265 270 -265 z "},"":{"ha":884,"x_min":-44,"x_max":869,"o":"m 129 -265 q 47 -261 90 -265 q -44 -251 5 -258 l -6 -93 q 78 -107 42 -102 q 144 -112 115 -112 q 254 -83 212 -112 q 331 27 295 -53 l 335 35 l 208 35 l 85 758 l 306 758 l 394 169 l 657 758 l 869 758 l 518 6 q 359 -205 447 -144 q 129 -265 270 -265 z "},"ý":{"ha":884,"x_min":-44,"x_max":869,"o":"m 129 -265 q 47 -261 90 -265 q -44 -251 5 -258 l -6 -93 q 78 -107 42 -102 q 144 -112 115 -112 q 254 -83 212 -112 q 331 27 295 -53 l 335 35 l 208 35 l 85 758 l 306 758 l 394 169 l 657 758 l 869 758 l 518 6 q 359 -205 447 -144 q 129 -265 270 -265 m 333 884 l 514 1136 l 792 1136 l 484 884 l 333 884 z "},"ÿ":{"ha":884,"x_min":-44,"x_max":869,"o":"m 129 -265 q 47 -261 90 -265 q -44 -251 5 -258 l -6 -93 q 78 -107 42 -102 q 144 -112 115 -112 q 254 -83 212 -112 q 331 27 295 -53 l 335 35 l 208 35 l 85 758 l 306 758 l 394 169 l 657 758 l 869 758 l 518 6 q 359 -205 447 -144 q 129 -265 270 -265 m 336 879 q 258 898 287 879 q 237 967 230 918 l 239 984 q 280 1055 246 1034 q 364 1076 314 1076 q 442 1055 414 1076 q 462 984 470 1034 l 461 967 q 419 898 453 918 q 336 879 385 879 m 654 879 q 575 898 604 879 q 554 967 547 918 l 556 984 q 597 1055 563 1034 q 682 1076 631 1076 q 759 1055 732 1076 q 779 984 787 1034 l 778 967 q 736 898 770 918 q 654 879 702 879 z "},"ŷ":{"ha":884,"x_min":-44,"x_max":869,"o":"m 129 -265 q 47 -261 90 -265 q -44 -251 5 -258 l -6 -93 q 78 -107 42 -102 q 144 -112 115 -112 q 254 -83 212 -112 q 331 27 295 -53 l 335 35 l 208 35 l 85 758 l 306 758 l 394 169 l 657 758 l 869 758 l 518 6 q 359 -205 447 -144 q 129 -265 270 -265 m 253 871 l 197 970 l 453 1167 l 615 1167 l 818 970 l 736 872 l 511 1009 l 253 871 z "},"ỳ":{"ha":884,"x_min":-44,"x_max":869,"o":"m 129 -265 q 47 -261 90 -265 q -44 -251 5 -258 l -6 -93 q 78 -107 42 -102 q 144 -112 115 -112 q 254 -83 212 -112 q 331 27 295 -53 l 335 35 l 208 35 l 85 758 l 306 758 l 394 169 l 657 758 l 869 758 l 518 6 q 359 -205 447 -144 q 129 -265 270 -265 m 479 884 l 241 1136 l 519 1136 l 629 884 l 479 884 z "},"z":{"ha":884,"x_min":37,"x_max":812,"o":"m 706 0 l 37 0 l 59 158 l 561 600 l 121 600 l 143 758 l 812 758 l 790 600 l 290 158 l 729 158 l 706 0 z "},"ź":{"ha":884,"x_min":37,"x_max":836,"o":"m 706 0 l 37 0 l 59 158 l 561 600 l 121 600 l 143 758 l 812 758 l 790 600 l 290 158 l 729 158 l 706 0 m 378 884 l 558 1136 l 836 1136 l 528 884 l 378 884 z "},"ż":{"ha":884,"x_min":37,"x_max":812,"o":"m 706 0 l 37 0 l 59 158 l 561 600 l 121 600 l 143 758 l 812 758 l 790 600 l 290 158 l 729 158 l 706 0 m 486 879 q 384 898 422 879 q 354 967 346 918 l 355 984 q 406 1055 362 1034 q 514 1076 449 1076 q 616 1055 578 1076 q 645 984 653 1034 l 644 967 q 593 898 636 918 q 486 879 551 879 z "},"ž":{"ha":884,"x_min":37,"x_max":835,"o":"m 706 0 l 37 0 l 59 158 l 561 600 l 121 600 l 143 758 l 812 758 l 790 600 l 290 158 l 729 158 l 706 0 m 417 889 l 213 1086 l 295 1183 l 520 1047 l 779 1184 l 835 1086 l 578 889 l 417 889 z "},"ª":{"ha":884,"x_min":92,"x_max":826,"o":"m 364 490 q 446 502 405 490 q 521 539 486 514 l 534 633 l 376 633 q 312 617 336 633 q 282 558 288 602 q 295 508 277 525 q 364 490 314 490 m 306 371 q 158 414 225 371 q 105 547 92 456 q 190 686 117 639 q 371 734 263 734 l 549 734 l 557 790 q 540 870 564 846 q 461 894 515 894 q 377 876 409 894 q 321 801 345 857 l 160 828 q 271 977 196 932 q 482 1023 347 1023 q 687 971 617 1023 q 740 795 756 919 l 711 592 q 732 521 702 534 q 826 516 763 509 l 808 385 q 664 384 722 369 q 590 476 605 400 l 561 476 q 453 402 523 432 q 306 371 384 371 z "},"º":{"ha":884,"x_min":134,"x_max":804,"o":"m 423 371 q 213 431 292 371 q 150 612 134 490 l 174 778 q 288 962 191 902 q 516 1023 385 1023 q 726 962 648 1023 q 788 778 804 902 l 764 612 q 651 431 747 490 q 423 371 554 371 m 442 506 q 542 534 509 506 q 582 624 574 562 l 604 774 q 587 859 611 831 q 496 888 563 888 q 396 859 429 888 q 356 773 364 830 l 335 624 q 351 534 327 562 q 442 506 375 506 z "},"ß":{"ha":884,"x_min":-52,"x_max":822,"o":"m 506 -8 q 374 15 442 -8 q 266 80 307 38 l 342 207 q 423 148 380 169 q 514 128 466 128 q 585 145 554 128 q 620 201 615 163 q 586 263 626 244 q 487 302 545 282 q 371 374 415 330 q 337 501 326 419 q 415 652 350 593 q 578 722 480 710 q 547 832 585 801 q 453 864 510 864 q 350 826 399 864 q 288 702 301 789 l 154 -253 l -52 -253 l 85 720 q 211 943 105 866 q 477 1020 318 1020 q 713 931 631 1020 q 774 703 794 842 l 763 619 q 588 599 641 620 q 529 535 534 578 q 566 470 523 490 q 672 428 610 451 q 783 352 744 400 q 811 222 822 304 q 708 53 795 114 q 506 -8 621 -8 z "},"æ":{"ha":884,"x_min":-28,"x_max":872,"o":"m 811 189 q 709 39 774 90 q 548 -13 644 -13 q 440 16 484 -13 q 378 101 396 44 l 343 101 q 267 18 316 49 q 154 -13 218 -13 q 20 42 68 -13 q -14 199 -28 96 q 72 367 3 311 q 241 423 141 423 l 362 423 l 374 506 q 367 595 383 568 q 311 621 351 621 q 253 599 273 621 q 203 513 232 577 l 53 544 q 158 715 93 659 q 322 770 223 770 q 418 748 379 770 q 473 676 457 726 q 561 746 510 722 q 669 770 612 770 q 820 701 768 770 q 852 487 872 631 l 831 336 l 513 336 l 501 251 q 506 158 492 191 q 559 126 519 126 q 619 147 596 126 q 659 215 643 168 l 811 189 m 538 510 l 529 449 l 689 449 l 697 504 q 693 605 707 574 q 638 636 678 636 q 573 607 598 636 q 538 510 547 577 m 328 176 l 346 309 l 266 309 q 198 288 223 309 q 164 212 172 266 q 171 146 158 169 q 220 122 184 122 q 273 137 247 122 q 328 176 299 152 z "},"ǽ":{"ha":884,"x_min":-28,"x_max":890,"o":"m 811 189 q 709 39 774 90 q 548 -13 644 -13 q 440 16 484 -13 q 378 101 396 44 l 343 101 q 267 18 316 49 q 154 -13 218 -13 q 20 42 68 -13 q -14 199 -28 96 q 72 367 3 311 q 241 423 141 423 l 362 423 l 374 506 q 367 595 383 568 q 311 621 351 621 q 253 599 273 621 q 203 513 232 577 l 53 544 q 158 715 93 659 q 322 770 223 770 q 418 748 379 770 q 473 676 457 726 q 561 746 510 722 q 669 770 612 770 q 820 701 768 770 q 852 487 872 631 l 831 336 l 513 336 l 501 251 q 506 158 492 191 q 559 126 519 126 q 619 147 596 126 q 659 215 643 168 l 811 189 m 538 510 l 529 449 l 689 449 l 697 504 q 693 605 707 574 q 638 636 678 636 q 573 607 598 636 q 538 510 547 577 m 328 176 l 346 309 l 266 309 q 198 288 223 309 q 164 212 172 266 q 171 146 158 169 q 220 122 184 122 q 273 137 247 122 q 328 176 299 152 m 432 884 l 612 1136 l 890 1136 l 582 884 l 432 884 z "},"ð":{"ha":884,"x_min":30,"x_max":848,"o":"m 370 -13 q 119 61 208 -13 q 52 287 30 135 l 62 360 q 170 558 80 485 q 388 631 260 631 q 514 604 467 631 q 576 538 561 576 l 602 538 q 588 674 607 617 q 525 770 568 730 l 295 673 l 312 792 l 415 835 q 336 867 380 852 q 240 896 292 883 l 380 1037 q 523 988 460 1015 q 633 928 586 961 l 848 1019 l 832 900 l 718 852 q 795 688 777 783 q 797 467 814 592 l 773 294 q 641 61 750 134 q 370 -13 532 -13 m 393 145 q 508 177 471 145 q 556 275 545 210 l 566 355 q 546 443 574 414 q 439 472 518 472 q 323 443 360 472 q 278 355 287 414 l 268 275 q 285 177 258 210 q 393 145 313 145 z "},"ø":{"ha":884,"x_min":29,"x_max":819,"o":"m 249 288 q 246 234 245 258 q 256 193 247 211 l 524 614 q 494 619 511 617 q 458 621 477 621 q 328 583 370 621 q 275 472 285 545 l 249 288 m 390 136 q 521 172 479 136 q 574 288 563 208 l 601 475 q 603 525 605 503 q 593 563 601 547 l 323 143 q 355 138 338 140 q 390 136 371 136 m 370 -13 q 310 -9 341 -13 q 254 -1 279 -6 l 173 -126 l 29 -126 l 139 45 q 63 141 87 81 q 49 274 39 201 l 78 479 q 206 694 98 617 q 481 770 314 770 q 539 767 509 770 q 595 759 569 764 l 676 884 l 819 884 l 710 712 q 785 616 761 677 q 798 479 809 554 l 769 274 q 643 62 750 136 q 370 -13 535 -13 z "},"ǿ":{"ha":884,"x_min":29,"x_max":836,"o":"m 249 288 q 246 234 245 258 q 256 193 247 211 l 524 614 q 494 619 511 617 q 458 621 477 621 q 328 583 370 621 q 275 472 285 545 l 249 288 m 390 136 q 521 172 479 136 q 574 288 563 208 l 601 475 q 603 525 605 503 q 593 563 601 547 l 323 143 q 355 138 338 140 q 390 136 371 136 m 370 -13 q 310 -9 341 -13 q 254 -1 279 -6 l 173 -126 l 29 -126 l 139 45 q 63 141 87 81 q 49 274 39 201 l 78 479 q 206 694 98 617 q 481 770 314 770 q 539 767 509 770 q 595 759 569 764 l 676 884 l 819 884 l 710 712 q 785 616 761 677 q 798 479 809 554 l 769 274 q 643 62 750 136 q 370 -13 535 -13 m 378 884 l 558 1136 l 836 1136 l 528 884 l 378 884 z "},"þ":{"ha":884,"x_min":-15,"x_max":811,"o":"m 391 148 q 498 179 460 148 q 547 278 537 210 l 574 473 q 559 571 583 539 q 485 602 535 602 q 399 581 442 602 q 308 518 356 561 l 261 184 q 321 157 292 165 q 391 148 351 148 m 404 -9 q 316 -1 359 -9 q 237 21 273 8 l 199 -253 l -15 -253 l 162 1010 l 376 1010 l 322 622 l 360 622 q 465 731 399 692 q 607 770 530 770 q 760 699 710 770 q 793 508 811 628 l 761 277 q 646 68 742 145 q 404 -9 551 -9 z "},"đ":{"ha":884,"x_min":40,"x_max":973,"o":"m 364 157 q 449 177 407 157 q 542 240 492 198 l 577 491 q 511 521 544 511 q 437 530 477 530 q 338 499 375 530 q 292 399 302 468 l 277 289 q 290 189 268 221 q 364 157 313 157 m 489 135 q 391 31 453 74 q 242 -13 330 -13 q 88 64 135 -13 q 56 250 40 140 l 77 400 q 191 609 95 532 q 433 686 287 686 q 521 677 479 686 q 600 654 563 669 l 616 769 l 399 769 l 415 888 l 633 888 l 649 1010 l 864 1010 l 847 888 l 973 888 l 957 769 l 831 769 l 722 0 l 508 0 l 527 135 l 489 135 z "},"ħ":{"ha":884,"x_min":3,"x_max":802,"o":"m 292 405 l 235 0 l 20 0 l 129 769 l 3 769 l 19 888 l 145 888 l 162 1010 l 376 1010 l 360 888 l 577 888 l 561 769 l 343 769 l 311 542 l 348 542 q 456 650 388 610 q 601 689 524 689 q 750 626 698 689 q 787 461 802 563 l 722 0 l 508 0 l 564 403 q 551 491 572 461 q 484 521 530 521 q 390 491 439 521 q 292 405 341 460 z "},"ı":{"ha":884,"x_min":29,"x_max":736,"o":"m 29 0 l 52 158 l 287 158 l 348 600 l 114 600 l 135 758 l 585 758 l 501 158 l 736 158 l 713 0 l 29 0 z "},"ĳ":{"ha":884,"x_min":28,"x_max":895,"o":"m 242 879 q 146 898 181 879 q 119 967 111 918 l 120 984 q 168 1055 128 1034 q 270 1076 208 1076 q 366 1055 332 1076 q 393 984 400 1034 l 391 967 q 343 898 384 918 q 242 879 302 879 m 736 879 q 640 898 676 879 q 612 967 605 918 l 614 984 q 662 1055 621 1034 q 764 1076 703 1076 q 860 1055 826 1076 q 888 984 895 1034 l 886 967 q 838 898 879 918 q 736 879 797 879 m 225 0 l 28 0 l 134 758 l 331 758 l 225 0 m 378 -264 q 283 -258 331 -264 q 191 -236 236 -251 l 236 -88 q 309 -107 275 -101 q 374 -114 342 -114 q 476 -83 436 -114 q 527 16 516 -53 l 609 600 l 446 600 l 467 758 l 827 758 l 721 -4 q 610 -196 703 -129 q 378 -264 516 -264 z "},"ĸ":{"ha":884,"x_min":48,"x_max":856,"o":"m 308 319 l 263 0 l 48 0 l 154 758 l 369 758 l 328 467 l 380 467 l 629 758 l 856 758 l 551 414 l 746 0 l 515 0 l 360 319 l 308 319 z "},"ŀ":{"ha":884,"x_min":38,"x_max":1097,"o":"m 38 0 l 61 158 l 304 158 l 402 852 l 158 852 l 179 1010 l 638 1010 l 519 158 l 754 158 l 731 0 l 38 0 m 931 409 q 828 429 866 409 q 798 497 790 448 l 799 514 q 850 585 807 564 q 958 606 894 606 q 1060 585 1023 606 q 1090 514 1097 564 l 1088 497 q 1038 429 1081 448 q 931 409 995 409 z "},"ł":{"ha":884,"x_min":38,"x_max":754,"o":"m 38 0 l 61 158 l 304 158 l 341 418 l 135 365 l 154 501 l 360 554 l 402 852 l 158 852 l 179 1010 l 638 1010 l 582 612 l 723 649 l 705 513 l 563 476 l 519 158 l 754 158 l 731 0 l 38 0 z "},"ŉ":{"ha":884,"x_min":18,"x_max":813,"o":"m 20 0 l 126 758 l 341 758 l 322 622 l 360 622 q 468 731 399 692 q 619 770 537 770 q 766 707 718 770 q 797 533 813 644 l 722 0 l 508 0 l 577 494 q 563 574 585 547 q 495 602 542 602 q 401 577 452 602 q 306 504 350 552 l 235 0 l 20 0 m 18 884 l 198 1136 l 476 1136 l 168 884 l 18 884 z "},"ŋ":{"ha":884,"x_min":20,"x_max":814,"o":"m 395 -264 q 311 -256 354 -264 q 230 -236 269 -249 l 275 -88 q 336 -107 308 -100 q 391 -114 365 -114 q 469 -83 438 -114 q 510 16 500 -53 l 578 501 q 563 577 585 552 q 495 602 542 602 q 402 578 451 602 q 306 504 352 553 l 235 0 l 20 0 l 126 758 l 341 758 l 322 622 l 360 622 q 476 734 404 698 q 620 770 548 770 q 766 711 717 770 q 798 542 814 652 l 722 -4 q 607 -202 702 -140 q 395 -264 511 -264 z "},"œ":{"ha":884,"x_min":-11,"x_max":860,"o":"m 804 186 q 707 31 769 74 q 547 -13 645 -13 q 442 10 487 -13 q 375 77 396 33 q 295 9 341 32 q 196 -13 249 -13 q 44 49 98 -13 q 8 239 -11 111 l 45 514 q 137 707 64 644 q 307 770 210 770 q 398 748 359 770 q 458 681 438 726 q 544 748 494 726 q 650 770 593 770 q 804 710 749 770 q 842 523 860 649 l 816 336 l 503 336 l 486 216 q 495 149 480 172 q 549 126 510 126 q 617 141 590 126 q 658 211 645 157 l 804 186 m 533 545 l 519 449 l 654 449 l 665 534 q 662 612 673 588 q 612 636 650 636 q 558 615 577 636 q 533 545 539 593 m 239 141 q 294 167 274 141 q 321 253 313 193 l 357 510 q 353 590 365 563 q 306 616 341 616 q 251 589 270 616 q 222 508 231 562 l 187 253 q 191 167 179 193 q 239 141 203 141 z "},"ŧ":{"ha":884,"x_min":87,"x_max":811,"o":"m 505 -13 q 286 56 357 -13 q 234 256 215 125 l 242 327 l 87 327 l 107 467 l 263 467 l 282 600 l 93 600 l 115 758 l 303 758 l 338 1010 l 553 1010 l 518 758 l 811 758 l 789 600 l 496 600 l 477 467 l 741 467 l 721 327 l 457 327 l 452 284 q 470 180 442 212 q 556 148 497 148 q 632 153 591 148 q 715 173 673 158 l 718 18 q 630 -4 687 5 q 505 -13 573 -13 z "},"ſ":{"ha":884,"x_min":197,"x_max":885,"o":"m 229 -253 l 348 600 l 197 600 l 218 758 l 370 758 l 376 801 q 486 981 393 914 q 712 1048 580 1048 q 801 1040 755 1048 q 885 1018 847 1032 l 840 875 q 777 893 808 886 q 717 899 746 899 q 631 873 665 899 q 588 785 597 847 l 443 -253 l 229 -253 z "},"ȷ":{"ha":884,"x_min":-20,"x_max":702,"o":"m 201 -264 q 89 -258 145 -264 q -20 -236 33 -253 l 25 -88 q 115 -109 72 -104 q 197 -114 158 -114 q 324 -83 275 -114 q 384 16 374 -53 l 466 600 l 140 600 l 162 758 l 702 758 l 596 -4 q 472 -196 578 -129 q 201 -264 365 -264 z "},"":{"ha":884,"x_min":-20,"x_max":702,"o":"m 201 -264 q 89 -258 145 -264 q -20 -236 33 -253 l 25 -88 q 115 -109 72 -104 q 197 -114 158 -114 q 324 -83 275 -114 q 384 16 374 -53 l 466 600 l 140 600 l 162 758 l 702 758 l 596 -4 q 472 -196 578 -129 q 201 -264 365 -264 z "},"α":{"ha":884,"x_min":34,"x_max":797,"o":"m 347 157 q 420 179 384 157 q 495 241 457 201 l 534 519 q 475 581 505 558 q 407 604 446 604 q 336 571 365 604 q 298 471 308 538 l 271 283 q 283 186 263 216 q 347 157 303 157 m 553 158 l 515 158 q 398 32 467 76 q 244 -11 328 -11 q 86 59 139 -11 q 52 251 34 129 l 86 490 q 173 693 102 615 q 336 771 244 771 q 447 735 404 771 q 510 624 490 698 l 548 624 l 567 758 l 782 758 l 710 246 q 722 167 702 184 q 797 157 742 149 l 775 4 q 612 17 667 -19 q 553 158 558 53 z "},"ά":{"ha":884,"x_min":34,"x_max":835,"o":"m 347 157 q 420 179 384 157 q 495 241 457 201 l 534 519 q 475 581 505 558 q 407 604 446 604 q 336 571 365 604 q 298 471 308 538 l 271 283 q 283 186 263 216 q 347 157 303 157 m 553 158 l 515 158 q 398 32 467 76 q 244 -11 328 -11 q 86 59 139 -11 q 52 251 34 129 l 86 490 q 173 693 102 615 q 336 771 244 771 q 447 735 404 771 q 510 624 490 698 l 548 624 l 567 758 l 782 758 l 710 246 q 722 167 702 184 q 797 157 742 149 l 775 4 q 612 17 667 -19 q 553 158 558 53 m 465 884 l 569 1136 l 835 1136 l 602 884 l 465 884 z "},"β":{"ha":884,"x_min":-15,"x_max":807,"o":"m 389 152 q 491 184 447 152 q 547 297 535 217 l 552 332 q 531 443 563 412 q 429 473 499 473 l 384 473 l 402 602 l 439 602 q 530 628 497 602 q 569 711 562 653 l 573 734 q 557 828 582 799 q 471 856 532 856 q 377 821 409 856 q 335 710 345 785 l 261 191 q 319 162 288 172 q 389 152 350 152 m 404 -13 q 314 -5 357 -13 q 237 15 271 3 l 199 -253 l -15 -253 l 122 723 q 242 946 143 870 q 495 1023 342 1023 q 726 956 645 1023 q 790 774 807 890 l 787 750 q 725 629 777 677 q 580 566 673 582 l 574 529 q 727 462 677 519 q 766 314 778 405 l 760 268 q 641 59 741 131 q 404 -13 542 -13 z "},"γ":{"ha":884,"x_min":85,"x_max":869,"o":"m 465 -253 l 207 -253 l 268 25 l 85 758 l 303 758 l 400 201 l 653 758 l 869 758 l 482 25 l 465 -253 z "},"δ":{"ha":884,"x_min":39,"x_max":793,"o":"m 370 -13 q 122 61 205 -13 q 58 274 39 134 l 74 390 q 133 516 85 462 q 274 606 182 569 q 183 681 207 640 q 168 784 159 721 q 270 956 184 902 q 509 1010 356 1010 l 760 1010 l 739 852 l 487 852 q 408 839 436 852 q 374 784 380 826 q 400 734 370 754 q 549 672 431 713 q 741 561 688 622 q 777 385 793 500 l 760 274 q 638 61 741 134 q 370 -13 535 -13 m 391 145 q 498 176 460 145 q 545 274 537 206 l 562 385 q 540 483 571 449 q 405 553 509 516 q 328 490 359 529 q 289 390 298 451 l 273 274 q 294 176 264 206 q 391 145 324 145 z "},"ε":{"ha":884,"x_min":25,"x_max":806,"o":"m 383 -13 q 109 39 193 -13 q 40 201 25 91 l 44 222 q 107 327 52 283 q 263 378 163 371 l 266 405 q 145 446 187 410 q 111 543 104 481 l 115 569 q 229 723 130 676 q 492 770 327 770 q 731 711 657 770 q 795 525 806 653 l 598 515 q 574 606 601 578 q 473 634 548 634 q 367 615 400 634 q 328 553 333 596 l 326 535 q 347 472 318 489 q 447 456 375 456 l 518 456 l 501 337 l 431 337 q 302 314 336 337 q 261 244 268 290 l 260 231 q 282 158 253 183 q 403 133 311 133 q 536 164 503 133 q 586 256 569 194 l 780 247 q 667 52 753 117 q 383 -13 581 -13 z "},"έ":{"ha":884,"x_min":25,"x_max":806,"o":"m 383 -13 q 109 39 193 -13 q 40 201 25 91 l 44 222 q 107 327 52 283 q 263 378 163 371 l 266 405 q 145 446 187 410 q 111 543 104 481 l 115 569 q 229 723 130 676 q 492 770 327 770 q 731 711 657 770 q 795 525 806 653 l 598 515 q 574 606 601 578 q 473 634 548 634 q 367 615 400 634 q 328 553 333 596 l 326 535 q 347 472 318 489 q 447 456 375 456 l 518 456 l 501 337 l 431 337 q 302 314 336 337 q 261 244 268 290 l 260 231 q 282 158 253 183 q 403 133 311 133 q 536 164 503 133 q 586 256 569 194 l 780 247 q 667 52 753 117 q 383 -13 581 -13 m 402 884 l 506 1136 l 771 1136 l 539 884 l 402 884 z "},"ζ":{"ha":884,"x_min":47,"x_max":837,"o":"m 403 -253 l 237 -253 l 258 -104 l 424 -104 q 494 -89 467 -104 q 528 -30 521 -74 q 511 32 534 16 q 446 48 489 48 l 356 48 q 117 121 188 48 q 64 323 47 194 q 129 492 78 424 q 275 649 179 561 l 418 784 l 414 803 q 210 829 289 775 q 95 1003 130 883 l 225 1071 q 343 946 264 976 q 561 947 422 915 l 830 1047 l 837 848 l 611 809 l 423 600 q 328 475 362 530 q 282 342 293 420 q 295 234 271 271 q 378 197 318 197 l 492 197 q 674 143 614 197 q 718 -23 735 88 q 619 -195 703 -138 q 403 -253 534 -253 z "},"η":{"ha":884,"x_min":20,"x_max":813,"o":"m 472 -253 l 578 501 q 563 577 585 552 q 495 602 542 602 q 402 578 451 602 q 306 504 352 553 l 235 0 l 20 0 l 126 758 l 341 758 l 322 622 l 360 622 q 468 730 399 691 q 621 770 538 770 q 766 710 720 770 q 798 542 813 649 l 687 -253 l 472 -253 z "},"ή":{"ha":884,"x_min":20,"x_max":824,"o":"m 472 -253 l 578 501 q 563 577 585 552 q 495 602 542 602 q 402 578 451 602 q 306 504 352 553 l 235 0 l 20 0 l 126 758 l 341 758 l 322 622 l 360 622 q 468 730 399 691 q 621 770 538 770 q 766 710 720 770 q 798 542 813 649 l 687 -253 l 472 -253 m 455 884 l 559 1136 l 824 1136 l 592 884 l 455 884 z "},"θ":{"ha":884,"x_min":39,"x_max":845,"o":"m 370 -13 q 124 63 210 -13 q 58 274 39 139 l 122 731 q 249 946 143 870 q 516 1023 355 1023 q 761 946 677 1023 q 824 731 845 870 l 760 274 q 636 63 741 139 q 370 -13 530 -13 m 328 725 l 308 582 l 598 582 l 619 727 q 600 830 629 795 q 492 865 571 865 q 376 829 414 865 q 328 725 337 793 m 391 145 q 508 179 470 145 q 557 288 547 213 l 578 442 l 288 442 l 266 288 q 285 179 256 213 q 391 145 313 145 z "},"ι":{"ha":884,"x_min":106,"x_max":741,"o":"m 544 -9 q 336 62 407 -9 q 282 250 265 134 l 331 600 l 106 600 l 128 758 l 567 758 l 501 284 q 518 188 491 220 q 600 157 544 157 q 669 164 635 157 q 729 182 702 172 l 741 28 q 640 1 689 10 q 544 -9 591 -9 z "},"ΐ":{"ha":884,"x_min":106,"x_max":867,"o":"m 544 -9 q 336 62 407 -9 q 282 250 265 134 l 331 600 l 106 600 l 128 758 l 567 758 l 501 284 q 518 188 491 220 q 600 157 544 157 q 669 164 635 157 q 729 182 702 172 l 741 28 q 640 1 689 10 q 544 -9 591 -9 m 379 884 l 472 1136 l 669 1136 l 501 884 l 379 884 m 216 875 q 148 895 173 875 q 130 963 124 914 l 133 980 q 170 1051 140 1030 q 244 1072 201 1072 q 313 1051 288 1072 q 330 980 337 1030 l 327 963 q 290 895 321 914 q 216 875 259 875 m 746 875 q 679 895 703 875 q 660 963 654 914 l 663 980 q 701 1051 670 1030 q 774 1072 731 1072 q 843 1051 818 1072 q 860 980 867 1030 l 857 963 q 820 895 851 914 q 746 875 789 875 z "},"ί":{"ha":884,"x_min":106,"x_max":756,"o":"m 544 -9 q 336 62 407 -9 q 282 250 265 134 l 331 600 l 106 600 l 128 758 l 567 758 l 501 284 q 518 188 491 220 q 600 157 544 157 q 669 164 635 157 q 729 182 702 172 l 741 28 q 640 1 689 10 q 544 -9 591 -9 m 386 884 l 491 1136 l 756 1136 l 524 884 l 386 884 z "},"ϊ":{"ha":884,"x_min":106,"x_max":780,"o":"m 544 -9 q 336 62 407 -9 q 282 250 265 134 l 331 600 l 106 600 l 128 758 l 567 758 l 501 284 q 518 188 491 220 q 600 157 544 157 q 669 164 635 157 q 729 182 702 172 l 741 28 q 640 1 689 10 q 544 -9 591 -9 m 330 879 q 252 898 280 879 q 231 967 223 918 l 232 984 q 274 1055 240 1034 q 357 1076 308 1076 q 436 1055 408 1076 q 456 984 463 1034 l 455 967 q 413 898 447 918 q 330 879 379 879 m 648 879 q 569 898 597 879 q 548 967 540 918 l 549 984 q 591 1055 557 1034 q 676 1076 625 1076 q 753 1055 726 1076 q 773 984 780 1034 l 771 967 q 730 898 764 918 q 648 879 696 879 z "},"κ":{"ha":884,"x_min":48,"x_max":856,"o":"m 308 319 l 263 0 l 48 0 l 154 758 l 369 758 l 328 467 l 380 467 l 629 758 l 856 758 l 551 414 l 746 0 l 515 0 l 360 319 l 308 319 z "},"λ":{"ha":884,"x_min":-21,"x_max":763,"o":"m 544 0 l 447 587 l 193 0 l -21 0 l 282 678 l 432 678 l 427 710 q 377 826 413 792 q 260 860 341 860 q 211 858 239 860 q 153 851 184 856 l 150 1009 q 225 1015 189 1013 q 294 1018 261 1018 q 516 964 441 1018 q 616 779 591 910 l 763 0 l 544 0 z "},"μ":{"ha":884,"x_min":-19,"x_max":793,"o":"m 247 25 l 221 -253 l -19 -253 l 33 25 l 135 758 l 350 758 l 282 274 q 299 186 274 212 q 362 160 323 160 q 434 178 403 160 q 497 229 466 196 l 572 758 l 787 758 l 715 246 q 725 167 707 184 q 793 157 742 150 l 771 4 q 634 9 681 -15 q 572 109 588 34 l 538 109 q 467 24 511 61 q 357 -13 422 -13 q 292 1 318 -13 q 250 42 266 14 l 247 25 z "},"ν":{"ha":884,"x_min":85,"x_max":869,"o":"m 481 0 l 260 0 l 85 758 l 302 758 l 420 184 q 568 477 508 323 q 657 758 629 630 l 869 758 q 711 354 816 544 q 481 0 607 163 z "},"ξ":{"ha":884,"x_min":53,"x_max":826,"o":"m 726 -23 q 628 -194 711 -136 q 402 -253 545 -253 l 254 -253 l 274 -104 l 423 -104 q 499 -89 470 -104 q 535 -30 529 -74 q 516 32 542 16 q 444 48 491 48 l 338 48 q 125 109 197 48 q 68 279 53 170 l 72 304 q 146 434 82 379 q 323 499 210 490 l 327 528 q 222 564 255 528 q 197 652 189 601 q 244 737 203 702 q 354 785 284 773 l 359 814 q 174 862 241 813 q 85 1003 106 912 l 215 1071 q 331 955 253 984 q 542 951 410 926 l 818 1047 l 826 848 l 545 804 l 495 778 q 437 730 457 759 q 413 664 418 702 q 425 604 407 621 q 475 586 443 586 l 698 586 l 678 437 l 448 437 q 334 404 372 437 q 289 323 295 371 l 285 298 q 309 225 279 253 q 413 197 340 197 l 491 197 q 682 143 622 197 q 726 -23 742 88 z "},"ο":{"ha":884,"x_min":39,"x_max":808,"o":"m 370 -13 q 122 63 205 -13 q 58 274 39 139 l 87 479 q 211 693 107 616 q 481 770 314 770 q 727 692 646 770 q 789 475 808 614 l 760 270 q 638 62 741 136 q 370 -13 535 -13 m 391 145 q 499 178 462 145 q 547 283 537 211 l 573 471 q 556 578 585 544 q 457 612 528 612 q 349 578 386 612 q 302 472 312 544 l 275 288 q 293 179 265 213 q 391 145 321 145 z "},"ό":{"ha":884,"x_min":39,"x_max":808,"o":"m 370 -13 q 122 63 205 -13 q 58 274 39 139 l 87 479 q 211 693 107 616 q 481 770 314 770 q 727 692 646 770 q 789 475 808 614 l 760 270 q 638 62 741 136 q 370 -13 535 -13 m 391 145 q 499 178 462 145 q 547 283 537 211 l 573 471 q 556 578 585 544 q 457 612 528 612 q 349 578 386 612 q 302 472 312 544 l 275 288 q 293 179 265 213 q 391 145 321 145 m 384 884 l 489 1136 l 754 1136 l 521 884 l 384 884 z "},"π":{"ha":884,"x_min":38,"x_max":848,"o":"m 848 758 l 827 600 l 711 600 l 660 246 q 679 167 653 186 q 782 157 705 148 l 760 4 q 518 27 595 -24 q 458 203 441 77 l 514 600 l 335 600 l 250 0 l 53 0 l 138 600 l 38 600 l 59 758 l 848 758 z "},"ρ":{"ha":884,"x_min":-15,"x_max":809,"o":"m 422 157 q 507 190 475 157 q 548 289 539 223 l 574 480 q 555 579 585 548 q 461 610 525 610 q 352 579 393 610 q 302 480 312 548 l 269 240 q 344 177 306 198 q 422 157 383 157 m -15 -253 l 87 480 q 207 694 107 622 q 472 766 307 766 q 727 694 645 766 q 789 480 809 622 l 759 259 q 663 61 741 134 q 471 -13 585 -13 q 348 26 395 -13 q 292 135 302 64 l 254 135 l 199 -253 l -15 -253 z "},"ς":{"ha":884,"x_min":49,"x_max":783,"o":"m 230 -253 l 251 -95 l 418 -95 q 487 -81 461 -95 q 520 -27 514 -68 q 504 33 527 18 q 438 48 481 48 l 328 48 q 115 126 181 48 q 69 347 49 205 l 87 476 q 209 693 107 616 q 484 770 311 770 q 715 698 648 770 q 779 489 783 625 l 572 472 q 551 581 577 551 q 456 611 524 611 q 347 578 381 611 q 301 466 312 544 l 284 352 q 298 239 273 273 q 398 206 323 206 l 514 206 q 681 148 626 206 q 721 -18 736 91 q 612 -191 706 -129 q 369 -253 519 -253 l 230 -253 z "},"σ":{"ha":884,"x_min":39,"x_max":919,"o":"m 366 145 q 456 176 426 145 q 496 279 486 207 l 524 472 q 512 574 533 540 q 432 609 491 609 q 342 575 374 609 q 302 477 311 542 l 274 279 q 286 176 264 207 q 366 145 308 145 m 345 -13 q 117 62 194 -13 q 58 274 39 136 l 87 475 q 205 683 106 609 q 453 758 303 758 l 919 758 l 895 587 l 696 601 q 730 523 721 568 q 731 423 739 477 l 710 274 q 593 62 691 136 q 345 -13 495 -13 z "},"τ":{"ha":884,"x_min":95,"x_max":850,"o":"m 630 4 q 360 23 447 -28 q 293 203 274 74 l 347 591 l 95 591 l 117 758 l 850 758 l 827 591 l 562 591 l 513 246 q 535 165 505 184 q 652 157 564 146 l 630 4 z "},"υ":{"ha":884,"x_min":42,"x_max":828,"o":"m 371 -13 q 122 71 203 -13 q 63 304 42 154 l 126 758 l 341 758 l 279 311 q 294 191 266 227 q 393 154 321 154 q 502 191 465 154 q 551 308 539 227 l 614 758 l 828 758 l 765 304 q 641 71 744 154 q 371 -13 538 -13 z "},"ΰ":{"ha":884,"x_min":42,"x_max":880,"o":"m 371 -13 q 122 71 203 -13 q 63 304 42 154 l 126 758 l 341 758 l 279 311 q 294 191 266 227 q 393 154 321 154 q 502 191 465 154 q 551 308 539 227 l 614 758 l 828 758 l 765 304 q 641 71 744 154 q 371 -13 538 -13 m 391 884 l 485 1136 l 682 1136 l 514 884 l 391 884 m 229 875 q 161 895 186 875 q 143 963 136 914 l 145 980 q 183 1051 153 1030 q 256 1072 213 1072 q 325 1051 301 1072 q 342 980 350 1030 l 340 963 q 302 895 333 914 q 229 875 271 875 m 759 875 q 691 895 716 875 q 673 963 667 914 l 676 980 q 713 1051 683 1030 q 787 1072 744 1072 q 855 1051 831 1072 q 872 980 880 1030 l 870 963 q 833 895 864 914 q 759 875 802 875 z "},"ϋ":{"ha":884,"x_min":42,"x_max":828,"o":"m 371 -13 q 122 71 203 -13 q 63 304 42 154 l 126 758 l 341 758 l 279 311 q 294 191 266 227 q 393 154 321 154 q 502 191 465 154 q 551 308 539 227 l 614 758 l 828 758 l 765 304 q 641 71 744 154 q 371 -13 538 -13 m 336 879 q 258 898 287 879 q 237 967 230 918 l 239 984 q 280 1055 246 1034 q 364 1076 314 1076 q 442 1055 414 1076 q 462 984 470 1034 l 461 967 q 419 898 453 918 q 336 879 385 879 m 654 879 q 575 898 604 879 q 554 967 547 918 l 556 984 q 597 1055 563 1034 q 682 1076 631 1076 q 759 1055 732 1076 q 779 984 787 1034 l 778 967 q 736 898 770 918 q 654 879 702 879 z "},"ύ":{"ha":884,"x_min":42,"x_max":828,"o":"m 371 -13 q 122 71 203 -13 q 63 304 42 154 l 126 758 l 341 758 l 279 311 q 294 191 266 227 q 393 154 321 154 q 502 191 465 154 q 551 308 539 227 l 614 758 l 828 758 l 765 304 q 641 71 744 154 q 371 -13 538 -13 m 375 884 l 480 1136 l 745 1136 l 513 884 l 375 884 z "},"φ":{"ha":884,"x_min":16,"x_max":837,"o":"m 424 -253 l 247 -253 l 282 -5 q 81 121 146 19 q 39 386 16 222 l 49 458 q 90 635 63 554 q 158 770 116 716 l 323 730 q 265 612 290 682 q 227 458 239 542 l 217 386 q 227 220 202 277 q 321 148 251 164 l 407 758 l 527 758 q 759 663 682 758 q 813 394 837 568 l 806 342 q 693 105 785 196 q 458 -6 601 15 l 424 -253 m 527 604 l 462 146 q 590 205 548 158 q 645 342 633 251 l 653 394 q 635 554 668 504 q 527 604 602 604 z "},"χ":{"ha":884,"x_min":-42,"x_max":855,"o":"m 470 -253 l 365 52 l 169 -253 l -42 -253 l 298 247 l 121 758 l 335 758 l 443 447 l 644 758 l 855 758 l 510 253 l 686 -253 l 470 -253 z "},"ψ":{"ha":884,"x_min":9,"x_max":864,"o":"m 424 -253 l 247 -253 l 280 -16 q 71 88 133 3 q 29 317 9 174 l 91 758 l 270 758 l 212 343 q 223 208 201 256 q 312 145 246 160 l 398 758 l 557 758 l 471 145 q 578 208 542 160 q 626 343 615 256 l 684 758 l 864 758 l 802 317 q 696 88 782 174 q 457 -16 610 3 l 424 -253 z "},"ω":{"ha":884,"x_min":6,"x_max":837,"o":"m 172 -13 q 47 71 87 -13 q 29 313 6 154 l 51 468 q 90 639 64 563 q 155 779 116 715 l 322 739 q 263 597 288 663 q 230 468 239 530 l 208 313 q 206 194 197 234 q 246 154 216 154 q 301 180 280 154 q 330 266 321 206 l 371 563 l 530 563 l 489 266 q 493 180 480 206 q 540 154 506 154 q 591 194 571 154 q 622 313 611 234 l 644 468 q 647 597 653 530 q 628 739 641 663 l 807 779 q 833 639 828 715 q 823 468 837 563 l 802 313 q 715 71 779 154 q 563 -13 652 -13 q 460 24 504 -13 q 407 155 417 61 l 375 155 q 290 24 347 61 q 172 -13 234 -13 z "},"ώ":{"ha":884,"x_min":6,"x_max":837,"o":"m 172 -13 q 47 71 87 -13 q 29 313 6 154 l 51 468 q 90 639 64 563 q 155 779 116 715 l 322 739 q 263 597 288 663 q 230 468 239 530 l 208 313 q 206 194 197 234 q 246 154 216 154 q 301 180 280 154 q 330 266 321 206 l 371 563 l 530 563 l 489 266 q 493 180 480 206 q 540 154 506 154 q 591 194 571 154 q 622 313 611 234 l 644 468 q 647 597 653 530 q 628 739 641 663 l 807 779 q 833 639 828 715 q 823 468 837 563 l 802 313 q 715 71 779 154 q 563 -13 652 -13 q 460 24 504 -13 q 407 155 417 61 l 375 155 q 290 24 347 61 q 172 -13 234 -13 m 393 884 l 497 1136 l 763 1136 l 530 884 l 393 884 z "},"а":{"ha":884,"x_min":5,"x_max":806,"o":"m 303 126 q 394 141 350 126 q 479 183 438 155 l 496 306 l 322 306 q 253 287 279 306 q 218 212 226 268 q 232 148 212 170 q 303 126 251 126 m 232 -13 q 66 44 126 -13 q 20 207 5 101 q 116 367 35 312 q 314 423 196 423 l 513 423 l 525 515 q 505 594 534 571 q 414 617 476 617 q 316 595 350 617 q 256 505 282 572 l 85 537 q 210 717 129 664 q 442 770 292 770 q 675 709 600 770 q 732 521 750 648 l 691 229 q 713 161 683 174 q 806 157 742 148 l 784 4 q 622 8 683 -18 q 552 117 561 33 l 518 117 q 395 26 471 64 q 232 -13 319 -13 z "},"б":{"ha":884,"x_min":42,"x_max":804,"o":"m 370 -13 q 121 69 201 -13 q 64 312 42 150 l 101 577 q 232 879 130 779 q 508 997 335 979 l 804 1029 l 799 860 l 516 827 q 378 771 427 816 q 312 631 328 726 l 302 562 l 331 562 q 424 650 367 619 q 566 682 481 682 q 739 613 679 682 q 783 428 799 544 l 763 287 q 640 63 741 139 q 370 -13 539 -13 m 390 145 q 499 178 463 145 q 544 275 534 211 l 562 405 q 544 494 571 465 q 443 523 516 523 q 335 494 369 523 q 292 405 301 465 l 274 275 q 290 178 264 211 q 390 145 316 145 z "},"в":{"ha":884,"x_min":20,"x_max":817,"o":"m 20 0 l 126 758 l 480 758 q 731 714 645 758 q 803 572 817 670 l 799 545 q 738 444 790 481 q 605 403 686 408 l 601 375 q 741 324 698 369 q 775 217 784 279 l 773 196 q 667 50 759 100 q 374 0 574 0 l 20 0 m 289 452 l 447 452 q 552 467 520 452 q 591 527 585 482 l 593 544 q 572 604 598 587 q 470 621 545 621 l 313 621 l 289 452 m 246 145 l 403 145 q 529 167 492 145 q 572 235 566 189 l 574 247 q 552 313 581 293 q 431 333 523 333 l 273 333 l 246 145 z "},"г":{"ha":884,"x_min":74,"x_max":814,"o":"m 74 0 l 181 758 l 814 758 l 792 591 l 372 591 l 289 0 l 74 0 z "},"ѓ":{"ha":884,"x_min":74,"x_max":824,"o":"m 74 0 l 181 758 l 814 758 l 792 591 l 372 591 l 289 0 l 74 0 m 366 884 l 547 1136 l 824 1136 l 516 884 l 366 884 z "},"д":{"ha":884,"x_min":-64,"x_max":804,"o":"m 271 196 l 268 167 l 499 167 l 558 591 l 383 591 l 347 365 q 319 270 337 309 q 271 196 301 230 m 159 0 l 133 -189 l -64 -189 l -14 167 l 71 167 q 120 233 100 187 q 154 370 140 279 l 215 758 l 778 758 l 696 167 l 804 167 l 754 -189 l 557 -189 l 583 0 l 159 0 z "},"е":{"ha":884,"x_min":39,"x_max":809,"o":"m 760 176 q 617 28 701 69 q 374 -13 534 -13 q 129 60 220 -13 q 59 277 39 133 l 87 479 q 213 694 107 617 q 481 770 318 770 q 727 694 644 770 q 789 475 809 617 l 769 336 l 282 336 l 271 264 q 292 165 263 199 q 398 130 321 130 q 506 150 462 130 q 586 225 551 169 l 760 176 m 304 496 l 298 453 l 571 453 l 576 485 q 561 598 587 564 q 460 633 535 633 q 349 600 384 633 q 304 496 314 568 z "},"ѐ":{"ha":884,"x_min":39,"x_max":809,"o":"m 760 176 q 617 28 701 69 q 374 -13 534 -13 q 129 60 220 -13 q 59 277 39 133 l 87 479 q 213 694 107 617 q 481 770 318 770 q 727 694 644 770 q 789 475 809 617 l 769 336 l 282 336 l 271 264 q 292 165 263 199 q 398 130 321 130 q 506 150 462 130 q 586 225 551 169 l 760 176 m 304 496 l 298 453 l 571 453 l 576 485 q 561 598 587 564 q 460 633 535 633 q 349 600 384 633 q 304 496 314 568 m 484 884 l 246 1136 l 524 1136 l 634 884 l 484 884 z "},"ё":{"ha":884,"x_min":39,"x_max":809,"o":"m 760 176 q 617 28 701 69 q 374 -13 534 -13 q 129 60 220 -13 q 59 277 39 133 l 87 479 q 213 694 107 617 q 481 770 318 770 q 727 694 644 770 q 789 475 809 617 l 769 336 l 282 336 l 271 264 q 292 165 263 199 q 398 130 321 130 q 506 150 462 130 q 586 225 551 169 l 760 176 m 304 496 l 298 453 l 571 453 l 576 485 q 561 598 587 564 q 460 633 535 633 q 349 600 384 633 q 304 496 314 568 m 336 879 q 258 898 287 879 q 237 967 230 918 l 239 984 q 280 1055 246 1034 q 364 1076 314 1076 q 442 1055 414 1076 q 462 984 470 1034 l 461 967 q 419 898 453 918 q 336 879 385 879 m 654 879 q 575 898 604 879 q 554 967 547 918 l 556 984 q 597 1055 563 1034 q 682 1076 631 1076 q 759 1055 732 1076 q 779 984 787 1034 l 778 967 q 736 898 770 918 q 654 879 702 879 z "},"ж":{"ha":884,"x_min":-61,"x_max":910,"o":"m 288 330 l 117 0 l -61 0 l 178 420 l 42 758 l 222 758 l 321 466 l 359 466 l 399 758 l 557 758 l 516 466 l 549 466 l 725 758 l 910 758 l 683 422 l 803 0 l 621 0 l 544 330 l 497 330 l 451 0 l 293 0 l 340 330 l 288 330 z "},"з":{"ha":884,"x_min":39,"x_max":817,"o":"m 372 -13 q 117 50 194 -13 q 48 247 39 112 l 245 256 q 276 151 244 178 q 391 124 308 124 q 521 150 486 124 q 563 231 556 177 l 564 244 q 546 315 572 293 q 423 337 520 337 l 361 337 l 378 456 l 439 456 q 544 472 511 456 q 583 535 576 487 l 586 553 q 565 616 592 598 q 463 634 538 634 q 357 609 391 634 q 303 515 322 585 l 109 525 q 227 711 138 653 q 482 770 316 770 q 737 723 658 770 q 802 569 817 676 l 798 543 q 739 446 790 481 q 605 405 687 410 l 601 378 q 741 327 698 371 q 777 222 784 283 l 773 201 q 663 40 758 93 q 372 -13 568 -13 z "},"и":{"ha":884,"x_min":20,"x_max":828,"o":"m 537 0 l 609 513 l 250 0 l 20 0 l 126 758 l 313 758 l 237 218 l 615 758 l 828 758 l 722 0 l 537 0 z "},"й":{"ha":884,"x_min":20,"x_max":845,"o":"m 537 0 l 609 513 l 250 0 l 20 0 l 126 758 l 313 758 l 237 218 l 615 758 l 828 758 l 722 0 l 537 0 m 494 875 q 283 937 367 875 q 221 1154 198 1000 l 412 1167 q 420 1047 399 1083 q 513 1010 441 1010 q 617 1047 585 1010 q 659 1167 649 1083 l 845 1154 q 722 937 824 1000 q 494 875 620 875 z "},"ѝ":{"ha":884,"x_min":20,"x_max":828,"o":"m 537 0 l 609 513 l 250 0 l 20 0 l 126 758 l 313 758 l 237 218 l 615 758 l 828 758 l 722 0 l 537 0 m 496 884 l 259 1136 l 537 1136 l 646 884 l 496 884 z "},"к":{"ha":884,"x_min":48,"x_max":856,"o":"m 308 319 l 263 0 l 48 0 l 154 758 l 369 758 l 328 467 l 380 467 l 629 758 l 856 758 l 551 414 l 746 0 l 515 0 l 360 319 l 308 319 z "},"ќ":{"ha":884,"x_min":48,"x_max":871,"o":"m 308 319 l 263 0 l 48 0 l 154 758 l 369 758 l 328 467 l 380 467 l 629 758 l 856 758 l 551 414 l 746 0 l 515 0 l 360 319 l 308 319 m 413 884 l 593 1136 l 871 1136 l 563 884 l 413 884 z "},"л":{"ha":884,"x_min":-59,"x_max":837,"o":"m 516 0 l 601 600 l 398 600 l 351 289 q 255 58 328 133 q 59 -16 182 -16 q 1 -10 30 -16 q -59 4 -29 -4 l -13 163 q 20 154 5 158 q 47 150 34 150 q 112 182 87 150 q 152 306 138 215 l 218 758 l 837 758 l 731 0 l 516 0 z "},"м":{"ha":884,"x_min":8,"x_max":841,"o":"m 323 189 l 241 485 l 192 0 l 8 0 l 114 758 l 336 758 l 428 374 l 625 758 l 841 758 l 735 0 l 551 0 l 636 485 l 475 189 l 323 189 z "},"н":{"ha":884,"x_min":20,"x_max":828,"o":"m 20 0 l 126 758 l 341 758 l 306 501 l 578 501 l 614 758 l 828 758 l 722 0 l 508 0 l 554 335 l 282 335 l 235 0 l 20 0 z "},"о":{"ha":884,"x_min":39,"x_max":808,"o":"m 370 -13 q 122 63 205 -13 q 58 274 39 139 l 87 479 q 211 693 107 616 q 481 770 314 770 q 727 692 646 770 q 789 475 808 614 l 760 270 q 638 62 741 136 q 370 -13 535 -13 m 391 145 q 499 178 462 145 q 547 283 537 211 l 573 471 q 556 578 585 544 q 457 612 528 612 q 349 578 386 612 q 302 472 312 544 l 275 288 q 293 179 265 213 q 391 145 321 145 z "},"п":{"ha":884,"x_min":20,"x_max":828,"o":"m 20 0 l 126 758 l 828 758 l 722 0 l 508 0 l 591 591 l 318 591 l 235 0 l 20 0 z "},"р":{"ha":884,"x_min":-15,"x_max":811,"o":"m 391 148 q 498 178 460 148 q 547 278 537 208 l 574 473 q 560 571 583 539 q 485 602 537 602 q 398 581 441 602 q 308 518 356 561 l 261 184 q 320 157 290 165 q 391 148 350 148 m 404 -9 q 318 -1 361 -9 q 237 21 274 6 l 199 -253 l -15 -253 l 126 758 l 341 758 l 322 622 l 360 622 q 465 730 399 691 q 607 770 532 770 q 760 699 710 770 q 793 508 811 629 l 761 277 q 646 68 742 145 q 404 -9 551 -9 z "},"с":{"ha":884,"x_min":39,"x_max":799,"o":"m 384 -13 q 122 63 206 -13 q 59 283 39 139 l 87 477 q 212 694 107 619 q 492 770 317 770 q 729 698 658 770 q 797 492 799 625 l 587 476 q 563 580 591 549 q 463 611 534 611 q 350 578 388 611 q 301 465 312 544 l 275 292 q 294 179 265 212 q 400 145 323 145 q 507 171 471 145 q 557 256 543 197 l 761 240 q 650 53 735 119 q 384 -13 566 -13 z "},"т":{"ha":884,"x_min":83,"x_max":848,"o":"m 264 0 l 347 591 l 83 591 l 106 758 l 848 758 l 826 591 l 562 591 l 479 0 l 264 0 z "},"у":{"ha":884,"x_min":-44,"x_max":869,"o":"m 129 -265 q 47 -261 90 -265 q -44 -251 5 -258 l -6 -93 q 78 -107 42 -102 q 144 -112 115 -112 q 254 -83 212 -112 q 331 27 295 -53 l 335 35 l 208 35 l 85 758 l 306 758 l 394 169 l 657 758 l 869 758 l 518 6 q 359 -205 447 -144 q 129 -265 270 -265 z "},"ў":{"ha":884,"x_min":-44,"x_max":869,"o":"m 129 -265 q 47 -261 90 -265 q -44 -251 5 -258 l -6 -93 q 78 -107 42 -102 q 144 -112 115 -112 q 254 -83 212 -112 q 331 27 295 -53 l 335 35 l 208 35 l 85 758 l 306 758 l 394 169 l 657 758 l 869 758 l 518 6 q 359 -205 447 -144 q 129 -265 270 -265 m 494 875 q 283 937 367 875 q 221 1154 198 1000 l 412 1167 q 420 1047 399 1083 q 513 1010 441 1010 q 617 1047 585 1010 q 659 1167 649 1083 l 845 1154 q 722 937 824 1000 q 494 875 620 875 z "},"ф":{"ha":884,"x_min":5,"x_max":845,"o":"m 486 0 l 460 0 l 424 -253 l 247 -253 l 283 0 l 256 0 q 67 71 129 0 q 23 268 5 143 l 54 492 q 153 688 72 617 q 362 758 235 758 l 389 758 l 424 1010 l 601 1010 l 566 758 l 592 758 q 782 688 720 758 q 827 492 845 617 l 795 266 q 696 71 778 141 q 486 0 614 0 m 289 136 l 317 136 l 385 620 l 357 620 q 274 590 311 620 q 227 487 237 559 l 197 269 q 215 167 187 197 q 289 136 242 136 m 559 620 l 532 620 l 463 136 l 491 136 q 575 167 539 136 q 621 269 611 197 l 652 487 q 634 590 662 559 q 559 620 607 620 z "},"х":{"ha":884,"x_min":-6,"x_max":837,"o":"m 525 0 l 395 244 l 210 0 l -6 0 l 319 385 l 117 758 l 336 758 l 455 538 l 621 758 l 837 758 l 534 393 l 746 0 l 525 0 z "},"ц":{"ha":884,"x_min":20,"x_max":814,"o":"m 559 -189 l 586 0 l 20 0 l 126 758 l 341 758 l 259 167 l 500 167 l 582 758 l 797 758 l 715 167 l 814 167 l 764 -189 l 559 -189 z "},"ч":{"ha":884,"x_min":56,"x_max":801,"o":"m 801 758 l 694 0 l 480 0 l 513 236 q 447 220 484 226 q 359 213 410 213 q 126 291 197 213 q 77 519 56 369 l 110 758 l 324 758 l 292 521 q 312 410 280 441 q 404 378 343 379 q 477 384 443 378 q 537 403 511 391 l 586 758 l 801 758 z "},"ш":{"ha":884,"x_min":-15,"x_max":864,"o":"m -15 0 l 91 758 l 265 758 l 181 155 l 307 155 l 391 758 l 563 758 l 479 155 l 605 155 l 689 758 l 864 758 l 758 0 l -15 0 z "},"щ":{"ha":884,"x_min":-15,"x_max":864,"o":"m 785 -189 l 610 -189 l 636 0 l -15 0 l 91 758 l 265 758 l 181 155 l 307 155 l 391 758 l 563 758 l 479 155 l 605 155 l 689 758 l 864 758 l 780 158 l 835 158 l 785 -189 z "},"ъ":{"ha":884,"x_min":13,"x_max":827,"o":"m 471 0 l 119 0 l 202 591 l 13 591 l 35 758 l 439 758 l 409 539 l 547 539 q 756 475 686 539 q 811 298 827 412 l 802 237 q 698 63 787 126 q 471 0 610 0 m 356 158 l 457 158 q 551 179 519 158 q 590 251 582 201 l 596 295 q 576 364 602 345 q 489 384 551 384 l 388 384 l 356 158 z "},"ы":{"ha":884,"x_min":-8,"x_max":856,"o":"m -8 0 l 98 758 l 278 758 l 250 557 l 303 557 q 485 500 426 557 q 532 342 545 443 l 515 229 q 424 60 500 120 q 225 0 347 0 l -8 0 m 571 0 l 677 758 l 856 758 l 750 0 l 571 0 m 192 148 l 235 148 q 317 169 288 148 q 354 246 346 191 l 364 318 q 348 391 371 371 q 273 412 326 412 l 230 412 l 192 148 z "},"ь":{"ha":884,"x_min":11,"x_max":801,"o":"m 11 0 l 117 758 l 332 758 l 302 539 l 503 539 q 727 475 653 539 q 784 298 801 412 l 775 237 q 669 62 760 124 q 427 0 577 0 l 11 0 m 249 158 l 413 158 q 519 177 482 158 q 562 246 556 197 l 568 292 q 545 362 576 341 q 444 384 514 384 l 280 384 l 249 158 z "},"э":{"ha":884,"x_min":30,"x_max":809,"o":"m 352 -13 q 107 48 183 -13 q 39 236 30 109 l 250 253 q 272 160 246 187 q 378 133 298 133 q 497 167 460 133 q 547 279 535 201 l 554 328 l 330 328 l 347 456 l 572 456 l 576 482 q 557 592 586 558 q 449 625 529 625 q 337 599 374 625 q 287 511 301 573 l 81 528 q 206 711 114 653 q 463 770 298 770 q 722 697 635 770 q 789 477 809 624 l 761 283 q 636 63 741 139 q 352 -13 532 -13 z "},"ю":{"ha":884,"x_min":-15,"x_max":846,"o":"m 508 -13 q 333 55 385 -13 q 297 240 280 122 l 311 340 l 213 340 l 165 0 l -15 0 l 91 758 l 271 758 l 234 489 l 331 489 l 335 513 q 424 701 351 633 q 619 770 496 770 q 795 701 744 770 q 830 513 846 633 l 792 240 q 704 55 775 122 q 508 -13 633 -13 m 528 136 q 588 163 569 136 q 614 240 606 189 l 652 513 q 648 593 659 566 q 596 621 638 621 q 537 593 556 621 q 510 513 518 566 l 472 240 q 476 163 465 189 q 528 136 487 136 z "},"я":{"ha":884,"x_min":9,"x_max":828,"o":"m 398 386 l 562 386 l 593 609 l 429 609 q 359 590 384 609 q 324 513 333 571 l 321 485 q 332 406 312 426 q 398 386 352 386 m 542 239 l 452 239 l 242 0 l 9 0 l 234 256 q 126 335 159 277 q 106 482 93 393 l 111 519 q 203 695 126 633 q 404 758 280 758 l 828 758 l 722 0 l 508 0 l 542 239 z "},"ђ":{"ha":884,"x_min":3,"x_max":802,"o":"m 386 -264 q 302 -256 345 -264 q 221 -236 260 -249 l 266 -88 q 328 -107 299 -100 q 383 -114 356 -114 q 467 -83 433 -114 q 510 16 500 -53 l 564 403 q 551 491 572 461 q 484 521 530 521 q 390 491 441 521 q 292 405 340 460 l 235 0 l 20 0 l 129 769 l 3 769 l 19 888 l 145 888 l 162 1010 l 376 1010 l 360 888 l 577 888 l 561 769 l 343 769 l 311 542 l 348 542 q 455 650 389 611 q 601 689 521 689 q 749 629 697 689 q 787 461 802 568 l 722 -4 q 604 -202 702 -140 q 386 -264 506 -264 z "},"є":{"ha":884,"x_min":39,"x_max":813,"o":"m 769 236 q 649 48 741 109 q 388 -13 557 -13 q 124 63 208 -13 q 59 283 39 139 l 87 477 q 216 697 107 624 q 496 770 324 770 q 737 711 662 770 q 811 528 813 653 l 601 511 q 575 599 605 573 q 471 625 545 625 q 352 592 390 625 q 303 482 313 558 l 298 451 l 543 451 l 527 332 l 282 332 l 274 279 q 292 167 263 201 q 404 133 321 133 q 517 160 484 133 q 564 253 551 187 l 769 236 z "},"ѕ":{"ha":884,"x_min":25,"x_max":771,"o":"m 374 -9 q 183 18 275 -9 q 25 93 91 44 l 101 229 q 247 157 167 182 q 399 133 327 133 q 494 151 457 133 q 537 212 530 169 q 512 276 543 256 q 399 304 481 295 q 172 368 247 321 q 111 525 96 415 q 225 705 128 640 q 465 770 323 770 q 627 746 545 770 q 771 677 708 721 l 706 548 q 578 608 643 587 q 452 629 514 629 q 367 610 400 629 q 328 551 335 591 q 361 489 322 506 q 494 460 400 472 q 703 389 639 442 q 753 235 766 336 q 634 55 736 119 q 374 -9 532 -9 z "},"і":{"ha":884,"x_min":29,"x_max":736,"o":"m 29 0 l 52 158 l 287 158 l 348 600 l 114 600 l 135 758 l 585 758 l 501 158 l 736 158 l 713 0 l 29 0 m 505 879 q 403 898 441 879 q 372 967 365 918 l 374 984 q 425 1055 381 1034 q 533 1076 468 1076 q 634 1055 597 1076 q 664 984 672 1034 l 663 967 q 612 898 655 918 q 505 879 569 879 z "},"ї":{"ha":884,"x_min":29,"x_max":787,"o":"m 29 0 l 52 158 l 287 158 l 348 600 l 114 600 l 135 758 l 585 758 l 501 158 l 736 158 l 713 0 l 29 0 m 336 879 q 258 898 287 879 q 237 967 230 918 l 239 984 q 280 1055 246 1034 q 364 1076 314 1076 q 442 1055 414 1076 q 462 984 470 1034 l 461 967 q 419 898 453 918 q 336 879 385 879 m 654 879 q 575 898 604 879 q 554 967 547 918 l 556 984 q 597 1055 563 1034 q 682 1076 631 1076 q 759 1055 732 1076 q 779 984 787 1034 l 778 967 q 736 898 770 918 q 654 879 702 879 z "},"ј":{"ha":884,"x_min":-20,"x_max":769,"o":"m 201 -264 q 89 -258 145 -264 q -20 -236 33 -253 l 25 -88 q 115 -109 72 -104 q 197 -114 158 -114 q 324 -83 275 -114 q 384 16 374 -53 l 466 600 l 140 600 l 162 758 l 702 758 l 596 -4 q 472 -196 578 -129 q 201 -264 365 -264 m 602 879 q 500 898 538 879 q 470 967 462 918 l 471 984 q 522 1055 479 1034 q 630 1076 566 1076 q 732 1055 694 1076 q 761 984 769 1034 l 760 967 q 710 898 753 918 q 602 879 667 879 z "},"љ":{"ha":884,"x_min":-87,"x_max":822,"o":"m 285 617 l 216 173 q 146 39 202 85 q 3 -8 90 -8 q -42 -4 -19 -8 q -87 5 -64 -1 l -40 158 q -21 152 -32 154 q -3 150 -11 150 q 34 164 18 150 q 58 221 51 178 l 141 758 l 576 758 l 545 539 l 629 539 q 775 483 727 539 q 807 326 822 427 l 794 232 q 715 61 779 122 q 553 0 652 0 l 303 0 l 390 617 l 285 617 m 489 139 l 535 139 q 598 164 576 139 q 629 245 621 188 l 639 311 q 629 381 645 360 q 573 403 614 403 l 527 403 l 489 139 z "},"њ":{"ha":884,"x_min":-14,"x_max":821,"o":"m 485 139 l 532 139 q 595 160 573 139 q 624 232 616 182 l 638 328 q 629 399 644 378 q 572 420 614 420 l 525 420 l 485 139 m 203 362 l 153 0 l -14 0 l 92 758 l 259 758 l 225 510 l 371 510 l 405 758 l 572 758 l 544 557 l 628 557 q 773 503 726 557 q 807 352 821 448 l 788 215 q 711 56 774 112 q 549 0 648 0 l 299 0 l 350 362 l 203 362 z "},"ћ":{"ha":884,"x_min":3,"x_max":802,"o":"m 292 405 l 235 0 l 20 0 l 129 769 l 3 769 l 19 888 l 145 888 l 162 1010 l 376 1010 l 360 888 l 577 888 l 561 769 l 343 769 l 311 542 l 348 542 q 456 650 388 610 q 601 689 524 689 q 750 626 698 689 q 787 461 802 563 l 722 0 l 508 0 l 564 403 q 551 491 572 461 q 484 521 530 521 q 390 491 439 521 q 292 405 341 460 z "},"џ":{"ha":884,"x_min":20,"x_max":828,"o":"m 242 -189 l 269 0 l 20 0 l 126 758 l 341 758 l 259 167 l 532 167 l 614 758 l 828 758 l 722 0 l 473 0 l 447 -189 l 242 -189 z "},"ґ":{"ha":884,"x_min":74,"x_max":841,"o":"m 74 0 l 181 758 l 611 758 l 638 947 l 841 947 l 792 591 l 372 591 l 289 0 l 74 0 z "},"ⁿ":{"ha":884,"x_min":128,"x_max":784,"o":"m 128 380 l 217 1011 l 399 1011 l 383 900 l 418 900 q 460 954 437 931 q 509 992 482 977 q 565 1015 535 1008 q 625 1023 595 1023 q 700 1006 668 1023 q 753 957 732 989 q 778 878 773 924 q 777 771 784 831 l 721 380 l 539 380 l 593 761 q 595 812 597 790 q 583 848 592 833 q 563 870 576 862 q 532 878 549 878 q 491 870 511 878 q 448 847 470 862 q 408 814 429 833 q 365 769 386 794 l 309 380 l 128 380 z "},"̀":{"ha":0,"x_min":-201,"x_max":187,"o":"m 37 884 l -201 1136 l 77 1136 l 187 884 l 37 884 z "},"́":{"ha":0,"x_min":-109,"x_max":350,"o":"m -109 884 l 72 1136 l 350 1136 l 42 884 l -109 884 z "},"̂":{"ha":0,"x_min":-245,"x_max":376,"o":"m -189 871 l -245 970 l 11 1167 l 173 1167 l 376 970 l 294 872 l 69 1009 l -189 871 z "},"̃":{"ha":0,"x_min":-245,"x_max":394,"o":"m 170 896 q 85 917 115 896 q 38 960 56 937 q 5 1003 20 984 q -34 1023 -10 1023 q -75 1003 -56 1023 q -101 922 -95 984 l -104 909 l -245 909 l -242 928 q -168 1098 -227 1030 q -20 1167 -109 1167 q 68 1147 38 1167 q 115 1104 97 1128 q 148 1059 133 1080 q 184 1039 163 1039 q 225 1059 206 1039 q 251 1141 244 1078 l 253 1153 l 394 1153 l 391 1134 q 318 965 378 1033 q 170 896 259 896 z "},"̄":{"ha":0,"x_min":-216,"x_max":359,"o":"m -216 927 l -192 1093 l 359 1093 l 335 927 l -216 927 z "},"̆":{"ha":0,"x_min":-251,"x_max":418,"o":"m 52 875 q -178 945 -105 875 q -231 1167 -251 1015 l -52 1167 q -34 1045 -63 1080 q 71 1010 -5 1010 q 186 1045 146 1010 q 239 1167 225 1080 l 418 1167 q 302 945 395 1015 q 52 875 208 875 z "},"̇":{"ha":0,"x_min":-87,"x_max":220,"o":"m 53 879 q -49 898 -11 879 q -80 967 -87 918 l -78 984 q -27 1055 -71 1034 q 81 1076 16 1076 q 182 1055 145 1076 q 212 984 220 1034 l 211 967 q 160 898 203 918 q 53 879 117 879 z "},"̈":{"ha":0,"x_min":-212,"x_max":345,"o":"m -106 879 q -184 898 -155 879 q -205 967 -212 918 l -203 984 q -162 1055 -196 1034 q -78 1076 -128 1076 q 0 1055 -28 1076 q 20 984 28 1034 l 19 967 q -23 898 11 918 q -106 879 -57 879 m 212 879 q 133 898 162 879 q 112 967 105 918 l 114 984 q 155 1055 121 1034 q 240 1076 189 1076 q 318 1055 290 1076 q 337 984 345 1034 l 336 967 q 294 898 328 918 q 212 879 260 879 z "},"̊":{"ha":0,"x_min":-183,"x_max":342,"o":"m 49 856 q -122 903 -61 856 q -169 1048 -183 949 l -164 1088 q -75 1235 -150 1187 q 110 1284 0 1284 q 282 1235 221 1284 q 328 1088 342 1187 l 323 1048 q 234 903 309 949 q 49 856 159 856 m 64 963 q 138 982 111 963 q 172 1048 164 1001 l 177 1088 q 162 1155 183 1134 q 95 1177 141 1177 q 21 1155 48 1177 q -13 1088 -6 1134 l -18 1048 q -4 982 -25 1001 q 64 963 18 963 z "},"̋":{"ha":0,"x_min":-177,"x_max":432,"o":"m 114 884 l 211 1136 l 432 1136 l 230 884 l 114 884 m -177 884 l -80 1136 l 141 1136 l -61 884 l -177 884 z "},"̌":{"ha":0,"x_min":-229,"x_max":393,"o":"m -25 889 l -229 1086 l -146 1183 l 78 1047 l 337 1184 l 393 1086 l 136 889 l -25 889 z "},"̒":{"ha":0,"x_min":-134,"x_max":274,"o":"m -134 884 l 124 1136 l 274 1136 l 144 884 l -134 884 z "},"̦":{"ha":0,"x_min":-319,"x_max":88,"o":"m -319 -379 l -189 -126 l 88 -126 l -169 -379 l -319 -379 z "},"̧":{"ha":0,"x_min":-389,"x_max":131,"o":"m -109 0 l -76 53 q 73 8 15 43 q 119 -112 131 -28 q 25 -242 106 -203 q -150 -282 -56 -282 q -324 -245 -260 -282 q -383 -121 -389 -208 l -199 -109 q -187 -142 -201 -133 q -141 -152 -174 -152 q -86 -138 -106 -152 q -61 -81 -67 -124 q -66 -27 -56 -45 q -109 0 -76 -9 z "},"̨":{"ha":0,"x_min":-280,"x_max":98,"o":"m -74 -279 q -227 -239 -173 -279 q -269 -121 -280 -199 q -191 11 -259 -44 q -51 86 -124 66 l -25 29 q -86 -23 -72 3 q -105 -73 -101 -49 q -89 -122 -110 -106 q -20 -139 -68 -139 q 34 -136 3 -139 q 98 -126 66 -133 l 80 -264 q -1 -275 39 -271 q -74 -279 -40 -279 z "},"¼":{"ha":884,"x_min":-27,"x_max":879,"o":"m 220 519 l 235 626 l 407 626 l 442 876 l 418 876 q 391 830 409 851 q 350 793 372 808 q 300 769 327 778 q 244 758 273 760 l 254 879 q 313 893 283 883 q 372 920 343 903 q 425 963 400 938 q 463 1019 449 987 l 629 1019 l 574 626 l 731 626 l 716 519 l 220 519 m -27 311 l -5 463 l 393 438 l 378 336 l -27 311 m 476 336 l 491 438 l 879 463 l 857 311 l 476 336 m 669 -143 l 552 -143 l 534 -265 l 366 -265 l 384 -143 l 63 -143 l 80 -28 l 407 273 l 610 273 l 568 -28 l 686 -28 l 669 -143 m 212 -28 l 400 -28 l 428 169 l 212 -28 z "},"½":{"ha":884,"x_min":-27,"x_max":879,"o":"m 220 519 l 235 626 l 407 626 l 442 876 l 418 876 q 391 830 409 851 q 350 793 372 808 q 300 769 327 778 q 244 758 273 760 l 254 879 q 313 893 283 883 q 372 920 343 903 q 425 963 400 938 q 463 1019 449 987 l 629 1019 l 574 626 l 731 626 l 716 519 l 220 519 m -27 311 l -5 463 l 393 438 l 378 336 l -27 311 m 476 336 l 491 438 l 879 463 l 857 311 l 476 336 m 53 -265 l 71 -146 q 86 -89 74 -115 q 119 -42 98 -63 q 170 -6 140 -21 q 241 16 201 9 l 399 48 q 440 57 424 53 q 466 68 456 62 q 482 83 476 74 q 490 105 487 92 l 491 116 q 487 139 492 130 q 468 153 481 148 q 437 160 456 158 q 393 162 418 162 q 349 159 367 162 q 317 149 331 157 q 294 130 303 143 q 280 97 284 117 l 114 106 q 142 177 121 146 q 197 227 163 207 q 285 258 234 247 q 408 268 337 268 q 529 258 479 268 q 609 229 580 247 q 652 180 640 208 q 659 114 664 152 l 654 85 q 637 34 650 57 q 601 -5 624 11 q 552 -34 580 -23 q 490 -52 524 -45 l 332 -83 q 293 -93 308 -88 q 266 -104 278 -97 q 250 -119 256 -110 q 240 -141 244 -128 l 630 -141 l 612 -265 l 53 -265 z "},"¾":{"ha":884,"x_min":-27,"x_max":879,"o":"m 447 510 q 321 520 374 510 q 235 551 269 530 q 189 603 203 572 q 178 676 176 634 l 347 683 q 352 650 347 663 q 370 629 357 636 q 404 618 383 621 q 460 615 426 615 q 512 617 491 615 q 547 625 533 620 q 566 638 559 630 q 574 658 573 645 l 577 678 q 574 701 580 692 q 558 715 569 710 q 524 722 544 720 q 472 725 504 725 l 354 725 l 367 828 l 486 828 q 532 830 513 828 q 562 837 551 832 q 581 850 574 842 q 590 871 588 859 l 591 884 q 588 902 593 895 q 571 913 582 909 q 539 919 558 918 q 491 920 520 920 q 446 919 463 920 q 417 912 428 917 q 400 898 407 907 q 390 878 394 890 l 223 885 q 252 948 231 922 q 307 991 273 973 q 391 1017 342 1009 q 506 1025 441 1025 q 623 1018 573 1025 q 705 997 673 1011 q 751 960 736 982 q 761 907 765 938 l 759 893 q 745 854 756 871 q 717 823 734 836 q 679 803 699 811 q 633 792 658 795 l 630 769 q 675 759 653 766 q 713 739 697 751 q 739 706 731 725 q 744 664 746 687 l 742 652 q 716 588 736 615 q 660 544 696 562 q 571 518 624 527 q 447 510 518 510 m -27 311 l -5 463 l 393 438 l 378 336 l -27 311 m 476 336 l 491 438 l 879 463 l 857 311 l 476 336 m 669 -143 l 552 -143 l 534 -265 l 366 -265 l 384 -143 l 63 -143 l 80 -28 l 407 273 l 610 273 l 568 -28 l 686 -28 l 669 -143 m 212 -28 l 400 -28 l 428 169 l 212 -28 z "},"⅛":{"ha":884,"x_min":-27,"x_max":879,"o":"m 220 519 l 235 626 l 407 626 l 442 876 l 418 876 q 391 830 409 851 q 350 793 372 808 q 300 769 327 778 q 244 758 273 760 l 254 879 q 313 893 283 883 q 372 920 343 903 q 425 963 400 938 q 463 1019 449 987 l 629 1019 l 574 626 l 731 626 l 716 519 l 220 519 m -27 311 l -5 463 l 393 438 l 378 336 l -27 311 m 476 336 l 491 438 l 879 463 l 857 311 l 476 336 m 342 -270 q 211 -260 264 -270 q 129 -231 158 -250 q 88 -185 98 -212 q 83 -122 78 -158 l 86 -105 q 101 -62 90 -81 q 133 -29 112 -43 q 176 -6 150 -15 q 234 5 202 3 l 236 28 q 191 37 211 30 q 157 56 172 44 q 136 81 143 66 q 133 115 130 96 l 136 140 q 161 199 140 174 q 218 239 182 223 q 304 263 254 255 q 418 270 354 270 q 531 263 484 270 q 610 240 578 255 q 655 199 641 225 q 664 140 668 174 l 660 115 q 647 81 658 96 q 619 56 636 66 q 580 37 602 44 q 533 28 558 30 l 530 5 q 583 -6 559 3 q 621 -30 606 -15 q 643 -63 636 -44 q 645 -105 649 -82 l 643 -122 q 620 -186 638 -159 q 567 -232 602 -213 q 477 -261 533 -251 q 342 -270 422 -270 m 388 56 q 430 57 412 56 q 461 64 448 59 q 482 78 475 69 q 491 98 490 86 l 495 122 q 491 143 496 135 q 473 157 486 152 q 444 164 462 162 q 403 165 427 165 q 362 164 380 165 q 331 157 345 162 q 311 143 318 152 q 302 122 303 135 l 298 98 q 302 78 297 86 q 318 64 307 69 q 348 57 331 59 q 388 56 365 56 m 357 -165 q 414 -162 391 -165 q 449 -152 436 -159 q 468 -136 462 -145 q 476 -114 475 -126 l 479 -97 q 477 -74 481 -83 q 463 -57 473 -64 q 429 -47 451 -51 q 374 -43 408 -43 q 318 -47 341 -43 q 283 -57 295 -51 q 264 -74 270 -64 q 255 -97 258 -83 l 253 -114 q 255 -136 251 -126 q 269 -152 259 -145 q 302 -162 280 -159 q 357 -165 324 -165 z "},"⅜":{"ha":884,"x_min":-27,"x_max":879,"o":"m 447 510 q 323 520 375 510 q 236 551 270 530 q 190 603 205 572 q 178 676 176 634 l 347 683 q 352 650 347 663 q 370 629 357 636 q 404 618 383 621 q 460 615 426 615 q 512 617 491 615 q 547 625 533 620 q 566 638 559 630 q 574 658 573 645 l 577 678 q 574 701 580 692 q 558 715 569 710 q 524 722 544 720 q 472 725 504 725 l 354 725 l 367 828 l 486 828 q 532 830 513 828 q 562 837 551 832 q 581 850 574 842 q 590 871 588 859 l 591 884 q 588 902 593 895 q 571 913 582 909 q 539 919 558 918 q 491 920 520 920 q 446 919 463 920 q 417 912 428 917 q 400 898 407 907 q 390 878 394 890 l 223 885 q 254 951 231 924 q 312 995 277 979 q 396 1018 348 1011 q 506 1025 444 1025 q 617 1020 569 1025 q 699 1000 665 1014 q 750 964 734 987 q 761 907 766 941 l 759 893 q 745 854 756 871 q 717 823 734 836 q 679 803 699 811 q 633 792 658 795 l 630 769 q 675 759 653 766 q 713 739 697 751 q 739 706 731 725 q 744 664 746 687 l 742 652 q 713 584 736 611 q 653 540 691 557 q 564 517 615 524 q 447 510 513 510 m -27 311 l -5 463 l 393 438 l 378 336 l -27 311 m 476 336 l 491 438 l 879 463 l 857 311 l 476 336 m 342 -270 q 211 -260 264 -270 q 129 -231 158 -250 q 88 -185 98 -212 q 83 -122 78 -158 l 86 -105 q 101 -62 90 -81 q 133 -29 112 -43 q 176 -6 150 -15 q 234 5 202 3 l 236 28 q 191 37 211 30 q 157 56 172 44 q 136 81 143 66 q 133 115 130 96 l 136 140 q 161 199 140 174 q 218 239 182 223 q 304 263 254 255 q 418 270 354 270 q 531 263 484 270 q 610 240 578 255 q 655 199 641 225 q 664 140 668 174 l 660 115 q 647 81 658 96 q 619 56 636 66 q 580 37 602 44 q 533 28 558 30 l 530 5 q 583 -6 559 3 q 621 -30 606 -15 q 643 -63 636 -44 q 645 -105 649 -82 l 643 -122 q 620 -186 638 -159 q 567 -232 602 -213 q 477 -261 533 -251 q 342 -270 422 -270 m 388 56 q 430 57 412 56 q 461 64 448 59 q 482 78 475 69 q 491 98 490 86 l 495 122 q 491 143 496 135 q 473 157 486 152 q 444 164 462 162 q 403 165 427 165 q 362 164 380 165 q 331 157 345 162 q 311 143 318 152 q 302 122 303 135 l 298 98 q 302 78 297 86 q 318 64 307 69 q 348 57 331 59 q 388 56 365 56 m 357 -165 q 414 -162 391 -165 q 449 -152 436 -159 q 468 -136 462 -145 q 476 -114 475 -126 l 479 -97 q 477 -74 481 -83 q 463 -57 473 -64 q 429 -47 451 -51 q 374 -43 408 -43 q 318 -47 341 -43 q 283 -57 295 -51 q 264 -74 270 -64 q 255 -97 258 -83 l 253 -114 q 255 -136 251 -126 q 269 -152 259 -145 q 302 -162 280 -159 q 357 -165 324 -165 z "},"⅝":{"ha":884,"x_min":-27,"x_max":879,"o":"m 447 503 q 316 511 369 503 q 231 540 264 520 q 187 593 199 561 q 178 673 174 625 l 347 681 q 351 646 346 659 q 370 624 356 633 q 407 612 384 616 q 465 609 429 609 q 518 612 497 609 q 551 622 538 615 q 569 640 563 629 q 576 669 574 652 l 580 689 q 577 713 581 703 q 559 727 573 722 q 519 736 547 734 q 446 739 491 739 l 210 739 l 249 1019 l 771 1019 l 758 913 l 403 913 l 393 843 l 527 843 q 631 835 587 843 q 703 808 676 826 q 742 763 731 790 q 749 699 754 736 l 742 657 q 718 596 737 624 q 663 547 698 568 q 572 514 626 525 q 447 503 518 503 m -27 311 l -5 463 l 393 438 l 378 336 l -27 311 m 476 336 l 491 438 l 879 463 l 857 311 l 476 336 m 342 -270 q 211 -260 264 -270 q 129 -231 158 -250 q 88 -185 98 -212 q 83 -122 78 -158 l 86 -105 q 101 -62 90 -81 q 133 -29 112 -43 q 176 -6 150 -15 q 234 5 202 3 l 236 28 q 191 37 211 30 q 157 56 172 44 q 136 82 143 67 q 133 116 130 97 l 136 141 q 162 199 141 176 q 218 240 182 223 q 304 263 254 255 q 418 270 354 270 q 532 263 484 270 q 611 241 580 256 q 655 200 641 225 q 664 141 669 176 l 660 116 q 646 82 658 97 q 619 56 635 67 q 580 37 602 44 q 533 28 558 30 l 530 5 q 583 -6 559 3 q 621 -30 606 -15 q 643 -63 636 -44 q 645 -105 649 -82 l 643 -122 q 620 -186 638 -159 q 567 -232 602 -213 q 477 -261 533 -251 q 342 -270 422 -270 m 388 56 q 430 57 412 56 q 461 64 448 59 q 482 78 475 69 q 491 98 490 86 l 495 122 q 491 143 496 135 q 473 157 486 152 q 444 164 462 162 q 403 165 427 165 q 362 164 380 165 q 331 157 345 162 q 311 143 318 152 q 302 122 303 135 l 298 98 q 302 78 297 86 q 318 64 307 69 q 348 57 331 59 q 388 56 365 56 m 357 -165 q 414 -162 391 -165 q 449 -152 436 -159 q 468 -136 462 -145 q 476 -114 475 -126 l 479 -97 q 477 -74 481 -83 q 463 -57 473 -64 q 429 -47 451 -51 q 374 -43 408 -43 q 318 -47 341 -43 q 283 -57 295 -51 q 264 -74 270 -64 q 255 -97 258 -83 l 253 -114 q 255 -136 251 -126 q 269 -152 259 -145 q 302 -162 280 -159 q 357 -165 324 -165 z "},"⅞":{"ha":884,"x_min":-27,"x_max":879,"o":"m 347 519 q 400 627 371 577 q 463 722 429 677 q 541 810 499 768 q 635 896 583 852 l 244 896 l 260 1019 l 819 1019 l 803 896 q 709 806 751 851 q 631 713 667 760 q 570 619 597 667 q 523 519 543 571 l 347 519 m -27 311 l -5 463 l 393 438 l 378 336 l -27 311 m 476 336 l 491 438 l 879 463 l 857 311 l 476 336 m 342 -270 q 211 -260 264 -270 q 129 -231 158 -250 q 88 -185 98 -212 q 83 -122 78 -158 l 86 -105 q 101 -62 90 -81 q 133 -29 112 -43 q 176 -6 150 -15 q 234 5 202 3 l 236 28 q 191 37 211 30 q 157 56 172 44 q 136 81 143 66 q 133 115 130 96 l 136 140 q 161 199 140 174 q 218 239 182 223 q 304 263 254 255 q 418 270 354 270 q 531 263 484 270 q 610 240 578 255 q 655 199 641 225 q 664 140 668 174 l 660 115 q 647 81 658 96 q 619 56 636 66 q 580 37 602 44 q 533 28 558 30 l 530 5 q 583 -6 559 3 q 621 -30 606 -15 q 643 -63 636 -44 q 645 -105 649 -82 l 643 -122 q 620 -186 638 -159 q 567 -232 602 -213 q 477 -261 533 -251 q 342 -270 422 -270 m 388 56 q 430 57 412 56 q 461 64 448 59 q 482 78 475 69 q 491 98 490 86 l 495 122 q 491 143 496 135 q 473 157 486 152 q 444 164 462 162 q 403 165 427 165 q 362 164 380 165 q 331 157 345 162 q 311 143 318 152 q 302 122 303 135 l 298 98 q 302 78 297 86 q 318 64 307 69 q 348 57 331 59 q 388 56 365 56 m 357 -165 q 414 -162 391 -165 q 449 -152 436 -159 q 468 -136 462 -145 q 476 -114 475 -126 l 479 -97 q 477 -74 481 -83 q 463 -57 473 -64 q 429 -47 451 -51 q 374 -43 408 -43 q 318 -47 341 -43 q 283 -57 295 -51 q 264 -74 270 -64 q 255 -97 258 -83 l 253 -114 q 255 -136 251 -126 q 269 -152 259 -145 q 302 -162 280 -159 q 357 -165 324 -165 z "},"_":{"ha":884,"x_min":-27,"x_max":725,"o":"m -27 -253 l 0 -64 l 725 -64 l 698 -253 l -27 -253 z "},"-":{"ha":884,"x_min":58,"x_max":809,"o":"m 58 352 l 85 540 l 809 540 l 783 352 l 58 352 z "},"­":{"ha":884,"x_min":58,"x_max":809,"o":"m 58 352 l 85 540 l 809 540 l 783 352 l 58 352 z "},"‐":{"ha":884,"x_min":58,"x_max":809,"o":"m 58 352 l 85 540 l 809 540 l 783 352 l 58 352 z "},"‑":{"ha":884,"x_min":58,"x_max":809,"o":"m 58 352 l 85 540 l 809 540 l 783 352 l 58 352 z "},"–":{"ha":884,"x_min":52,"x_max":816,"o":"m 52 352 l 78 540 l 816 540 l 789 352 l 52 352 z "},"—":{"ha":884,"x_min":-21,"x_max":889,"o":"m -21 352 l 5 540 l 889 540 l 862 352 l -21 352 z "},"―":{"ha":884,"x_min":-21,"x_max":889,"o":"m -21 352 l 5 540 l 889 540 l 862 352 l -21 352 z "},"(":{"ha":884,"x_min":158,"x_max":795,"o":"m 612 -265 q 251 -39 343 -218 q 191 379 158 141 q 367 793 223 610 q 794 1023 511 976 l 795 879 q 520 703 606 832 q 405 379 433 573 q 429 59 379 184 q 655 -114 480 -67 l 612 -265 z "},")":{"ha":884,"x_min":54,"x_max":691,"o":"m 54 -265 l 54 -114 q 331 62 245 -67 q 443 379 417 191 q 420 696 468 559 q 194 879 371 832 l 236 1023 q 598 793 506 976 q 658 379 691 610 q 482 -39 625 141 q 54 -265 338 -218 z "},"[":{"ha":884,"x_min":102,"x_max":809,"o":"m 102 -253 l 279 1010 l 809 1010 l 788 852 l 472 852 l 338 -100 l 654 -100 l 633 -253 l 102 -253 z "},"]":{"ha":884,"x_min":39,"x_max":746,"o":"m 39 -253 l 61 -100 l 376 -100 l 510 852 l 194 852 l 216 1010 l 746 1010 l 569 -253 l 39 -253 z "},"{":{"ha":884,"x_min":-4,"x_max":812,"o":"m 630 -265 q 182 -222 313 -269 q 67 -56 51 -174 q 100 39 74 1 q 172 115 125 77 q 244 179 220 154 q 270 226 268 203 q 220 310 279 285 q -4 338 160 335 l 11 449 q 243 477 177 453 q 317 559 309 501 q 304 602 321 582 q 250 653 287 622 q 196 718 211 684 q 188 807 181 753 q 350 977 205 928 q 812 1023 495 1027 l 789 865 q 491 848 576 869 q 398 774 405 828 q 408 725 394 747 q 465 668 423 702 q 521 609 508 635 q 529 543 535 582 q 440 434 519 468 q 178 395 361 400 l 177 389 q 427 340 357 376 q 486 234 496 304 q 460 167 481 193 q 386 105 438 140 q 313 47 335 73 q 288 -13 292 21 q 358 -92 279 -71 q 653 -110 437 -114 l 630 -265 z "},"}":{"ha":884,"x_min":37,"x_max":857,"o":"m 660 -56 q 499 -222 644 -174 q 37 -265 354 -269 l 59 -110 q 358 -92 273 -114 q 452 -13 443 -71 q 442 47 456 21 q 386 105 428 73 q 331 167 345 140 q 322 234 317 193 q 412 340 332 304 q 674 389 491 376 l 676 395 q 425 434 495 400 q 365 543 355 468 q 393 609 371 582 q 465 668 414 635 q 537 725 516 702 q 562 774 558 747 q 491 848 569 828 q 196 865 412 869 l 218 1023 q 667 977 535 1027 q 782 807 798 928 q 749 718 774 753 q 677 653 723 684 q 608 602 630 622 q 582 559 586 582 q 633 477 574 501 q 857 449 692 453 l 842 338 q 610 310 676 335 q 535 226 544 285 q 549 179 533 203 q 604 115 566 154 q 654 39 640 77 q 660 -56 668 1 z "},"#":{"ha":884,"x_min":-20,"x_max":904,"o":"m 497 375 l 547 635 l 388 635 l 338 375 l 497 375 m 426 0 l 468 226 l 309 226 l 266 0 l 100 0 l 143 226 l -20 226 l 1 375 l 172 375 l 221 635 l 38 635 l 58 784 l 249 784 l 292 1010 l 458 1010 l 415 784 l 574 784 l 617 1010 l 784 1010 l 741 784 l 904 784 l 884 635 l 713 635 l 664 375 l 847 375 l 826 226 l 635 226 l 592 0 l 426 0 z "},"%":{"ha":884,"x_min":6,"x_max":888,"o":"m 254 583 q 109 631 159 583 q 72 779 58 679 l 80 837 q 158 987 93 938 q 317 1035 223 1035 q 460 987 410 1035 q 496 837 510 938 l 489 779 q 410 631 475 679 q 254 583 346 583 m 270 699 q 316 717 298 699 q 340 773 335 734 l 350 845 q 342 902 355 884 q 301 920 328 920 q 253 902 273 920 q 229 845 234 884 l 218 773 q 228 717 213 734 q 270 699 242 699 m 6 235 l 812 879 l 888 778 l 74 131 l 6 235 m 569 -28 q 424 20 475 -28 q 388 168 374 68 l 395 226 q 474 376 409 327 q 633 424 539 424 q 776 376 726 424 q 812 226 826 327 l 804 168 q 726 20 790 68 q 569 -28 662 -28 m 585 83 q 631 100 612 83 q 654 157 649 117 l 664 229 q 657 286 670 268 q 616 304 644 304 q 569 286 588 304 q 543 229 549 268 l 533 157 q 542 100 528 117 q 585 83 557 83 z "},"‰":{"ha":884,"x_min":-3,"x_max":883,"o":"m 237 583 q 104 630 150 583 q 71 775 57 677 l 81 841 q 155 987 95 939 q 301 1035 215 1035 q 432 987 386 1035 q 465 841 479 939 l 455 775 q 381 630 441 677 q 237 583 322 583 m 210 769 q 217 715 203 731 q 254 699 230 699 q 294 715 278 699 q 316 769 309 731 l 326 848 q 320 903 332 885 q 284 920 308 920 q 243 903 260 920 q 220 848 226 885 l 210 769 m 883 765 l 47 218 l -3 311 l 827 855 l 883 765 m 631 -28 q 567 -11 593 -28 q 528 40 540 5 q 471 -11 504 5 q 399 -28 438 -28 q 301 19 335 -28 q 280 164 266 66 l 289 221 q 352 367 303 319 q 470 415 402 415 q 533 399 506 415 q 572 347 561 383 q 626 399 595 383 q 693 415 657 415 q 797 367 761 415 q 819 221 833 319 l 811 164 q 748 19 797 66 q 631 -28 699 -28 m 400 154 q 404 100 395 116 q 432 85 413 85 q 463 100 451 85 q 481 154 476 116 l 492 232 q 490 287 497 269 q 463 304 482 304 q 431 287 444 304 q 412 232 417 269 l 400 154 m 607 154 q 610 100 602 116 q 638 85 619 85 q 669 100 657 85 q 687 154 682 116 l 698 232 q 696 287 703 269 q 669 304 688 304 q 637 287 650 304 q 619 232 624 269 l 607 154 z "},"'":{"ha":884,"x_min":342,"x_max":649,"o":"m 342 461 l 376 1010 l 649 1010 l 529 461 l 342 461 z "},"\"":{"ha":884,"x_min":162,"x_max":830,"o":"m 540 461 l 574 1010 l 830 1010 l 710 461 l 540 461 m 162 461 l 196 1010 l 451 1010 l 331 461 l 162 461 z "},"ʻ":{"ha":884,"x_min":211,"x_max":739,"o":"m 211 461 l 595 1010 l 739 1010 l 535 461 l 211 461 z "},"‘":{"ha":884,"x_min":211,"x_max":739,"o":"m 211 461 l 595 1010 l 739 1010 l 535 461 l 211 461 z "},"’":{"ha":884,"x_min":210,"x_max":737,"o":"m 210 461 l 413 1010 l 737 1010 l 354 461 l 210 461 z "},"“":{"ha":884,"x_min":48,"x_max":907,"o":"m 427 461 l 784 1010 l 907 1010 l 721 461 l 427 461 m 48 461 l 414 1010 l 537 1010 l 342 461 l 48 461 z "},"”":{"ha":884,"x_min":42,"x_max":900,"o":"m 412 461 l 606 1010 l 900 1010 l 534 461 l 412 461 m 42 461 l 227 1010 l 521 1010 l 164 461 l 42 461 z "},"‛":{"ha":884,"x_min":261,"x_max":635,"o":"m 491 461 l 261 1010 l 587 1010 l 635 461 l 491 461 z "},"‚":{"ha":884,"x_min":129,"x_max":631,"o":"m 129 -208 l 307 341 l 631 341 l 273 -208 l 129 -208 z "},"„":{"ha":884,"x_min":4,"x_max":862,"o":"m 374 -208 l 568 341 l 862 341 l 496 -208 l 374 -208 m 4 -208 l 189 341 l 484 341 l 126 -208 l 4 -208 z "},"‹":{"ha":884,"x_min":184,"x_max":721,"o":"m 612 56 l 184 335 l 215 549 l 721 828 l 694 638 l 340 442 l 639 246 l 612 56 z "},"›":{"ha":884,"x_min":145,"x_max":682,"o":"m 145 56 l 172 246 l 527 442 l 227 638 l 254 828 l 682 549 l 652 335 l 145 56 z "},"«":{"ha":884,"x_min":25,"x_max":881,"o":"m 773 56 l 448 335 l 479 549 l 881 828 l 855 638 l 572 442 l 799 246 l 773 56 m 350 56 l 25 335 l 56 549 l 458 828 l 432 638 l 149 442 l 376 246 l 350 56 z "},"»":{"ha":884,"x_min":-14,"x_max":842,"o":"m -14 56 l 13 246 l 295 442 l 68 638 l 95 828 l 419 549 l 389 335 l -14 56 m 409 56 l 436 246 l 718 442 l 491 638 l 518 828 l 842 549 l 812 335 l 409 56 z "},"*":{"ha":884,"x_min":67,"x_max":854,"o":"m 698 336 l 490 558 l 500 253 l 311 253 l 408 557 l 138 336 l 67 500 l 390 633 l 104 765 l 221 929 l 429 707 l 417 1010 l 606 1010 l 511 706 l 782 929 l 854 765 l 528 633 l 817 500 l 698 336 z "},"†":{"ha":884,"x_min":32,"x_max":824,"o":"m 242 -253 l 362 600 l 266 600 l 186 326 l 32 326 l 130 758 l 383 758 l 407 1010 l 620 1010 l 572 758 l 824 758 l 802 326 l 648 326 l 645 600 l 551 600 l 431 -253 l 242 -253 z "},"‡":{"ha":884,"x_min":16,"x_max":833,"o":"m 230 -253 l 270 -27 l 16 -27 l 23 290 l 168 290 l 197 131 l 297 131 l 366 626 l 266 626 l 193 467 l 48 467 l 130 784 l 384 784 l 407 1010 l 620 1010 l 580 784 l 833 784 l 827 467 l 682 467 l 654 626 l 554 626 l 485 131 l 585 131 l 657 290 l 802 290 l 720 -27 l 466 -27 l 443 -253 l 230 -253 z "},".":{"ha":884,"x_min":205,"x_max":585,"o":"m 371 -13 q 248 22 292 -13 q 213 121 205 57 l 226 208 q 288 309 235 274 q 420 345 341 345 q 542 309 499 345 q 576 208 585 274 l 563 121 q 501 22 554 57 q 371 -13 447 -13 z "},",":{"ha":884,"x_min":129,"x_max":631,"o":"m 129 -208 l 307 341 l 631 341 l 273 -208 l 129 -208 z "},":":{"ha":884,"x_min":217,"x_max":636,"o":"m 441 489 q 328 520 369 489 q 295 609 287 551 l 304 678 q 363 769 313 737 q 485 801 413 801 q 597 769 557 801 q 628 678 636 737 l 619 609 q 560 520 610 551 q 441 489 510 489 m 371 -8 q 258 23 299 -8 q 226 112 217 54 l 235 182 q 294 273 244 241 q 415 304 343 304 q 527 273 487 304 q 558 182 567 241 l 549 112 q 491 23 540 54 q 371 -8 441 -8 z "},";":{"ha":884,"x_min":148,"x_max":636,"o":"m 441 489 q 328 520 369 489 q 295 609 287 551 l 304 678 q 363 769 313 737 q 485 801 413 801 q 597 769 557 801 q 628 678 636 737 l 619 609 q 560 520 610 551 q 441 489 510 489 m 148 -189 l 313 322 l 614 322 l 280 -189 l 148 -189 z "},"…":{"ha":884,"x_min":-24,"x_max":812,"o":"m 672 -11 q 604 15 629 -11 q 588 95 580 40 l 607 236 q 646 318 615 292 q 721 345 678 345 q 789 318 765 345 q 804 236 812 292 l 785 95 q 746 15 777 40 q 672 -11 715 -11 m 370 -11 q 302 15 327 -11 q 287 95 278 40 l 306 236 q 345 318 313 292 q 419 345 376 345 q 487 318 463 345 q 503 236 510 292 l 484 95 q 444 15 475 40 q 370 -11 413 -11 m 69 -11 q 1 15 25 -11 q -15 95 -24 40 l 4 236 q 43 318 11 292 q 119 345 74 345 q 185 318 162 345 q 201 236 208 292 l 182 95 q 143 15 173 40 q 69 -11 112 -11 z "},"!":{"ha":884,"x_min":211,"x_max":641,"o":"m 326 379 l 376 1010 l 641 1010 l 515 379 l 326 379 m 371 -13 q 249 13 288 -13 q 218 93 211 39 l 223 129 q 277 211 232 184 q 405 237 322 237 q 527 211 489 237 q 556 129 564 184 l 551 93 q 497 13 543 39 q 371 -13 452 -13 z "},"¡":{"ha":884,"x_min":245,"x_max":674,"o":"m 515 1023 q 636 997 598 1023 q 667 917 674 971 l 662 881 q 609 799 654 826 q 480 773 563 773 q 359 799 396 773 q 330 881 322 826 l 335 917 q 388 997 342 971 q 515 1023 434 1023 m 561 631 l 510 0 l 245 0 l 371 631 l 561 631 z "},"‼":{"ha":884,"x_min":29,"x_max":845,"o":"m 564 379 l 615 1010 l 845 1010 l 718 379 l 564 379 m 140 379 l 191 1010 l 420 1010 l 294 379 l 140 379 m 592 -13 q 527 -6 554 -13 q 482 13 500 0 q 460 46 467 27 q 457 93 453 66 l 462 129 q 479 177 466 157 q 510 211 491 198 q 560 231 532 225 q 626 237 588 237 q 691 231 664 237 q 734 211 718 225 q 757 177 751 198 q 759 129 763 157 l 754 93 q 738 46 750 66 q 705 13 726 27 q 657 -6 686 0 q 592 -13 629 -13 m 168 -13 q 103 -6 130 -13 q 58 13 76 0 q 36 46 43 27 q 33 93 29 66 l 38 129 q 54 177 42 157 q 86 211 67 198 q 136 231 107 225 q 202 237 164 237 q 267 231 240 237 q 309 211 294 225 q 333 177 327 198 q 335 129 338 157 l 330 93 q 314 46 326 66 q 280 13 302 27 q 233 -6 261 0 q 168 -13 205 -13 z "},"?":{"ha":884,"x_min":92,"x_max":857,"o":"m 275 351 l 270 497 q 540 575 470 529 q 621 697 610 621 l 625 726 q 609 828 634 792 q 492 865 583 865 q 361 827 395 865 q 304 693 327 789 l 92 706 q 223 948 124 872 q 514 1023 323 1023 q 779 940 701 1023 q 841 737 857 857 l 835 692 q 681 466 813 542 q 275 351 548 390 m 309 -13 q 188 13 226 -13 q 158 93 150 39 l 163 129 q 216 211 172 184 q 343 237 260 237 q 465 211 427 237 q 495 129 504 184 l 490 93 q 436 13 482 39 q 309 -13 390 -13 z "}}}
